M48
;DRILL file {KiCad 4.0.6} date 04/17/17 12:51:20
;FORMAT={-:-/ absolute / inch / decimal}
FMAT,2
INCH,TZ
T1C0.016
T2C0.031
T3C0.035
T4C0.039
%
G90
G05
M72
T1
X4.8Y-3.8
X4.975Y-3.8
X5.15Y-3.325
X5.15Y-3.55
X5.35Y-3.85
X5.4148Y-3.6898
X5.425Y-4.025
X5.425Y-4.4
X5.5Y-3.925
X5.525Y-3.775
X5.575Y-4.1
X5.675Y-3.45
X5.675Y-3.725
X5.675Y-4.175
X5.7Y-3.65
X5.725Y-3.55
X5.725Y-3.825
T2
X5.2Y-3.9079
X5.2Y-4.1
T3
X5.225Y-4.375
X5.225Y-4.475
X5.225Y-4.575
X5.975Y-3.45
X5.975Y-3.55
X5.975Y-3.65
T4
X4.5Y-3.425
X4.5Y-3.525
X4.5Y-4.
X4.5Y-4.1
X4.875Y-3.4
X4.875Y-3.5
X4.875Y-3.6
X4.875Y-3.7
X5.525Y-4.325
X5.625Y-4.325
X5.825Y-3.975
X5.825Y-4.075
X5.925Y-3.975
X5.925Y-4.075
X6.025Y-3.975
X6.025Y-4.075
T0
M30
