G04 #@! TF.FileFunction,Legend,Top*
%FSLAX46Y46*%
G04 Gerber Fmt 4.6, Leading zero omitted, Abs format (unit mm)*
G04 Created by KiCad (PCBNEW 4.0.6) date 04/17/17 12:50:54*
%MOMM*%
%LPD*%
G01*
G04 APERTURE LIST*
%ADD10C,0.100000*%
%ADD11C,0.150000*%
%ADD12C,0.200000*%
%ADD13C,0.250000*%
%ADD14C,0.050000*%
%ADD15C,0.120000*%
G04 APERTURE END LIST*
D10*
D11*
X148082000Y-96393000D02*
X148209000Y-96012000D01*
X148082000Y-96393000D02*
X147955000Y-96012000D01*
X148082000Y-95123000D02*
X148463000Y-94742000D01*
X148082000Y-96393000D02*
X148082000Y-95123000D01*
X154940000Y-107950000D02*
X154559000Y-108331000D01*
X154432000Y-104902000D02*
X154559000Y-105283000D01*
X154432000Y-104902000D02*
X154813000Y-105029000D01*
X154432000Y-104902000D02*
X154940000Y-105410000D01*
X154940000Y-107950000D02*
X154940000Y-105410000D01*
D12*
X154870476Y-110577190D02*
X153620476Y-110577190D01*
X154810952Y-110148619D02*
X154870476Y-110005762D01*
X154870476Y-109767666D01*
X154810952Y-109672428D01*
X154751429Y-109624809D01*
X154632381Y-109577190D01*
X154513333Y-109577190D01*
X154394286Y-109624809D01*
X154334762Y-109672428D01*
X154275238Y-109767666D01*
X154215714Y-109958143D01*
X154156190Y-110053381D01*
X154096667Y-110101000D01*
X153977619Y-110148619D01*
X153858571Y-110148619D01*
X153739524Y-110101000D01*
X153680000Y-110053381D01*
X153620476Y-109958143D01*
X153620476Y-109720047D01*
X153680000Y-109577190D01*
X154870476Y-109148619D02*
X153620476Y-109148619D01*
X153620476Y-108767666D01*
X153680000Y-108672428D01*
X153739524Y-108624809D01*
X153858571Y-108577190D01*
X154037143Y-108577190D01*
X154156190Y-108624809D01*
X154215714Y-108672428D01*
X154275238Y-108767666D01*
X154275238Y-109148619D01*
X114300000Y-83566000D02*
X114300000Y-85344000D01*
X114046000Y-83312000D02*
X114300000Y-83566000D01*
X133914144Y-79131000D02*
X133795096Y-79071476D01*
X133616525Y-79071476D01*
X133437953Y-79131000D01*
X133318906Y-79250048D01*
X133259382Y-79369095D01*
X133199858Y-79607190D01*
X133199858Y-79785762D01*
X133259382Y-80023857D01*
X133318906Y-80142905D01*
X133437953Y-80261952D01*
X133616525Y-80321476D01*
X133735573Y-80321476D01*
X133914144Y-80261952D01*
X133973668Y-80202429D01*
X133973668Y-79785762D01*
X133735573Y-79785762D01*
X134509382Y-80321476D02*
X134509382Y-79071476D01*
X134985573Y-79071476D01*
X135104620Y-79131000D01*
X135164144Y-79190524D01*
X135223668Y-79309571D01*
X135223668Y-79488143D01*
X135164144Y-79607190D01*
X135104620Y-79666714D01*
X134985573Y-79726238D01*
X134509382Y-79726238D01*
X135699858Y-80261952D02*
X135878430Y-80321476D01*
X136176049Y-80321476D01*
X136295096Y-80261952D01*
X136354620Y-80202429D01*
X136414144Y-80083381D01*
X136414144Y-79964333D01*
X136354620Y-79845286D01*
X136295096Y-79785762D01*
X136176049Y-79726238D01*
X135937953Y-79666714D01*
X135818906Y-79607190D01*
X135759382Y-79547667D01*
X135699858Y-79428619D01*
X135699858Y-79309571D01*
X135759382Y-79190524D01*
X135818906Y-79131000D01*
X135937953Y-79071476D01*
X136235573Y-79071476D01*
X136414144Y-79131000D01*
X137902239Y-80321476D02*
X137902239Y-79071476D01*
X138318906Y-79964333D01*
X138735572Y-79071476D01*
X138735572Y-80321476D01*
X139509381Y-80321476D02*
X139390334Y-80261952D01*
X139330810Y-80202429D01*
X139271286Y-80083381D01*
X139271286Y-79726238D01*
X139330810Y-79607190D01*
X139390334Y-79547667D01*
X139509381Y-79488143D01*
X139687953Y-79488143D01*
X139807001Y-79547667D01*
X139866524Y-79607190D01*
X139926048Y-79726238D01*
X139926048Y-80083381D01*
X139866524Y-80202429D01*
X139807001Y-80261952D01*
X139687953Y-80321476D01*
X139509381Y-80321476D01*
X140997476Y-80321476D02*
X140997476Y-79071476D01*
X140997476Y-80261952D02*
X140878429Y-80321476D01*
X140640333Y-80321476D01*
X140521286Y-80261952D01*
X140461762Y-80202429D01*
X140402238Y-80083381D01*
X140402238Y-79726238D01*
X140461762Y-79607190D01*
X140521286Y-79547667D01*
X140640333Y-79488143D01*
X140878429Y-79488143D01*
X140997476Y-79547667D01*
X142128428Y-79488143D02*
X142128428Y-80321476D01*
X141592714Y-79488143D02*
X141592714Y-80142905D01*
X141652238Y-80261952D01*
X141771285Y-80321476D01*
X141949857Y-80321476D01*
X142068905Y-80261952D01*
X142128428Y-80202429D01*
X142902237Y-80321476D02*
X142783190Y-80261952D01*
X142723666Y-80142905D01*
X142723666Y-79071476D01*
X143854619Y-80261952D02*
X143735571Y-80321476D01*
X143497476Y-80321476D01*
X143378428Y-80261952D01*
X143318904Y-80142905D01*
X143318904Y-79666714D01*
X143378428Y-79547667D01*
X143497476Y-79488143D01*
X143735571Y-79488143D01*
X143854619Y-79547667D01*
X143914142Y-79666714D01*
X143914142Y-79785762D01*
X143318904Y-79904810D01*
X123110715Y-95805000D02*
X123015477Y-95757381D01*
X122872620Y-95757381D01*
X122729762Y-95805000D01*
X122634524Y-95900238D01*
X122586905Y-95995476D01*
X122539286Y-96185952D01*
X122539286Y-96328810D01*
X122586905Y-96519286D01*
X122634524Y-96614524D01*
X122729762Y-96709762D01*
X122872620Y-96757381D01*
X122967858Y-96757381D01*
X123110715Y-96709762D01*
X123158334Y-96662143D01*
X123158334Y-96328810D01*
X122967858Y-96328810D01*
X123586905Y-96757381D02*
X123586905Y-95757381D01*
X123967858Y-95757381D01*
X124063096Y-95805000D01*
X124110715Y-95852619D01*
X124158334Y-95947857D01*
X124158334Y-96090714D01*
X124110715Y-96185952D01*
X124063096Y-96233571D01*
X123967858Y-96281190D01*
X123586905Y-96281190D01*
X124539286Y-96709762D02*
X124682143Y-96757381D01*
X124920239Y-96757381D01*
X125015477Y-96709762D01*
X125063096Y-96662143D01*
X125110715Y-96566905D01*
X125110715Y-96471667D01*
X125063096Y-96376429D01*
X125015477Y-96328810D01*
X124920239Y-96281190D01*
X124729762Y-96233571D01*
X124634524Y-96185952D01*
X124586905Y-96138333D01*
X124539286Y-96043095D01*
X124539286Y-95947857D01*
X124586905Y-95852619D01*
X124634524Y-95805000D01*
X124729762Y-95757381D01*
X124967858Y-95757381D01*
X125110715Y-95805000D01*
X121777381Y-98457381D02*
X121777381Y-97457381D01*
X122015476Y-97457381D01*
X122158334Y-97505000D01*
X122253572Y-97600238D01*
X122301191Y-97695476D01*
X122348810Y-97885952D01*
X122348810Y-98028810D01*
X122301191Y-98219286D01*
X122253572Y-98314524D01*
X122158334Y-98409762D01*
X122015476Y-98457381D01*
X121777381Y-98457381D01*
X123158334Y-98409762D02*
X123063096Y-98457381D01*
X122872619Y-98457381D01*
X122777381Y-98409762D01*
X122729762Y-98314524D01*
X122729762Y-97933571D01*
X122777381Y-97838333D01*
X122872619Y-97790714D01*
X123063096Y-97790714D01*
X123158334Y-97838333D01*
X123205953Y-97933571D01*
X123205953Y-98028810D01*
X122729762Y-98124048D01*
X123634524Y-98457381D02*
X123634524Y-97457381D01*
X123634524Y-97838333D02*
X123729762Y-97790714D01*
X123920239Y-97790714D01*
X124015477Y-97838333D01*
X124063096Y-97885952D01*
X124110715Y-97981190D01*
X124110715Y-98266905D01*
X124063096Y-98362143D01*
X124015477Y-98409762D01*
X123920239Y-98457381D01*
X123729762Y-98457381D01*
X123634524Y-98409762D01*
X124967858Y-97790714D02*
X124967858Y-98457381D01*
X124539286Y-97790714D02*
X124539286Y-98314524D01*
X124586905Y-98409762D01*
X124682143Y-98457381D01*
X124825001Y-98457381D01*
X124920239Y-98409762D01*
X124967858Y-98362143D01*
X125872620Y-97790714D02*
X125872620Y-98600238D01*
X125825001Y-98695476D01*
X125777382Y-98743095D01*
X125682143Y-98790714D01*
X125539286Y-98790714D01*
X125444048Y-98743095D01*
X125872620Y-98409762D02*
X125777382Y-98457381D01*
X125586905Y-98457381D01*
X125491667Y-98409762D01*
X125444048Y-98362143D01*
X125396429Y-98266905D01*
X125396429Y-97981190D01*
X125444048Y-97885952D01*
X125491667Y-97838333D01*
X125586905Y-97790714D01*
X125777382Y-97790714D01*
X125872620Y-97838333D01*
X125484000Y-86994904D02*
X125436381Y-87090142D01*
X125436381Y-87232999D01*
X125484000Y-87375857D01*
X125579238Y-87471095D01*
X125674476Y-87518714D01*
X125864952Y-87566333D01*
X126007810Y-87566333D01*
X126198286Y-87518714D01*
X126293524Y-87471095D01*
X126388762Y-87375857D01*
X126436381Y-87232999D01*
X126436381Y-87137761D01*
X126388762Y-86994904D01*
X126341143Y-86947285D01*
X126007810Y-86947285D01*
X126007810Y-87137761D01*
X126436381Y-86518714D02*
X125436381Y-86518714D01*
X126436381Y-85947285D01*
X125436381Y-85947285D01*
X126436381Y-85471095D02*
X125436381Y-85471095D01*
X125436381Y-85233000D01*
X125484000Y-85090142D01*
X125579238Y-84994904D01*
X125674476Y-84947285D01*
X125864952Y-84899666D01*
X126007810Y-84899666D01*
X126198286Y-84947285D01*
X126293524Y-84994904D01*
X126388762Y-85090142D01*
X126436381Y-85233000D01*
X126436381Y-85471095D01*
X125436381Y-89661905D02*
X125436381Y-89090476D01*
X126436381Y-89376191D02*
X125436381Y-89376191D01*
X125436381Y-88852381D02*
X126436381Y-88185714D01*
X125436381Y-88185714D02*
X126436381Y-88852381D01*
X125436381Y-95170476D02*
X126436381Y-94837143D01*
X125436381Y-94503809D01*
X126388762Y-93741904D02*
X126436381Y-93837142D01*
X126436381Y-94027619D01*
X126388762Y-94122857D01*
X126341143Y-94170476D01*
X126245905Y-94218095D01*
X125960190Y-94218095D01*
X125864952Y-94170476D01*
X125817333Y-94122857D01*
X125769714Y-94027619D01*
X125769714Y-93837142D01*
X125817333Y-93741904D01*
X126388762Y-92884761D02*
X126436381Y-92979999D01*
X126436381Y-93170476D01*
X126388762Y-93265714D01*
X126341143Y-93313333D01*
X126245905Y-93360952D01*
X125960190Y-93360952D01*
X125864952Y-93313333D01*
X125817333Y-93265714D01*
X125769714Y-93170476D01*
X125769714Y-92979999D01*
X125817333Y-92884761D01*
X126436381Y-91606666D02*
X125960190Y-91940000D01*
X126436381Y-92178095D02*
X125436381Y-92178095D01*
X125436381Y-91797142D01*
X125484000Y-91701904D01*
X125531619Y-91654285D01*
X125626857Y-91606666D01*
X125769714Y-91606666D01*
X125864952Y-91654285D01*
X125912571Y-91701904D01*
X125960190Y-91797142D01*
X125960190Y-92178095D01*
X125436381Y-91273333D02*
X126436381Y-90606666D01*
X125436381Y-90606666D02*
X126436381Y-91273333D01*
X114554000Y-84836000D02*
X114300000Y-85344000D01*
X114300000Y-85344000D02*
X114046000Y-84836000D01*
X113246286Y-85312000D02*
X113246286Y-84550095D01*
X113722476Y-84931047D02*
X112770095Y-84931047D01*
X112472476Y-84169143D02*
X112472476Y-83550095D01*
X112948667Y-83883429D01*
X112948667Y-83740571D01*
X113008190Y-83645333D01*
X113067714Y-83597714D01*
X113186762Y-83550095D01*
X113484381Y-83550095D01*
X113603429Y-83597714D01*
X113662952Y-83645333D01*
X113722476Y-83740571D01*
X113722476Y-84026286D01*
X113662952Y-84121524D01*
X113603429Y-84169143D01*
X113603429Y-83121524D02*
X113662952Y-83073905D01*
X113722476Y-83121524D01*
X113662952Y-83169143D01*
X113603429Y-83121524D01*
X113722476Y-83121524D01*
X112472476Y-82740572D02*
X112472476Y-82121524D01*
X112948667Y-82454858D01*
X112948667Y-82312000D01*
X113008190Y-82216762D01*
X113067714Y-82169143D01*
X113186762Y-82121524D01*
X113484381Y-82121524D01*
X113603429Y-82169143D01*
X113662952Y-82216762D01*
X113722476Y-82312000D01*
X113722476Y-82597715D01*
X113662952Y-82692953D01*
X113603429Y-82740572D01*
X112472476Y-81835810D02*
X113722476Y-81502477D01*
X112472476Y-81169143D01*
X113014286Y-99403286D02*
X113776191Y-99403286D01*
X113395239Y-99879476D02*
X113395239Y-98927095D01*
X114728572Y-98629476D02*
X114252381Y-98629476D01*
X114204762Y-99224714D01*
X114252381Y-99165190D01*
X114347619Y-99105667D01*
X114585715Y-99105667D01*
X114680953Y-99165190D01*
X114728572Y-99224714D01*
X114776191Y-99343762D01*
X114776191Y-99641381D01*
X114728572Y-99760429D01*
X114680953Y-99819952D01*
X114585715Y-99879476D01*
X114347619Y-99879476D01*
X114252381Y-99819952D01*
X114204762Y-99760429D01*
X115061905Y-98629476D02*
X115395238Y-99879476D01*
X115728572Y-98629476D01*
X137364476Y-110896667D02*
X137364476Y-110658571D01*
X137424000Y-110539524D01*
X137543048Y-110420476D01*
X137781143Y-110360952D01*
X138197810Y-110360952D01*
X138435905Y-110420476D01*
X138554952Y-110539524D01*
X138614476Y-110658571D01*
X138614476Y-110896667D01*
X138554952Y-111015714D01*
X138435905Y-111134762D01*
X138197810Y-111194286D01*
X137781143Y-111194286D01*
X137543048Y-111134762D01*
X137424000Y-111015714D01*
X137364476Y-110896667D01*
X137781143Y-109289524D02*
X138614476Y-109289524D01*
X137781143Y-109825238D02*
X138435905Y-109825238D01*
X138554952Y-109765714D01*
X138614476Y-109646667D01*
X138614476Y-109468095D01*
X138554952Y-109349047D01*
X138495429Y-109289524D01*
X137781143Y-108872857D02*
X137781143Y-108396667D01*
X137364476Y-108694286D02*
X138435905Y-108694286D01*
X138554952Y-108634762D01*
X138614476Y-108515715D01*
X138614476Y-108396667D01*
X142738096Y-116800000D02*
X142642858Y-116752381D01*
X142500001Y-116752381D01*
X142357143Y-116800000D01*
X142261905Y-116895238D01*
X142214286Y-116990476D01*
X142166667Y-117180952D01*
X142166667Y-117323810D01*
X142214286Y-117514286D01*
X142261905Y-117609524D01*
X142357143Y-117704762D01*
X142500001Y-117752381D01*
X142595239Y-117752381D01*
X142738096Y-117704762D01*
X142785715Y-117657143D01*
X142785715Y-117323810D01*
X142595239Y-117323810D01*
X143214286Y-117752381D02*
X143214286Y-116752381D01*
X143785715Y-117752381D01*
X143785715Y-116752381D01*
X144261905Y-117752381D02*
X144261905Y-116752381D01*
X144500000Y-116752381D01*
X144642858Y-116800000D01*
X144738096Y-116895238D01*
X144785715Y-116990476D01*
X144833334Y-117180952D01*
X144833334Y-117323810D01*
X144785715Y-117514286D01*
X144738096Y-117609524D01*
X144642858Y-117704762D01*
X144500000Y-117752381D01*
X144261905Y-117752381D01*
X139466666Y-116752381D02*
X139657143Y-116752381D01*
X139752381Y-116800000D01*
X139847619Y-116895238D01*
X139895238Y-117085714D01*
X139895238Y-117419048D01*
X139847619Y-117609524D01*
X139752381Y-117704762D01*
X139657143Y-117752381D01*
X139466666Y-117752381D01*
X139371428Y-117704762D01*
X139276190Y-117609524D01*
X139228571Y-117419048D01*
X139228571Y-117085714D01*
X139276190Y-116895238D01*
X139371428Y-116800000D01*
X139466666Y-116752381D01*
X140752381Y-117085714D02*
X140752381Y-117752381D01*
X140323809Y-117085714D02*
X140323809Y-117609524D01*
X140371428Y-117704762D01*
X140466666Y-117752381D01*
X140609524Y-117752381D01*
X140704762Y-117704762D01*
X140752381Y-117657143D01*
X141085714Y-117085714D02*
X141466666Y-117085714D01*
X141228571Y-116752381D02*
X141228571Y-117609524D01*
X141276190Y-117704762D01*
X141371428Y-117752381D01*
X141466666Y-117752381D01*
X135723810Y-116752381D02*
X136342858Y-116752381D01*
X136009524Y-117133333D01*
X136152382Y-117133333D01*
X136247620Y-117180952D01*
X136295239Y-117228571D01*
X136342858Y-117323810D01*
X136342858Y-117561905D01*
X136295239Y-117657143D01*
X136247620Y-117704762D01*
X136152382Y-117752381D01*
X135866667Y-117752381D01*
X135771429Y-117704762D01*
X135723810Y-117657143D01*
X136771429Y-117657143D02*
X136819048Y-117704762D01*
X136771429Y-117752381D01*
X136723810Y-117704762D01*
X136771429Y-117657143D01*
X136771429Y-117752381D01*
X137152381Y-116752381D02*
X137771429Y-116752381D01*
X137438095Y-117133333D01*
X137580953Y-117133333D01*
X137676191Y-117180952D01*
X137723810Y-117228571D01*
X137771429Y-117323810D01*
X137771429Y-117561905D01*
X137723810Y-117657143D01*
X137676191Y-117704762D01*
X137580953Y-117752381D01*
X137295238Y-117752381D01*
X137200000Y-117704762D01*
X137152381Y-117657143D01*
X138057143Y-116752381D02*
X138390476Y-117752381D01*
X138723810Y-116752381D01*
D13*
X153493476Y-117569952D02*
X154743476Y-117153286D01*
X153493476Y-116736619D01*
X153493476Y-116439000D02*
X154743476Y-115605666D01*
X153493476Y-115605666D02*
X154743476Y-116439000D01*
X154267286Y-115129476D02*
X154267286Y-114177095D01*
X154029190Y-113403286D02*
X153969667Y-113522333D01*
X153910143Y-113581857D01*
X153791095Y-113641381D01*
X153731571Y-113641381D01*
X153612524Y-113581857D01*
X153553000Y-113522333D01*
X153493476Y-113403286D01*
X153493476Y-113165190D01*
X153553000Y-113046143D01*
X153612524Y-112986619D01*
X153731571Y-112927095D01*
X153791095Y-112927095D01*
X153910143Y-112986619D01*
X153969667Y-113046143D01*
X154029190Y-113165190D01*
X154029190Y-113403286D01*
X154088714Y-113522333D01*
X154148238Y-113581857D01*
X154267286Y-113641381D01*
X154505381Y-113641381D01*
X154624429Y-113581857D01*
X154683952Y-113522333D01*
X154743476Y-113403286D01*
X154743476Y-113165190D01*
X154683952Y-113046143D01*
X154624429Y-112986619D01*
X154505381Y-112927095D01*
X154267286Y-112927095D01*
X154148238Y-112986619D01*
X154088714Y-113046143D01*
X154029190Y-113165190D01*
D10*
X116500000Y-109250000D02*
G75*
G03X116500000Y-109250000I-2000000J0D01*
G01*
D13*
X155000000Y-84250000D02*
G75*
G03X155000000Y-84250000I-2000000J0D01*
G01*
D14*
X117000000Y-116000000D02*
X117000000Y-118500000D01*
X114500000Y-113500000D02*
X112000000Y-113500000D01*
X117000000Y-116000000D02*
G75*
G03X114500000Y-113500000I-2500000J0D01*
G01*
X150500000Y-77500000D02*
G75*
G03X153000000Y-80000000I2500000J0D01*
G01*
X153000000Y-80000000D02*
X155500000Y-80000000D01*
X150500000Y-75000000D02*
X150500000Y-77500000D01*
X112000000Y-75000000D02*
X150500000Y-75000000D01*
X112000000Y-113500000D02*
X112000000Y-75000000D01*
X155500000Y-118500000D02*
X117000000Y-118500000D01*
X155500000Y-80000000D02*
X155500000Y-118500000D01*
D15*
X117630000Y-91170000D02*
X121930000Y-91170000D01*
X121930000Y-91170000D02*
X121930000Y-89170000D01*
X121930000Y-89170000D02*
X117630000Y-89170000D01*
D11*
X119749360Y-117199180D02*
X127450640Y-117199180D01*
X119749360Y-118199940D02*
X127450640Y-118199940D01*
X127450640Y-118199940D02*
X127450640Y-109000060D01*
X127450640Y-109000060D02*
X119749360Y-109000060D01*
X119749360Y-109000060D02*
X119749360Y-118199940D01*
X136710000Y-97975000D02*
X136710000Y-98200000D01*
X143960000Y-97975000D02*
X143960000Y-98300000D01*
X143960000Y-105225000D02*
X143960000Y-104900000D01*
X136710000Y-105225000D02*
X136710000Y-104900000D01*
X136710000Y-97975000D02*
X137035000Y-97975000D01*
X136710000Y-105225000D02*
X137035000Y-105225000D01*
X143960000Y-105225000D02*
X143635000Y-105225000D01*
X143960000Y-97975000D02*
X143635000Y-97975000D01*
X136710000Y-98200000D02*
X135285000Y-98200000D01*
X119180000Y-96725000D02*
G75*
G03X119180000Y-96725000I-100000J0D01*
G01*
X119630000Y-96975000D02*
X119130000Y-96975000D01*
X119630000Y-99875000D02*
X119630000Y-96975000D01*
X119130000Y-99875000D02*
X119630000Y-99875000D01*
X119130000Y-96975000D02*
X119130000Y-99875000D01*
X151400000Y-98815000D02*
X153400000Y-98815000D01*
X153400000Y-96765000D02*
X151400000Y-96765000D01*
X129295000Y-106410000D02*
X129295000Y-104410000D01*
X127245000Y-104410000D02*
X127245000Y-106410000D01*
X127245000Y-98695000D02*
X127245000Y-100695000D01*
X129295000Y-100695000D02*
X129295000Y-98695000D01*
X118380000Y-105165000D02*
X120380000Y-105165000D01*
X120380000Y-103115000D02*
X118380000Y-103115000D01*
X118380000Y-102625000D02*
X120380000Y-102625000D01*
X120380000Y-100575000D02*
X118380000Y-100575000D01*
X119575000Y-87360000D02*
X119575000Y-85360000D01*
X121725000Y-85360000D02*
X121725000Y-87360000D01*
X148955000Y-98865000D02*
X146955000Y-98865000D01*
X146955000Y-96715000D02*
X148955000Y-96715000D01*
D15*
X117725000Y-85360000D02*
X117725000Y-87360000D01*
X119765000Y-87360000D02*
X119765000Y-85360000D01*
X126760000Y-106430000D02*
X125590000Y-106430000D01*
X122190000Y-106430000D02*
X123360000Y-106430000D01*
X122950000Y-101850000D02*
X123360000Y-101850000D01*
X126000000Y-101850000D02*
X125590000Y-101850000D01*
X126760000Y-102620000D02*
X126760000Y-106430000D01*
X126760000Y-102620000D02*
X126000000Y-101850000D01*
X122190000Y-102620000D02*
X122190000Y-106430000D01*
X122190000Y-102620000D02*
X122950000Y-101850000D01*
X114550000Y-96280000D02*
X114550000Y-95110000D01*
X114550000Y-91710000D02*
X114550000Y-92880000D01*
X119130000Y-92470000D02*
X119130000Y-92880000D01*
X119130000Y-95520000D02*
X119130000Y-95110000D01*
X118360000Y-96280000D02*
X114550000Y-96280000D01*
X118360000Y-96280000D02*
X119130000Y-95520000D01*
X118360000Y-91710000D02*
X114550000Y-91710000D01*
X118360000Y-91710000D02*
X119130000Y-92470000D01*
X149225000Y-104835000D02*
X154365000Y-104835000D01*
X154365000Y-104835000D02*
X154365000Y-99635000D01*
X154365000Y-99635000D02*
X146625000Y-99635000D01*
X146625000Y-99635000D02*
X146625000Y-102235000D01*
X146625000Y-102235000D02*
X149225000Y-102235000D01*
X149225000Y-102235000D02*
X149225000Y-104835000D01*
X147955000Y-104835000D02*
X146625000Y-104835000D01*
X146625000Y-104835000D02*
X146625000Y-103505000D01*
X133793608Y-115337335D02*
G75*
G03X133950516Y-112105000I-1078608J1672335D01*
G01*
X131636392Y-115337335D02*
G75*
G02X131479484Y-112105000I1078608J1672335D01*
G01*
X133794837Y-114706130D02*
G75*
G03X133795000Y-112624039I-1079837J1041130D01*
G01*
X131635163Y-114706130D02*
G75*
G02X131635000Y-112624039I1079837J1041130D01*
G01*
X133951000Y-112105000D02*
X133795000Y-112105000D01*
X131635000Y-112105000D02*
X131479000Y-112105000D01*
X125155000Y-92710000D02*
X125155000Y-85030000D01*
X125155000Y-85030000D02*
X122495000Y-85030000D01*
X122495000Y-85030000D02*
X122495000Y-92710000D01*
X122495000Y-92710000D02*
X125155000Y-92710000D01*
X125155000Y-93980000D02*
X125155000Y-95310000D01*
X125155000Y-95310000D02*
X123825000Y-95310000D01*
X141605000Y-111185000D02*
X144205000Y-111185000D01*
X144205000Y-111185000D02*
X144205000Y-108525000D01*
X144205000Y-108525000D02*
X141605000Y-108525000D01*
X141605000Y-108525000D02*
X141605000Y-111185000D01*
X140335000Y-111185000D02*
X139005000Y-111185000D01*
X139005000Y-111185000D02*
X139005000Y-109855000D01*
X112970000Y-88265000D02*
X112970000Y-90865000D01*
X112970000Y-90865000D02*
X115630000Y-90865000D01*
X115630000Y-90865000D02*
X115630000Y-88265000D01*
X115630000Y-88265000D02*
X112970000Y-88265000D01*
X112970000Y-86995000D02*
X112970000Y-85665000D01*
X112970000Y-85665000D02*
X114300000Y-85665000D01*
X112970000Y-102870000D02*
X112970000Y-105470000D01*
X112970000Y-105470000D02*
X115630000Y-105470000D01*
X115630000Y-105470000D02*
X115630000Y-102870000D01*
X115630000Y-102870000D02*
X112970000Y-102870000D01*
X112970000Y-101600000D02*
X112970000Y-100270000D01*
X112970000Y-100270000D02*
X114300000Y-100270000D01*
X115059000Y-82620000D02*
X114659000Y-82620000D01*
X117859000Y-82620000D02*
X118259000Y-82620000D01*
X118059000Y-82820000D02*
X118059000Y-82420000D01*
X117459000Y-82520000D02*
X117459000Y-77820000D01*
X117459000Y-77820000D02*
X115459000Y-77820000D01*
X115459000Y-77820000D02*
X115459000Y-82520000D01*
X117459000Y-82520000D02*
X115459000Y-82520000D01*
X115259000Y-82620000D02*
G75*
G03X115259000Y-82620000I-400000J0D01*
G01*
X118459000Y-82620000D02*
G75*
G03X118459000Y-82620000I-400000J0D01*
G01*
X117503259Y-82156469D02*
G75*
G03X115459000Y-82170000I-1044259J3336469D01*
G01*
X152960000Y-107535000D02*
X152960000Y-118135000D01*
X152960000Y-106135000D02*
X152960000Y-106035000D01*
X146760000Y-107235000D02*
X146760000Y-106035000D01*
X146760000Y-111235000D02*
X146760000Y-108635000D01*
X146760000Y-114235000D02*
X146760000Y-112635000D01*
X146760000Y-118135000D02*
X146760000Y-115635000D01*
X152960000Y-106035000D02*
X146760000Y-106035000D01*
X146760000Y-118135000D02*
X152960000Y-118135000D01*
X133080000Y-109655000D02*
X131080000Y-109655000D01*
X131080000Y-107515000D02*
X133080000Y-107515000D01*
X120500000Y-77340000D02*
X122050000Y-77340000D01*
X125830000Y-77340000D02*
X124280000Y-77340000D01*
X125070000Y-82680000D02*
X124280000Y-82680000D01*
X121260000Y-82680000D02*
X122050000Y-82680000D01*
X120500000Y-77340000D02*
X120500000Y-81920000D01*
X120500000Y-81920000D02*
X121260000Y-82680000D01*
X125070000Y-82680000D02*
X125830000Y-81920000D01*
X125830000Y-81920000D02*
X125830000Y-77340000D01*
X129555000Y-104900000D02*
X129555000Y-98500000D01*
X134605000Y-104900000D02*
X134605000Y-98500000D01*
X134605000Y-104900000D02*
G75*
G02X129555000Y-104900000I-2525000J0D01*
G01*
X134605000Y-98500000D02*
G75*
G03X129555000Y-98500000I-2525000J0D01*
G01*
X150686392Y-88497665D02*
G75*
G03X150529484Y-91730000I1078608J-1672335D01*
G01*
X152843608Y-88497665D02*
G75*
G02X153000516Y-91730000I-1078608J-1672335D01*
G01*
X150685163Y-89128870D02*
G75*
G03X150685000Y-91210961I1079837J-1041130D01*
G01*
X152844837Y-89128870D02*
G75*
G02X152845000Y-91210961I-1079837J-1041130D01*
G01*
X150529000Y-91730000D02*
X150685000Y-91730000D01*
X152845000Y-91730000D02*
X153001000Y-91730000D01*
X151400000Y-94180000D02*
X153400000Y-94180000D01*
X153400000Y-96320000D02*
X151400000Y-96320000D01*
D11*
X147600000Y-91500000D02*
X147600000Y-91900000D01*
X147600000Y-88500000D02*
X147600000Y-88900000D01*
X147600000Y-85500000D02*
X147600000Y-85900000D01*
X147600000Y-82500000D02*
X147600000Y-82900000D01*
X147600000Y-79500000D02*
X147600000Y-79900000D01*
X127800000Y-79900000D02*
X127800000Y-79500000D01*
X127800000Y-82900000D02*
X127800000Y-82500000D01*
X127800000Y-85900000D02*
X127800000Y-85500000D01*
X127800000Y-88500000D02*
X127800000Y-88900000D01*
X127800000Y-91500000D02*
X127800000Y-91900000D01*
X127800000Y-94500000D02*
X127800000Y-95600000D01*
X127800000Y-95600000D02*
X147600000Y-95600000D01*
X147600000Y-95600000D02*
X147600000Y-94500000D01*
X147600000Y-76900000D02*
X147600000Y-75800000D01*
X147600000Y-75800000D02*
X127800000Y-75800000D01*
X127800000Y-75800000D02*
X127800000Y-76900000D01*
X116101905Y-88844381D02*
X116101905Y-87844381D01*
X116340000Y-87844381D01*
X116482858Y-87892000D01*
X116578096Y-87987238D01*
X116625715Y-88082476D01*
X116673334Y-88272952D01*
X116673334Y-88415810D01*
X116625715Y-88606286D01*
X116578096Y-88701524D01*
X116482858Y-88796762D01*
X116340000Y-88844381D01*
X116101905Y-88844381D01*
X117625715Y-88844381D02*
X117054286Y-88844381D01*
X117340000Y-88844381D02*
X117340000Y-87844381D01*
X117244762Y-87987238D01*
X117149524Y-88082476D01*
X117054286Y-88130095D01*
X134913810Y-96972381D02*
X134913810Y-95972381D01*
X135961429Y-96877143D02*
X135913810Y-96924762D01*
X135770953Y-96972381D01*
X135675715Y-96972381D01*
X135532857Y-96924762D01*
X135437619Y-96829524D01*
X135390000Y-96734286D01*
X135342381Y-96543810D01*
X135342381Y-96400952D01*
X135390000Y-96210476D01*
X135437619Y-96115238D01*
X135532857Y-96020000D01*
X135675715Y-95972381D01*
X135770953Y-95972381D01*
X135913810Y-96020000D01*
X135961429Y-96067619D01*
X136913810Y-96972381D02*
X136342381Y-96972381D01*
X136628095Y-96972381D02*
X136628095Y-95972381D01*
X136532857Y-96115238D01*
X136437619Y-96210476D01*
X136342381Y-96258095D01*
X117292381Y-99401190D02*
X116292381Y-99401190D01*
X117197143Y-98353571D02*
X117244762Y-98401190D01*
X117292381Y-98544047D01*
X117292381Y-98639285D01*
X117244762Y-98782143D01*
X117149524Y-98877381D01*
X117054286Y-98925000D01*
X116863810Y-98972619D01*
X116720952Y-98972619D01*
X116530476Y-98925000D01*
X116435238Y-98877381D01*
X116340000Y-98782143D01*
X116292381Y-98639285D01*
X116292381Y-98544047D01*
X116340000Y-98401190D01*
X116387619Y-98353571D01*
X116387619Y-97972619D02*
X116340000Y-97925000D01*
X116292381Y-97829762D01*
X116292381Y-97591666D01*
X116340000Y-97496428D01*
X116387619Y-97448809D01*
X116482857Y-97401190D01*
X116578095Y-97401190D01*
X116720952Y-97448809D01*
X117292381Y-98020238D01*
X117292381Y-97401190D01*
X149312334Y-96369143D02*
X149264715Y-96416762D01*
X149121858Y-96464381D01*
X149026620Y-96464381D01*
X148883762Y-96416762D01*
X148788524Y-96321524D01*
X148740905Y-96226286D01*
X148693286Y-96035810D01*
X148693286Y-95892952D01*
X148740905Y-95702476D01*
X148788524Y-95607238D01*
X148883762Y-95512000D01*
X149026620Y-95464381D01*
X149121858Y-95464381D01*
X149264715Y-95512000D01*
X149312334Y-95559619D01*
X150264715Y-96464381D02*
X149693286Y-96464381D01*
X149979000Y-96464381D02*
X149979000Y-95464381D01*
X149883762Y-95607238D01*
X149788524Y-95702476D01*
X149693286Y-95750095D01*
X128103334Y-102973143D02*
X128055715Y-103020762D01*
X127912858Y-103068381D01*
X127817620Y-103068381D01*
X127674762Y-103020762D01*
X127579524Y-102925524D01*
X127531905Y-102830286D01*
X127484286Y-102639810D01*
X127484286Y-102496952D01*
X127531905Y-102306476D01*
X127579524Y-102211238D01*
X127674762Y-102116000D01*
X127817620Y-102068381D01*
X127912858Y-102068381D01*
X128055715Y-102116000D01*
X128103334Y-102163619D01*
X128960477Y-102401714D02*
X128960477Y-103068381D01*
X128722381Y-102020762D02*
X128484286Y-102735048D01*
X129103334Y-102735048D01*
X126849143Y-99861666D02*
X126896762Y-99909285D01*
X126944381Y-100052142D01*
X126944381Y-100147380D01*
X126896762Y-100290238D01*
X126801524Y-100385476D01*
X126706286Y-100433095D01*
X126515810Y-100480714D01*
X126372952Y-100480714D01*
X126182476Y-100433095D01*
X126087238Y-100385476D01*
X125992000Y-100290238D01*
X125944381Y-100147380D01*
X125944381Y-100052142D01*
X125992000Y-99909285D01*
X126039619Y-99861666D01*
X125944381Y-98956904D02*
X125944381Y-99433095D01*
X126420571Y-99480714D01*
X126372952Y-99433095D01*
X126325333Y-99337857D01*
X126325333Y-99099761D01*
X126372952Y-99004523D01*
X126420571Y-98956904D01*
X126515810Y-98909285D01*
X126753905Y-98909285D01*
X126849143Y-98956904D01*
X126896762Y-99004523D01*
X126944381Y-99099761D01*
X126944381Y-99337857D01*
X126896762Y-99433095D01*
X126849143Y-99480714D01*
X116871714Y-104273333D02*
X116909810Y-104311428D01*
X116947905Y-104425714D01*
X116947905Y-104501904D01*
X116909810Y-104616190D01*
X116833619Y-104692381D01*
X116757429Y-104730476D01*
X116605048Y-104768571D01*
X116490762Y-104768571D01*
X116338381Y-104730476D01*
X116262190Y-104692381D01*
X116186000Y-104616190D01*
X116147905Y-104501904D01*
X116147905Y-104425714D01*
X116186000Y-104311428D01*
X116224095Y-104273333D01*
X116147905Y-104006666D02*
X116147905Y-103473333D01*
X116947905Y-103816190D01*
X116816143Y-101766666D02*
X116863762Y-101814285D01*
X116911381Y-101957142D01*
X116911381Y-102052380D01*
X116863762Y-102195238D01*
X116768524Y-102290476D01*
X116673286Y-102338095D01*
X116482810Y-102385714D01*
X116339952Y-102385714D01*
X116149476Y-102338095D01*
X116054238Y-102290476D01*
X115959000Y-102195238D01*
X115911381Y-102052380D01*
X115911381Y-101957142D01*
X115959000Y-101814285D01*
X116006619Y-101766666D01*
X116339952Y-101195238D02*
X116292333Y-101290476D01*
X116244714Y-101338095D01*
X116149476Y-101385714D01*
X116101857Y-101385714D01*
X116006619Y-101338095D01*
X115959000Y-101290476D01*
X115911381Y-101195238D01*
X115911381Y-101004761D01*
X115959000Y-100909523D01*
X116006619Y-100861904D01*
X116101857Y-100814285D01*
X116149476Y-100814285D01*
X116244714Y-100861904D01*
X116292333Y-100909523D01*
X116339952Y-101004761D01*
X116339952Y-101195238D01*
X116387571Y-101290476D01*
X116435190Y-101338095D01*
X116530429Y-101385714D01*
X116720905Y-101385714D01*
X116816143Y-101338095D01*
X116863762Y-101290476D01*
X116911381Y-101195238D01*
X116911381Y-101004761D01*
X116863762Y-100909523D01*
X116816143Y-100861904D01*
X116720905Y-100814285D01*
X116530429Y-100814285D01*
X116435190Y-100861904D01*
X116387571Y-100909523D01*
X116339952Y-101004761D01*
X116147857Y-106946666D02*
X116147857Y-107213333D01*
X116566905Y-107213333D02*
X115766905Y-107213333D01*
X115766905Y-106832380D01*
X116566905Y-106108571D02*
X116566905Y-106565714D01*
X116566905Y-106337143D02*
X115766905Y-106337143D01*
X115881190Y-106413333D01*
X115957381Y-106489524D01*
X115995476Y-106565714D01*
X120483334Y-84018381D02*
X120150000Y-83542190D01*
X119911905Y-84018381D02*
X119911905Y-83018381D01*
X120292858Y-83018381D01*
X120388096Y-83066000D01*
X120435715Y-83113619D01*
X120483334Y-83208857D01*
X120483334Y-83351714D01*
X120435715Y-83446952D01*
X120388096Y-83494571D01*
X120292858Y-83542190D01*
X119911905Y-83542190D01*
X120864286Y-83113619D02*
X120911905Y-83066000D01*
X121007143Y-83018381D01*
X121245239Y-83018381D01*
X121340477Y-83066000D01*
X121388096Y-83113619D01*
X121435715Y-83208857D01*
X121435715Y-83304095D01*
X121388096Y-83446952D01*
X120816667Y-84018381D01*
X121435715Y-84018381D01*
X149312334Y-95067381D02*
X148979000Y-94591190D01*
X148740905Y-95067381D02*
X148740905Y-94067381D01*
X149121858Y-94067381D01*
X149217096Y-94115000D01*
X149264715Y-94162619D01*
X149312334Y-94257857D01*
X149312334Y-94400714D01*
X149264715Y-94495952D01*
X149217096Y-94543571D01*
X149121858Y-94591190D01*
X148740905Y-94591190D01*
X150264715Y-95067381D02*
X149693286Y-95067381D01*
X149979000Y-95067381D02*
X149979000Y-94067381D01*
X149883762Y-94210238D01*
X149788524Y-94305476D01*
X149693286Y-94353095D01*
X117352143Y-86526666D02*
X117399762Y-86574285D01*
X117447381Y-86717142D01*
X117447381Y-86812380D01*
X117399762Y-86955238D01*
X117304524Y-87050476D01*
X117209286Y-87098095D01*
X117018810Y-87145714D01*
X116875952Y-87145714D01*
X116685476Y-87098095D01*
X116590238Y-87050476D01*
X116495000Y-86955238D01*
X116447381Y-86812380D01*
X116447381Y-86717142D01*
X116495000Y-86574285D01*
X116542619Y-86526666D01*
X116447381Y-86193333D02*
X116447381Y-85574285D01*
X116828333Y-85907619D01*
X116828333Y-85764761D01*
X116875952Y-85669523D01*
X116923571Y-85621904D01*
X117018810Y-85574285D01*
X117256905Y-85574285D01*
X117352143Y-85621904D01*
X117399762Y-85669523D01*
X117447381Y-85764761D01*
X117447381Y-86050476D01*
X117399762Y-86145714D01*
X117352143Y-86193333D01*
X124293334Y-100433143D02*
X124245715Y-100480762D01*
X124102858Y-100528381D01*
X124007620Y-100528381D01*
X123864762Y-100480762D01*
X123769524Y-100385524D01*
X123721905Y-100290286D01*
X123674286Y-100099810D01*
X123674286Y-99956952D01*
X123721905Y-99766476D01*
X123769524Y-99671238D01*
X123864762Y-99576000D01*
X124007620Y-99528381D01*
X124102858Y-99528381D01*
X124245715Y-99576000D01*
X124293334Y-99623619D01*
X125150477Y-99528381D02*
X124960000Y-99528381D01*
X124864762Y-99576000D01*
X124817143Y-99623619D01*
X124721905Y-99766476D01*
X124674286Y-99956952D01*
X124674286Y-100337905D01*
X124721905Y-100433143D01*
X124769524Y-100480762D01*
X124864762Y-100528381D01*
X125055239Y-100528381D01*
X125150477Y-100480762D01*
X125198096Y-100433143D01*
X125245715Y-100337905D01*
X125245715Y-100099810D01*
X125198096Y-100004571D01*
X125150477Y-99956952D01*
X125055239Y-99909333D01*
X124864762Y-99909333D01*
X124769524Y-99956952D01*
X124721905Y-100004571D01*
X124674286Y-100099810D01*
X122541429Y-101740952D02*
X122541429Y-100979047D01*
X122922381Y-101359999D02*
X122160476Y-101359999D01*
X121388143Y-94146666D02*
X121435762Y-94194285D01*
X121483381Y-94337142D01*
X121483381Y-94432380D01*
X121435762Y-94575238D01*
X121340524Y-94670476D01*
X121245286Y-94718095D01*
X121054810Y-94765714D01*
X120911952Y-94765714D01*
X120721476Y-94718095D01*
X120626238Y-94670476D01*
X120531000Y-94575238D01*
X120483381Y-94432380D01*
X120483381Y-94337142D01*
X120531000Y-94194285D01*
X120578619Y-94146666D01*
X121483381Y-93670476D02*
X121483381Y-93480000D01*
X121435762Y-93384761D01*
X121388143Y-93337142D01*
X121245286Y-93241904D01*
X121054810Y-93194285D01*
X120673857Y-93194285D01*
X120578619Y-93241904D01*
X120531000Y-93289523D01*
X120483381Y-93384761D01*
X120483381Y-93575238D01*
X120531000Y-93670476D01*
X120578619Y-93718095D01*
X120673857Y-93765714D01*
X120911952Y-93765714D01*
X121007190Y-93718095D01*
X121054810Y-93670476D01*
X121102429Y-93575238D01*
X121102429Y-93384761D01*
X121054810Y-93289523D01*
X121007190Y-93241904D01*
X120911952Y-93194285D01*
X119239048Y-92061429D02*
X120000953Y-92061429D01*
X119620001Y-92442381D02*
X119620001Y-91680476D01*
X130500381Y-114530095D02*
X129500381Y-114530095D01*
X129500381Y-114292000D01*
X129548000Y-114149142D01*
X129643238Y-114053904D01*
X129738476Y-114006285D01*
X129928952Y-113958666D01*
X130071810Y-113958666D01*
X130262286Y-114006285D01*
X130357524Y-114053904D01*
X130452762Y-114149142D01*
X130500381Y-114292000D01*
X130500381Y-114530095D01*
X129595619Y-113577714D02*
X129548000Y-113530095D01*
X129500381Y-113434857D01*
X129500381Y-113196761D01*
X129548000Y-113101523D01*
X129595619Y-113053904D01*
X129690857Y-113006285D01*
X129786095Y-113006285D01*
X129928952Y-113053904D01*
X130500381Y-113625333D01*
X130500381Y-113006285D01*
X121245381Y-92662333D02*
X121959667Y-92662333D01*
X122102524Y-92709953D01*
X122197762Y-92805191D01*
X122245381Y-92948048D01*
X122245381Y-93043286D01*
X121340619Y-92233762D02*
X121293000Y-92186143D01*
X121245381Y-92090905D01*
X121245381Y-91852809D01*
X121293000Y-91757571D01*
X121340619Y-91709952D01*
X121435857Y-91662333D01*
X121531095Y-91662333D01*
X121673952Y-91709952D01*
X122245381Y-92281381D01*
X122245381Y-91662333D01*
X119864286Y-76128571D02*
X120007143Y-76176190D01*
X120054762Y-76223810D01*
X120102381Y-76319048D01*
X120102381Y-76461905D01*
X120054762Y-76557143D01*
X120007143Y-76604762D01*
X119911905Y-76652381D01*
X119530952Y-76652381D01*
X119530952Y-75652381D01*
X119864286Y-75652381D01*
X119959524Y-75700000D01*
X120007143Y-75747619D01*
X120054762Y-75842857D01*
X120054762Y-75938095D01*
X120007143Y-76033333D01*
X119959524Y-76080952D01*
X119864286Y-76128571D01*
X119530952Y-76128571D01*
X120388095Y-75652381D02*
X120959524Y-75652381D01*
X120673809Y-76652381D02*
X120673809Y-75652381D01*
X121816667Y-76652381D02*
X121245238Y-76652381D01*
X121530952Y-76652381D02*
X121530952Y-75652381D01*
X121435714Y-75795238D01*
X121340476Y-75890476D01*
X121245238Y-75938095D01*
X135453381Y-108751666D02*
X134977190Y-109085000D01*
X135453381Y-109323095D02*
X134453381Y-109323095D01*
X134453381Y-108942142D01*
X134501000Y-108846904D01*
X134548619Y-108799285D01*
X134643857Y-108751666D01*
X134786714Y-108751666D01*
X134881952Y-108799285D01*
X134929571Y-108846904D01*
X134977190Y-108942142D01*
X134977190Y-109323095D01*
X134453381Y-108418333D02*
X134453381Y-107799285D01*
X134834333Y-108132619D01*
X134834333Y-107989761D01*
X134881952Y-107894523D01*
X134929571Y-107846904D01*
X135024810Y-107799285D01*
X135262905Y-107799285D01*
X135358143Y-107846904D01*
X135405762Y-107894523D01*
X135453381Y-107989761D01*
X135453381Y-108275476D01*
X135405762Y-108370714D01*
X135358143Y-108418333D01*
X135342381Y-114760333D02*
X136056667Y-114760333D01*
X136199524Y-114807953D01*
X136294762Y-114903191D01*
X136342381Y-115046048D01*
X136342381Y-115141286D01*
X136342381Y-113760333D02*
X136342381Y-114331762D01*
X136342381Y-114046048D02*
X135342381Y-114046048D01*
X135485238Y-114141286D01*
X135580476Y-114236524D01*
X135628095Y-114331762D01*
X125309334Y-76811143D02*
X125261715Y-76858762D01*
X125118858Y-76906381D01*
X125023620Y-76906381D01*
X124880762Y-76858762D01*
X124785524Y-76763524D01*
X124737905Y-76668286D01*
X124690286Y-76477810D01*
X124690286Y-76334952D01*
X124737905Y-76144476D01*
X124785524Y-76049238D01*
X124880762Y-75954000D01*
X125023620Y-75906381D01*
X125118858Y-75906381D01*
X125261715Y-75954000D01*
X125309334Y-76001619D01*
X125690286Y-76001619D02*
X125737905Y-75954000D01*
X125833143Y-75906381D01*
X126071239Y-75906381D01*
X126166477Y-75954000D01*
X126214096Y-76001619D01*
X126261715Y-76096857D01*
X126261715Y-76192095D01*
X126214096Y-76334952D01*
X125642667Y-76906381D01*
X126261715Y-76906381D01*
X125601429Y-83770952D02*
X125601429Y-83009047D01*
X125982381Y-83389999D02*
X125220476Y-83389999D01*
X128682809Y-96369190D02*
X128682809Y-96845381D01*
X128349476Y-95845381D02*
X128682809Y-96369190D01*
X129016143Y-95845381D01*
X129873286Y-96845381D02*
X129301857Y-96845381D01*
X129587571Y-96845381D02*
X129587571Y-95845381D01*
X129492333Y-95988238D01*
X129397095Y-96083476D01*
X129301857Y-96131095D01*
X155011381Y-90908095D02*
X154011381Y-90908095D01*
X154011381Y-90670000D01*
X154059000Y-90527142D01*
X154154238Y-90431904D01*
X154249476Y-90384285D01*
X154439952Y-90336666D01*
X154582810Y-90336666D01*
X154773286Y-90384285D01*
X154868524Y-90431904D01*
X154963762Y-90527142D01*
X155011381Y-90670000D01*
X155011381Y-90908095D01*
X154011381Y-90003333D02*
X154011381Y-89384285D01*
X154392333Y-89717619D01*
X154392333Y-89574761D01*
X154439952Y-89479523D01*
X154487571Y-89431904D01*
X154582810Y-89384285D01*
X154820905Y-89384285D01*
X154916143Y-89431904D01*
X154963762Y-89479523D01*
X155011381Y-89574761D01*
X155011381Y-89860476D01*
X154963762Y-89955714D01*
X154916143Y-90003333D01*
X153503334Y-93797381D02*
X153170000Y-93321190D01*
X152931905Y-93797381D02*
X152931905Y-92797381D01*
X153312858Y-92797381D01*
X153408096Y-92845000D01*
X153455715Y-92892619D01*
X153503334Y-92987857D01*
X153503334Y-93130714D01*
X153455715Y-93225952D01*
X153408096Y-93273571D01*
X153312858Y-93321190D01*
X152931905Y-93321190D01*
X154360477Y-93130714D02*
X154360477Y-93797381D01*
X154122381Y-92749762D02*
X153884286Y-93464048D01*
X154503334Y-93464048D01*
X149098095Y-80097381D02*
X149098095Y-80906905D01*
X149145714Y-81002143D01*
X149193333Y-81049762D01*
X149288571Y-81097381D01*
X149479048Y-81097381D01*
X149574286Y-81049762D01*
X149621905Y-81002143D01*
X149669524Y-80906905D01*
X149669524Y-80097381D01*
X150669524Y-81097381D02*
X150098095Y-81097381D01*
X150383809Y-81097381D02*
X150383809Y-80097381D01*
X150288571Y-80240238D01*
X150193333Y-80335476D01*
X150098095Y-80383095D01*
M02*
