G04 #@! TF.FileFunction,Copper,L1,Top,Signal*
%FSLAX46Y46*%
G04 Gerber Fmt 4.6, Leading zero omitted, Abs format (unit mm)*
G04 Created by KiCad (PCBNEW 4.0.6) date 04/17/17 12:50:54*
%MOMM*%
%LPD*%
G01*
G04 APERTURE LIST*
%ADD10C,0.100000*%
%ADD11C,0.050000*%
%ADD12R,1.300000X1.700000*%
%ADD13R,0.500380X2.301240*%
%ADD14R,1.998980X2.499360*%
%ADD15R,1.600000X0.550000*%
%ADD16R,0.550000X1.600000*%
%ADD17R,1.060000X0.650000*%
%ADD18R,1.000000X1.600000*%
%ADD19R,1.600000X1.000000*%
%ADD20R,1.651000X2.029460*%
%ADD21R,1.700000X0.900000*%
%ADD22R,0.900000X1.700000*%
%ADD23R,1.600000X2.600000*%
%ADD24R,2.600000X1.600000*%
%ADD25R,1.700000X1.700000*%
%ADD26O,1.700000X1.700000*%
%ADD27R,1.800000X1.800000*%
%ADD28C,1.800000*%
%ADD29R,0.600000X2.300000*%
%ADD30R,0.600000X2.400000*%
%ADD31R,2.500000X1.200000*%
%ADD32O,2.000000X3.500000*%
%ADD33R,1.600000X3.000000*%
%ADD34C,1.500000*%
%ADD35R,2.000000X2.300000*%
%ADD36C,0.600000*%
%ADD37C,0.500000*%
%ADD38C,0.350000*%
%ADD39C,0.300000*%
%ADD40C,0.254000*%
G04 APERTURE END LIST*
D10*
D11*
X117000000Y-116000000D02*
X117000000Y-118500000D01*
X114500000Y-113500000D02*
X112000000Y-113500000D01*
X117000000Y-116000000D02*
G75*
G03X114500000Y-113500000I-2500000J0D01*
G01*
X150500000Y-77500000D02*
G75*
G03X153000000Y-80000000I2500000J0D01*
G01*
X153000000Y-80000000D02*
X155500000Y-80000000D01*
X150500000Y-75000000D02*
X150500000Y-77500000D01*
X112000000Y-75000000D02*
X150500000Y-75000000D01*
X112000000Y-113500000D02*
X112000000Y-75000000D01*
X155500000Y-118500000D02*
X117000000Y-118500000D01*
X155500000Y-80000000D02*
X155500000Y-118500000D01*
D12*
X121130000Y-90170000D03*
X117630000Y-90170000D03*
D13*
X121999800Y-110150680D03*
X122799900Y-110150680D03*
X123600000Y-110150680D03*
X124400100Y-110150680D03*
X125200200Y-110150680D03*
D14*
X119149920Y-110249740D03*
X119149920Y-115748840D03*
X128050080Y-110249740D03*
X128050080Y-115748840D03*
D15*
X136085000Y-98800000D03*
X136085000Y-99600000D03*
X136085000Y-100400000D03*
X136085000Y-101200000D03*
X136085000Y-102000000D03*
X136085000Y-102800000D03*
X136085000Y-103600000D03*
X136085000Y-104400000D03*
D16*
X137535000Y-105850000D03*
X138335000Y-105850000D03*
X139135000Y-105850000D03*
X139935000Y-105850000D03*
X140735000Y-105850000D03*
X141535000Y-105850000D03*
X142335000Y-105850000D03*
X143135000Y-105850000D03*
D15*
X144585000Y-104400000D03*
X144585000Y-103600000D03*
X144585000Y-102800000D03*
X144585000Y-102000000D03*
X144585000Y-101200000D03*
X144585000Y-100400000D03*
X144585000Y-99600000D03*
X144585000Y-98800000D03*
D16*
X143135000Y-97350000D03*
X142335000Y-97350000D03*
X141535000Y-97350000D03*
X140735000Y-97350000D03*
X139935000Y-97350000D03*
X139135000Y-97350000D03*
X138335000Y-97350000D03*
X137535000Y-97350000D03*
D17*
X118280000Y-97475000D03*
X118280000Y-98425000D03*
X118280000Y-99375000D03*
X120480000Y-99375000D03*
X120480000Y-97475000D03*
D18*
X153900000Y-97790000D03*
X150900000Y-97790000D03*
D19*
X128270000Y-103910000D03*
X128270000Y-106910000D03*
X128270000Y-101195000D03*
X128270000Y-98195000D03*
D18*
X120880000Y-104140000D03*
X117880000Y-104140000D03*
X120880000Y-101600000D03*
X117880000Y-101600000D03*
D20*
X120964960Y-106680000D03*
X117795040Y-106680000D03*
D21*
X120650000Y-84910000D03*
X120650000Y-87810000D03*
D22*
X146505000Y-97790000D03*
X149405000Y-97790000D03*
D19*
X118745000Y-87860000D03*
X118745000Y-84860000D03*
D23*
X124460000Y-102340000D03*
X124460000Y-105940000D03*
D24*
X118640000Y-93980000D03*
X115040000Y-93980000D03*
D25*
X147955000Y-103505000D03*
D26*
X147955000Y-100965000D03*
X150495000Y-103505000D03*
X150495000Y-100965000D03*
X153035000Y-103505000D03*
X153035000Y-100965000D03*
D27*
X132715000Y-111125000D03*
D28*
X132715000Y-113665000D03*
X132715000Y-116205000D03*
D25*
X123825000Y-93980000D03*
D26*
X123825000Y-91440000D03*
X123825000Y-88900000D03*
X123825000Y-86360000D03*
D25*
X140335000Y-109855000D03*
D26*
X142875000Y-109855000D03*
D25*
X114300000Y-86995000D03*
D26*
X114300000Y-89535000D03*
D25*
X114300000Y-101600000D03*
D26*
X114300000Y-104140000D03*
D29*
X115709000Y-83870000D03*
D30*
X117209000Y-83820000D03*
D31*
X153110000Y-106835000D03*
X146610000Y-107935000D03*
X146610000Y-111935000D03*
X146610000Y-114935000D03*
D22*
X130630000Y-108585000D03*
X133530000Y-108585000D03*
D32*
X137795000Y-114300000D03*
X140335000Y-114300000D03*
X142875000Y-114300000D03*
D33*
X123190000Y-82210000D03*
X123190000Y-77810000D03*
D34*
X132080000Y-104140000D03*
X132080000Y-99260000D03*
D27*
X151765000Y-92710000D03*
D28*
X151765000Y-90170000D03*
X151765000Y-87630000D03*
D22*
X153850000Y-95250000D03*
X150950000Y-95250000D03*
D35*
X147450000Y-93200000D03*
X147450000Y-90200000D03*
X147450000Y-87200000D03*
X147450000Y-84200000D03*
X147450000Y-81200000D03*
X147450000Y-78200000D03*
X127950000Y-93200000D03*
X127950000Y-90200000D03*
X127950000Y-87200000D03*
X127950000Y-84200000D03*
X127950000Y-81200000D03*
X127950000Y-78200000D03*
D36*
X130810000Y-90170000D03*
X130810000Y-84455000D03*
X137795000Y-111760000D03*
X137795000Y-102235000D03*
X121920000Y-96520000D03*
X126365000Y-96520000D03*
X144145000Y-106045000D03*
X141605000Y-104140000D03*
X145415000Y-97155000D03*
X140335000Y-95885000D03*
X139700000Y-99695000D03*
X135890000Y-97790000D03*
X144780000Y-92710000D03*
X137535000Y-93720000D03*
X145415000Y-90170000D03*
X144145000Y-94615000D03*
X144145000Y-87630000D03*
D37*
X114300000Y-101600000D02*
X114300000Y-100330000D01*
X115255000Y-99375000D02*
X114300000Y-100330000D01*
X115255000Y-99375000D02*
X116840000Y-99375000D01*
X120880000Y-104140000D02*
X121920000Y-104140000D01*
X121920000Y-104140000D02*
X123720000Y-102340000D01*
X123720000Y-102340000D02*
X124460000Y-102340000D01*
X118280000Y-99375000D02*
X119380000Y-99375000D01*
X116840000Y-99375000D02*
X116840000Y-98425000D01*
X117155000Y-97475000D02*
X118280000Y-97475000D01*
X116840000Y-97790000D02*
X117155000Y-97475000D01*
X116840000Y-98425000D02*
X116840000Y-97790000D01*
X118280000Y-99375000D02*
X116840000Y-99375000D01*
X118745000Y-106680000D02*
X119380000Y-106045000D01*
X120880000Y-104140000D02*
X119380000Y-104140000D01*
X119380000Y-104775000D02*
X119380000Y-104140000D01*
X117795040Y-106680000D02*
X118745000Y-106680000D01*
X119380000Y-106045000D02*
X119380000Y-104775000D01*
X119380000Y-104140000D02*
X119380000Y-99375000D01*
D38*
X154940000Y-97790000D02*
X154940000Y-96520000D01*
X153035000Y-100965000D02*
X154940000Y-100965000D01*
X154940000Y-97790000D02*
X153900000Y-97790000D01*
X154940000Y-100965000D02*
X154940000Y-97790000D01*
D37*
X137795000Y-111760000D02*
X137795000Y-114300000D01*
X137795000Y-102800000D02*
X137795000Y-102235000D01*
X137795000Y-102235000D02*
X137795000Y-101600000D01*
X137795000Y-101600000D02*
X137395000Y-101200000D01*
X137395000Y-101200000D02*
X136085000Y-101200000D01*
X144585000Y-102000000D02*
X142970000Y-102000000D01*
X142970000Y-102000000D02*
X142170000Y-102800000D01*
X136085000Y-102800000D02*
X137795000Y-102800000D01*
X137795000Y-102800000D02*
X138430000Y-102800000D01*
X138430000Y-102800000D02*
X142170000Y-102800000D01*
X142970000Y-103600000D02*
X144585000Y-103600000D01*
X142170000Y-102800000D02*
X142970000Y-103600000D01*
X146050000Y-102000000D02*
X146050000Y-103505000D01*
X145955000Y-103600000D02*
X144585000Y-103600000D01*
D38*
X146050000Y-103505000D02*
X145955000Y-103600000D01*
D37*
X144585000Y-102000000D02*
X146050000Y-102000000D01*
X146050000Y-102000000D02*
X146920000Y-102000000D01*
X149405000Y-99515000D02*
X147955000Y-100965000D01*
X150950000Y-97790000D02*
X149455000Y-97790000D01*
X121285000Y-96520000D02*
X121285000Y-94615000D01*
X120650000Y-93980000D02*
X118640000Y-93980000D01*
X121285000Y-94615000D02*
X120650000Y-93980000D01*
X120480000Y-97475000D02*
X120965000Y-97475000D01*
X120965000Y-97475000D02*
X121285000Y-97155000D01*
X121285000Y-97155000D02*
X121285000Y-96520000D01*
X121285000Y-96520000D02*
X121920000Y-96520000D01*
X117630000Y-90170000D02*
X117630000Y-91920000D01*
X117630000Y-91920000D02*
X118640000Y-92930000D01*
X118640000Y-92930000D02*
X118640000Y-93980000D01*
X117630000Y-90170000D02*
X116840000Y-90170000D01*
X115570000Y-86995000D02*
X114300000Y-86995000D01*
X116205000Y-87630000D02*
X115570000Y-86995000D01*
X116205000Y-89535000D02*
X116205000Y-87630000D01*
X116840000Y-90170000D02*
X116205000Y-89535000D01*
X127950000Y-93200000D02*
X127950000Y-94935000D01*
X127950000Y-94935000D02*
X126365000Y-96520000D01*
X127950000Y-93200000D02*
X130320000Y-93200000D01*
X130810000Y-92710000D02*
X130810000Y-92075000D01*
X130320000Y-93200000D02*
X130810000Y-92710000D01*
X127950000Y-78200000D02*
X130270000Y-78200000D01*
X130810000Y-78740000D02*
X130810000Y-84455000D01*
X130270000Y-78200000D02*
X130810000Y-78740000D01*
X130810000Y-90170000D02*
X130810000Y-92075000D01*
X129635000Y-78200000D02*
X127950000Y-78200000D01*
X146920000Y-102000000D02*
X147955000Y-100965000D01*
D38*
X127950000Y-78200000D02*
X127095000Y-78200000D01*
D37*
X149405000Y-97790000D02*
X149405000Y-99515000D01*
X149405000Y-98245000D02*
X149405000Y-97790000D01*
X149405000Y-97790000D02*
X149225000Y-97790000D01*
X149225000Y-97790000D02*
X149455000Y-97790000D01*
D38*
X144145000Y-106045000D02*
X143330000Y-106045000D01*
X143330000Y-106045000D02*
X143135000Y-105850000D01*
D39*
X146685000Y-105410000D02*
X149860000Y-105410000D01*
X144585000Y-104400000D02*
X145675000Y-104400000D01*
X145675000Y-104400000D02*
X146050000Y-104775000D01*
X146050000Y-104775000D02*
X146685000Y-105410000D01*
X150495000Y-104775000D02*
X149860000Y-105410000D01*
X150495000Y-104775000D02*
X150495000Y-103505000D01*
D38*
X142335000Y-104870000D02*
X141605000Y-104140000D01*
X142335000Y-105850000D02*
X142335000Y-104870000D01*
D37*
X121999800Y-110150680D02*
X121999800Y-108664800D01*
X121999800Y-108664800D02*
X120964960Y-107629960D01*
X120964960Y-107629960D02*
X120964960Y-106680000D01*
D38*
X132715000Y-113665000D02*
X131445000Y-113665000D01*
X130630000Y-112850000D02*
X130630000Y-108585000D01*
X131445000Y-113665000D02*
X130630000Y-112850000D01*
D39*
X145415000Y-97155000D02*
X145415000Y-97790000D01*
X145415000Y-97790000D02*
X146505000Y-97790000D01*
X139935000Y-97350000D02*
X139935000Y-96285000D01*
X139935000Y-96285000D02*
X140335000Y-95885000D01*
D38*
X127950000Y-87200000D02*
X126795000Y-87200000D01*
X125095000Y-88900000D02*
X123825000Y-88900000D01*
X126795000Y-87200000D02*
X125095000Y-88900000D01*
X127950000Y-87200000D02*
X127430000Y-87200000D01*
X139135000Y-97350000D02*
X139135000Y-92780000D01*
X133555000Y-87200000D02*
X127950000Y-87200000D01*
X139135000Y-92780000D02*
X133555000Y-87200000D01*
X140335000Y-109855000D02*
X140335000Y-114300000D01*
X140335000Y-109855000D02*
X140335000Y-108585000D01*
X141620000Y-107935000D02*
X146610000Y-107935000D01*
X140985000Y-107935000D02*
X141620000Y-107935000D01*
X140335000Y-108585000D02*
X140985000Y-107935000D01*
X139700000Y-99695000D02*
X138430000Y-98425000D01*
X138430000Y-98425000D02*
X138430000Y-97445000D01*
X138430000Y-97445000D02*
X138335000Y-97350000D01*
X123825000Y-91440000D02*
X125095000Y-91440000D01*
X126335000Y-90200000D02*
X127950000Y-90200000D01*
X125095000Y-91440000D02*
X126335000Y-90200000D01*
X127920000Y-90170000D02*
X127950000Y-90200000D01*
X119634000Y-83820000D02*
X119634000Y-82210000D01*
X117209000Y-83820000D02*
X117209000Y-82816000D01*
X117209000Y-82816000D02*
X117815000Y-82210000D01*
X119380000Y-82210000D02*
X119634000Y-82210000D01*
X117815000Y-82210000D02*
X119380000Y-82210000D01*
X119634000Y-82210000D02*
X120650000Y-82210000D01*
X120650000Y-82210000D02*
X123190000Y-82210000D01*
X127950000Y-84200000D02*
X126745000Y-84200000D01*
X124755000Y-82210000D02*
X123190000Y-82210000D01*
X126745000Y-84200000D02*
X124755000Y-82210000D01*
X120650000Y-84860000D02*
X120650000Y-83820000D01*
X119380000Y-83820000D02*
X119634000Y-83820000D01*
X119634000Y-83820000D02*
X120650000Y-83820000D01*
X118745000Y-84910000D02*
X118745000Y-83820000D01*
X118745000Y-83820000D02*
X119380000Y-83820000D01*
X122260000Y-82210000D02*
X123190000Y-82210000D01*
D37*
X120480000Y-99375000D02*
X120480000Y-100160000D01*
X120480000Y-100160000D02*
X120880000Y-100560000D01*
X120880000Y-100560000D02*
X120880000Y-101600000D01*
D38*
X138335000Y-105850000D02*
X138335000Y-107196470D01*
X138335000Y-107196470D02*
X134406470Y-111125000D01*
X134406470Y-111125000D02*
X132715000Y-111125000D01*
X135255000Y-111125000D02*
X135890000Y-110490000D01*
X135255000Y-114935000D02*
X135255000Y-111125000D01*
X135890000Y-110490000D02*
X137795000Y-108585000D01*
X133985000Y-116205000D02*
X135255000Y-114935000D01*
X139135000Y-107245000D02*
X137795000Y-108585000D01*
X132715000Y-116205000D02*
X133985000Y-116205000D01*
X139135000Y-107245000D02*
X139135000Y-105850000D01*
X136085000Y-98800000D02*
X136085000Y-97985000D01*
X136085000Y-97985000D02*
X135890000Y-97790000D01*
X145415000Y-93345000D02*
X147305000Y-93345000D01*
X144780000Y-92710000D02*
X145415000Y-93345000D01*
D37*
X147305000Y-93345000D02*
X147450000Y-93200000D01*
D38*
X145415000Y-90170000D02*
X147420000Y-90170000D01*
D39*
X147420000Y-90170000D02*
X147450000Y-90200000D01*
D37*
X145415000Y-90170000D02*
X145445000Y-90200000D01*
D38*
X137535000Y-97350000D02*
X137535000Y-93720000D01*
X121130000Y-90170000D02*
X121130000Y-89380000D01*
X121130000Y-89380000D02*
X120650000Y-88900000D01*
X120650000Y-88900000D02*
X120650000Y-87810000D01*
X128270000Y-103910000D02*
X130580000Y-103910000D01*
X130810000Y-104140000D02*
X132080000Y-104140000D01*
X130580000Y-103910000D02*
X130810000Y-104140000D01*
X133350000Y-104140000D02*
X132080000Y-104140000D01*
X133610000Y-104400000D02*
X133350000Y-104140000D01*
X136085000Y-104400000D02*
X133610000Y-104400000D01*
X136085000Y-103600000D02*
X134080000Y-103600000D01*
X132080000Y-101600000D02*
X132080000Y-101195000D01*
X134080000Y-103600000D02*
X132080000Y-101600000D01*
X128270000Y-101195000D02*
X132080000Y-101195000D01*
X132080000Y-101195000D02*
X132080000Y-99260000D01*
X143135000Y-95625000D02*
X144145000Y-94615000D01*
X143135000Y-95625000D02*
X143135000Y-97350000D01*
X153850000Y-95250000D02*
X153850000Y-90985000D01*
X153035000Y-90170000D02*
X151765000Y-90170000D01*
X153850000Y-90985000D02*
X153035000Y-90170000D01*
X142335000Y-89440000D02*
X144145000Y-87630000D01*
X142335000Y-89440000D02*
X142335000Y-90170000D01*
X142335000Y-97350000D02*
X142335000Y-90170000D01*
D39*
X142335000Y-90170000D02*
X142335000Y-90075000D01*
D40*
G36*
X149998000Y-77500000D02*
X150007646Y-77548493D01*
X150007646Y-77597935D01*
X150197946Y-78554639D01*
X150197946Y-78554645D01*
X150272903Y-78735605D01*
X150814834Y-79546661D01*
X150814835Y-79546664D01*
X150884086Y-79615914D01*
X150953336Y-79685165D01*
X150953339Y-79685166D01*
X151764394Y-80227096D01*
X151764395Y-80227097D01*
X151848594Y-80261973D01*
X151945355Y-80302053D01*
X151945356Y-80302053D01*
X152902065Y-80492354D01*
X152951507Y-80492354D01*
X153000000Y-80502000D01*
X154998000Y-80502000D01*
X154998000Y-96774364D01*
X154938327Y-96630301D01*
X154759698Y-96451673D01*
X154664084Y-96412068D01*
X154748027Y-96289215D01*
X154786344Y-96100000D01*
X154786344Y-94400000D01*
X154753083Y-94223235D01*
X154648615Y-94060887D01*
X154502000Y-93960709D01*
X154502000Y-90985000D01*
X154452369Y-90735490D01*
X154311034Y-90523966D01*
X153496034Y-89708966D01*
X153461562Y-89685933D01*
X153284510Y-89567631D01*
X153243113Y-89559396D01*
X153035000Y-89517999D01*
X153034995Y-89518000D01*
X152985515Y-89518000D01*
X152933044Y-89391011D01*
X152546026Y-89003317D01*
X152297224Y-88900005D01*
X152543989Y-88798044D01*
X152931683Y-88411026D01*
X153141760Y-87905104D01*
X153142238Y-87357299D01*
X152933044Y-86851011D01*
X152546026Y-86463317D01*
X152040104Y-86253240D01*
X151492299Y-86252762D01*
X150986011Y-86461956D01*
X150598317Y-86848974D01*
X150388240Y-87354896D01*
X150387762Y-87902701D01*
X150596956Y-88408989D01*
X150983974Y-88796683D01*
X151232776Y-88899995D01*
X150986011Y-89001956D01*
X150598317Y-89388974D01*
X150388240Y-89894896D01*
X150387762Y-90442701D01*
X150596956Y-90948989D01*
X150970970Y-91323656D01*
X150865000Y-91323656D01*
X150688235Y-91356917D01*
X150525887Y-91461385D01*
X150416973Y-91620785D01*
X150378656Y-91810000D01*
X150378656Y-93610000D01*
X150407822Y-93765000D01*
X150373691Y-93765000D01*
X150140302Y-93861673D01*
X149961673Y-94040301D01*
X149865000Y-94273690D01*
X149865000Y-94837250D01*
X150023750Y-94996000D01*
X150725000Y-94996000D01*
X150725000Y-94976000D01*
X151175000Y-94976000D01*
X151175000Y-94996000D01*
X151876250Y-94996000D01*
X152035000Y-94837250D01*
X152035000Y-94273690D01*
X151961541Y-94096344D01*
X152665000Y-94096344D01*
X152841765Y-94063083D01*
X153004113Y-93958615D01*
X153113027Y-93799215D01*
X153151344Y-93610000D01*
X153151344Y-91810000D01*
X153118083Y-91633235D01*
X153013615Y-91470887D01*
X152854215Y-91361973D01*
X152665000Y-91323656D01*
X152558402Y-91323656D01*
X152912804Y-90969872D01*
X153198000Y-91255068D01*
X153198000Y-93963155D01*
X153060887Y-94051385D01*
X152951973Y-94210785D01*
X152913656Y-94400000D01*
X152913656Y-96100000D01*
X152946917Y-96276765D01*
X153051385Y-96439113D01*
X153058646Y-96444075D01*
X153040302Y-96451673D01*
X152861673Y-96630301D01*
X152765000Y-96863690D01*
X152765000Y-97377250D01*
X152923750Y-97536000D01*
X153650000Y-97536000D01*
X153650000Y-97516000D01*
X154150000Y-97516000D01*
X154150000Y-97536000D01*
X154174000Y-97536000D01*
X154174000Y-98044000D01*
X154150000Y-98044000D01*
X154150000Y-99066250D01*
X154308750Y-99225000D01*
X154526309Y-99225000D01*
X154759698Y-99128327D01*
X154938327Y-98949699D01*
X154998000Y-98805636D01*
X154998000Y-117998000D01*
X117502000Y-117998000D01*
X117502000Y-116161590D01*
X117515430Y-116161590D01*
X117515430Y-117124829D01*
X117612103Y-117358218D01*
X117790731Y-117536847D01*
X118024120Y-117633520D01*
X118737170Y-117633520D01*
X118895920Y-117474770D01*
X118895920Y-116002840D01*
X119403920Y-116002840D01*
X119403920Y-117474770D01*
X119562670Y-117633520D01*
X120275720Y-117633520D01*
X120509109Y-117536847D01*
X120687737Y-117358218D01*
X120784410Y-117124829D01*
X120784410Y-116161590D01*
X126415590Y-116161590D01*
X126415590Y-117124829D01*
X126512263Y-117358218D01*
X126690891Y-117536847D01*
X126924280Y-117633520D01*
X127637330Y-117633520D01*
X127796080Y-117474770D01*
X127796080Y-116002840D01*
X128304080Y-116002840D01*
X128304080Y-117474770D01*
X128462830Y-117633520D01*
X129175880Y-117633520D01*
X129409269Y-117536847D01*
X129587897Y-117358218D01*
X129684570Y-117124829D01*
X129684570Y-116161590D01*
X129525820Y-116002840D01*
X128304080Y-116002840D01*
X127796080Y-116002840D01*
X126574340Y-116002840D01*
X126415590Y-116161590D01*
X120784410Y-116161590D01*
X120625660Y-116002840D01*
X119403920Y-116002840D01*
X118895920Y-116002840D01*
X117674180Y-116002840D01*
X117515430Y-116161590D01*
X117502000Y-116161590D01*
X117502000Y-116000000D01*
X117492354Y-115951507D01*
X117492354Y-115902065D01*
X117302053Y-114945356D01*
X117297764Y-114935000D01*
X117253344Y-114827762D01*
X117227097Y-114764395D01*
X117227096Y-114764394D01*
X116965476Y-114372851D01*
X117515430Y-114372851D01*
X117515430Y-115336090D01*
X117674180Y-115494840D01*
X118895920Y-115494840D01*
X118895920Y-114022910D01*
X119403920Y-114022910D01*
X119403920Y-115494840D01*
X120625660Y-115494840D01*
X120784410Y-115336090D01*
X120784410Y-114372851D01*
X126415590Y-114372851D01*
X126415590Y-115336090D01*
X126574340Y-115494840D01*
X127796080Y-115494840D01*
X127796080Y-114022910D01*
X128304080Y-114022910D01*
X128304080Y-115494840D01*
X129525820Y-115494840D01*
X129684570Y-115336090D01*
X129684570Y-114372851D01*
X129587897Y-114139462D01*
X129409269Y-113960833D01*
X129175880Y-113864160D01*
X128462830Y-113864160D01*
X128304080Y-114022910D01*
X127796080Y-114022910D01*
X127637330Y-113864160D01*
X126924280Y-113864160D01*
X126690891Y-113960833D01*
X126512263Y-114139462D01*
X126415590Y-114372851D01*
X120784410Y-114372851D01*
X120687737Y-114139462D01*
X120509109Y-113960833D01*
X120275720Y-113864160D01*
X119562670Y-113864160D01*
X119403920Y-114022910D01*
X118895920Y-114022910D01*
X118737170Y-113864160D01*
X118024120Y-113864160D01*
X117790731Y-113960833D01*
X117612103Y-114139462D01*
X117515430Y-114372851D01*
X116965476Y-114372851D01*
X116685165Y-113953337D01*
X116685165Y-113953336D01*
X116615914Y-113884086D01*
X116546664Y-113814835D01*
X116546661Y-113814834D01*
X115735605Y-113272903D01*
X115554645Y-113197946D01*
X115554639Y-113197946D01*
X114597935Y-113007646D01*
X114548493Y-113007646D01*
X114500000Y-112998000D01*
X112502000Y-112998000D01*
X112502000Y-112932600D01*
X120473619Y-112932600D01*
X120614385Y-113273280D01*
X120874809Y-113534158D01*
X121215243Y-113675519D01*
X121583860Y-113675841D01*
X121924540Y-113535075D01*
X122185418Y-113274651D01*
X122326779Y-112934217D01*
X122326780Y-112932600D01*
X124872899Y-112932600D01*
X125013665Y-113273280D01*
X125274089Y-113534158D01*
X125614523Y-113675519D01*
X125983140Y-113675841D01*
X126323820Y-113535075D01*
X126584698Y-113274651D01*
X126726059Y-112934217D01*
X126726381Y-112565600D01*
X126585615Y-112224920D01*
X126325191Y-111964042D01*
X125984757Y-111822681D01*
X125827173Y-111822543D01*
X125988717Y-111660998D01*
X126085390Y-111427609D01*
X126085390Y-110662490D01*
X126415590Y-110662490D01*
X126415590Y-111625729D01*
X126512263Y-111859118D01*
X126690891Y-112037747D01*
X126924280Y-112134420D01*
X127637330Y-112134420D01*
X127796080Y-111975670D01*
X127796080Y-110503740D01*
X128304080Y-110503740D01*
X128304080Y-111975670D01*
X128462830Y-112134420D01*
X129175880Y-112134420D01*
X129409269Y-112037747D01*
X129587897Y-111859118D01*
X129684570Y-111625729D01*
X129684570Y-110662490D01*
X129525820Y-110503740D01*
X128304080Y-110503740D01*
X127796080Y-110503740D01*
X126574340Y-110503740D01*
X126415590Y-110662490D01*
X126085390Y-110662490D01*
X126085390Y-110563430D01*
X125926640Y-110404680D01*
X125325295Y-110404680D01*
X125325295Y-111777550D01*
X125442040Y-111894295D01*
X125275460Y-111963125D01*
X125014582Y-112223549D01*
X124873221Y-112563983D01*
X124872899Y-112932600D01*
X122326780Y-112932600D01*
X122327101Y-112565600D01*
X122186335Y-112224920D01*
X121925911Y-111964042D01*
X121585477Y-111822681D01*
X121216860Y-111822359D01*
X120876180Y-111963125D01*
X120615302Y-112223549D01*
X120473941Y-112563983D01*
X120473619Y-112932600D01*
X112502000Y-112932600D01*
X112502000Y-109562308D01*
X112922727Y-109562308D01*
X113162305Y-110142132D01*
X113605535Y-110586136D01*
X114184939Y-110826725D01*
X114812308Y-110827273D01*
X115211113Y-110662490D01*
X117515430Y-110662490D01*
X117515430Y-111625729D01*
X117612103Y-111859118D01*
X117790731Y-112037747D01*
X118024120Y-112134420D01*
X118737170Y-112134420D01*
X118895920Y-111975670D01*
X118895920Y-110503740D01*
X119403920Y-110503740D01*
X119403920Y-111975670D01*
X119562670Y-112134420D01*
X120275720Y-112134420D01*
X120509109Y-112037747D01*
X120687737Y-111859118D01*
X120784410Y-111625729D01*
X120784410Y-110662490D01*
X120625660Y-110503740D01*
X119403920Y-110503740D01*
X118895920Y-110503740D01*
X117674180Y-110503740D01*
X117515430Y-110662490D01*
X115211113Y-110662490D01*
X115392132Y-110587695D01*
X115836136Y-110144465D01*
X116076725Y-109565061D01*
X116077273Y-108937692D01*
X116050854Y-108873751D01*
X117515430Y-108873751D01*
X117515430Y-109836990D01*
X117674180Y-109995740D01*
X118895920Y-109995740D01*
X118895920Y-108523810D01*
X119403920Y-108523810D01*
X119403920Y-109995740D01*
X120625660Y-109995740D01*
X120784410Y-109836990D01*
X120784410Y-108873751D01*
X120687737Y-108640362D01*
X120509109Y-108461733D01*
X120275720Y-108365060D01*
X119562670Y-108365060D01*
X119403920Y-108523810D01*
X118895920Y-108523810D01*
X118737170Y-108365060D01*
X118024120Y-108365060D01*
X117790731Y-108461733D01*
X117612103Y-108640362D01*
X117515430Y-108873751D01*
X116050854Y-108873751D01*
X115837695Y-108357868D01*
X115394465Y-107913864D01*
X114815061Y-107673275D01*
X114187692Y-107672727D01*
X113607868Y-107912305D01*
X113163864Y-108355535D01*
X112923275Y-108934939D01*
X112922727Y-109562308D01*
X112502000Y-109562308D01*
X112502000Y-104619755D01*
X112894632Y-104619755D01*
X112967001Y-104794520D01*
X113318943Y-105254814D01*
X113820242Y-105545388D01*
X114046000Y-105444386D01*
X114046000Y-104394000D01*
X114554000Y-104394000D01*
X114554000Y-105444386D01*
X114779758Y-105545388D01*
X115281057Y-105254814D01*
X115632999Y-104794520D01*
X115705368Y-104619755D01*
X115601700Y-104394000D01*
X114554000Y-104394000D01*
X114046000Y-104394000D01*
X112998300Y-104394000D01*
X112894632Y-104619755D01*
X112502000Y-104619755D01*
X112502000Y-103660245D01*
X112894632Y-103660245D01*
X112998300Y-103886000D01*
X114046000Y-103886000D01*
X114046000Y-103866000D01*
X114554000Y-103866000D01*
X114554000Y-103886000D01*
X115601700Y-103886000D01*
X115705368Y-103660245D01*
X115632999Y-103485480D01*
X115281057Y-103025186D01*
X115127787Y-102936344D01*
X115150000Y-102936344D01*
X115326765Y-102903083D01*
X115489113Y-102798615D01*
X115598027Y-102639215D01*
X115636344Y-102450000D01*
X115636344Y-102012750D01*
X116745000Y-102012750D01*
X116745000Y-102526310D01*
X116841673Y-102759699D01*
X116951975Y-102870000D01*
X116841673Y-102980301D01*
X116745000Y-103213690D01*
X116745000Y-103727250D01*
X116903750Y-103886000D01*
X117630000Y-103886000D01*
X117630000Y-101854000D01*
X116903750Y-101854000D01*
X116745000Y-102012750D01*
X115636344Y-102012750D01*
X115636344Y-100750000D01*
X115603083Y-100573235D01*
X115498615Y-100410887D01*
X115349282Y-100308852D01*
X115556134Y-100102000D01*
X117493423Y-100102000D01*
X117560785Y-100148027D01*
X117644600Y-100165000D01*
X117625998Y-100165000D01*
X117625998Y-100319748D01*
X117471250Y-100165000D01*
X117253691Y-100165000D01*
X117020302Y-100261673D01*
X116841673Y-100440301D01*
X116745000Y-100673690D01*
X116745000Y-101187250D01*
X116903750Y-101346000D01*
X117630000Y-101346000D01*
X117630000Y-101326000D01*
X118130000Y-101326000D01*
X118130000Y-101346000D01*
X118154000Y-101346000D01*
X118154000Y-101854000D01*
X118130000Y-101854000D01*
X118130000Y-103886000D01*
X118154000Y-103886000D01*
X118154000Y-104394000D01*
X118130000Y-104394000D01*
X118130000Y-104414000D01*
X117630000Y-104414000D01*
X117630000Y-104394000D01*
X116903750Y-104394000D01*
X116745000Y-104552750D01*
X116745000Y-105066310D01*
X116804510Y-105209979D01*
X116792775Y-105212187D01*
X116630427Y-105316655D01*
X116521513Y-105476055D01*
X116483196Y-105665270D01*
X116483196Y-107694730D01*
X116516457Y-107871495D01*
X116620925Y-108033843D01*
X116780325Y-108142757D01*
X116969540Y-108181074D01*
X118620540Y-108181074D01*
X118797305Y-108147813D01*
X118959653Y-108043345D01*
X119068567Y-107883945D01*
X119106884Y-107694730D01*
X119106884Y-107295752D01*
X119259067Y-107194067D01*
X119653116Y-106800017D01*
X119653116Y-107694730D01*
X119686377Y-107871495D01*
X119790845Y-108033843D01*
X119950245Y-108142757D01*
X120139460Y-108181074D01*
X120487940Y-108181074D01*
X121270619Y-108963752D01*
X121263266Y-109000060D01*
X121263266Y-111301300D01*
X121296527Y-111478065D01*
X121400995Y-111640413D01*
X121560395Y-111749327D01*
X121749610Y-111787644D01*
X122249990Y-111787644D01*
X122405351Y-111758411D01*
X122549710Y-111787644D01*
X123050090Y-111787644D01*
X123205451Y-111758411D01*
X123349810Y-111787644D01*
X123850190Y-111787644D01*
X124005551Y-111758411D01*
X124149910Y-111787644D01*
X124538328Y-111787644D01*
X124590311Y-111839627D01*
X124823700Y-111936300D01*
X124916355Y-111936300D01*
X125075105Y-111777550D01*
X125075105Y-111524487D01*
X125098317Y-111490515D01*
X125136634Y-111301300D01*
X125136634Y-109000060D01*
X125103373Y-108823295D01*
X125075105Y-108779365D01*
X125075105Y-108523810D01*
X125325295Y-108523810D01*
X125325295Y-109896680D01*
X125926640Y-109896680D01*
X126085390Y-109737930D01*
X126085390Y-108873751D01*
X126415590Y-108873751D01*
X126415590Y-109836990D01*
X126574340Y-109995740D01*
X127796080Y-109995740D01*
X127796080Y-108523810D01*
X128304080Y-108523810D01*
X128304080Y-109995740D01*
X129525820Y-109995740D01*
X129684570Y-109836990D01*
X129684570Y-108873751D01*
X129587897Y-108640362D01*
X129409269Y-108461733D01*
X129175880Y-108365060D01*
X128462830Y-108365060D01*
X128304080Y-108523810D01*
X127796080Y-108523810D01*
X127637330Y-108365060D01*
X126924280Y-108365060D01*
X126690891Y-108461733D01*
X126512263Y-108640362D01*
X126415590Y-108873751D01*
X126085390Y-108873751D01*
X125988717Y-108640362D01*
X125810089Y-108461733D01*
X125576700Y-108365060D01*
X125484045Y-108365060D01*
X125325295Y-108523810D01*
X125075105Y-108523810D01*
X124916355Y-108365060D01*
X124823700Y-108365060D01*
X124590311Y-108461733D01*
X124538328Y-108513716D01*
X124149910Y-108513716D01*
X123994549Y-108542949D01*
X123850190Y-108513716D01*
X123349810Y-108513716D01*
X123194449Y-108542949D01*
X123050090Y-108513716D01*
X122696748Y-108513716D01*
X122673339Y-108396034D01*
X122671460Y-108386589D01*
X122513867Y-108150733D01*
X122513864Y-108150731D01*
X122239934Y-107876801D01*
X122276804Y-107694730D01*
X122276804Y-106352750D01*
X123025000Y-106352750D01*
X123025000Y-107366309D01*
X123121673Y-107599698D01*
X123300301Y-107778327D01*
X123533690Y-107875000D01*
X124047250Y-107875000D01*
X124206000Y-107716250D01*
X124206000Y-106194000D01*
X124714000Y-106194000D01*
X124714000Y-107716250D01*
X124872750Y-107875000D01*
X125386310Y-107875000D01*
X125619699Y-107778327D01*
X125798327Y-107599698D01*
X125895000Y-107366309D01*
X125895000Y-107318750D01*
X126835000Y-107318750D01*
X126835000Y-107536309D01*
X126931673Y-107769698D01*
X127110301Y-107948327D01*
X127343690Y-108045000D01*
X127857250Y-108045000D01*
X128016000Y-107886250D01*
X128016000Y-107160000D01*
X128524000Y-107160000D01*
X128524000Y-107886250D01*
X128682750Y-108045000D01*
X129196310Y-108045000D01*
X129429699Y-107948327D01*
X129608327Y-107769698D01*
X129705000Y-107536309D01*
X129705000Y-107318750D01*
X129546250Y-107160000D01*
X128524000Y-107160000D01*
X128016000Y-107160000D01*
X126993750Y-107160000D01*
X126835000Y-107318750D01*
X125895000Y-107318750D01*
X125895000Y-106352750D01*
X125825941Y-106283691D01*
X126835000Y-106283691D01*
X126835000Y-106501250D01*
X126993750Y-106660000D01*
X128016000Y-106660000D01*
X128016000Y-105933750D01*
X128524000Y-105933750D01*
X128524000Y-106660000D01*
X129546250Y-106660000D01*
X129705000Y-106501250D01*
X129705000Y-106283691D01*
X129608327Y-106050302D01*
X129429699Y-105871673D01*
X129196310Y-105775000D01*
X128682750Y-105775000D01*
X128524000Y-105933750D01*
X128016000Y-105933750D01*
X127857250Y-105775000D01*
X127343690Y-105775000D01*
X127110301Y-105871673D01*
X126931673Y-106050302D01*
X126835000Y-106283691D01*
X125825941Y-106283691D01*
X125736250Y-106194000D01*
X124714000Y-106194000D01*
X124206000Y-106194000D01*
X123183750Y-106194000D01*
X123025000Y-106352750D01*
X122276804Y-106352750D01*
X122276804Y-105665270D01*
X122243543Y-105488505D01*
X122139075Y-105326157D01*
X121979675Y-105217243D01*
X121793623Y-105179567D01*
X121828027Y-105129215D01*
X121866344Y-104940000D01*
X121866344Y-104867000D01*
X121919995Y-104867000D01*
X121920000Y-104867001D01*
X122152052Y-104820842D01*
X122198211Y-104811660D01*
X122434067Y-104654067D01*
X123232152Y-103855981D01*
X123311385Y-103979113D01*
X123418875Y-104052558D01*
X123300301Y-104101673D01*
X123121673Y-104280302D01*
X123025000Y-104513691D01*
X123025000Y-105527250D01*
X123183750Y-105686000D01*
X124206000Y-105686000D01*
X124206000Y-105666000D01*
X124714000Y-105666000D01*
X124714000Y-105686000D01*
X125736250Y-105686000D01*
X125895000Y-105527250D01*
X125895000Y-104513691D01*
X125798327Y-104280302D01*
X125619699Y-104101673D01*
X125500284Y-104052210D01*
X125599113Y-103988615D01*
X125708027Y-103829215D01*
X125746344Y-103640000D01*
X125746344Y-101040000D01*
X125713083Y-100863235D01*
X125608615Y-100700887D01*
X125600000Y-100695000D01*
X126983656Y-100695000D01*
X126983656Y-101695000D01*
X127016917Y-101871765D01*
X127121385Y-102034113D01*
X127280785Y-102143027D01*
X127470000Y-102181344D01*
X129070000Y-102181344D01*
X129246765Y-102148083D01*
X129409113Y-102043615D01*
X129518027Y-101884215D01*
X129525563Y-101847000D01*
X131477132Y-101847000D01*
X131477631Y-101849510D01*
X131600978Y-102034113D01*
X131618966Y-102061034D01*
X132574827Y-103016895D01*
X132325136Y-102913214D01*
X131837005Y-102912788D01*
X131385869Y-103099194D01*
X131040407Y-103444053D01*
X131038946Y-103447571D01*
X130982717Y-103410000D01*
X130829510Y-103307631D01*
X130788113Y-103299396D01*
X130580000Y-103257999D01*
X130579995Y-103258000D01*
X129527743Y-103258000D01*
X129523083Y-103233235D01*
X129418615Y-103070887D01*
X129259215Y-102961973D01*
X129070000Y-102923656D01*
X127470000Y-102923656D01*
X127293235Y-102956917D01*
X127130887Y-103061385D01*
X127021973Y-103220785D01*
X126983656Y-103410000D01*
X126983656Y-104410000D01*
X127016917Y-104586765D01*
X127121385Y-104749113D01*
X127280785Y-104858027D01*
X127470000Y-104896344D01*
X129070000Y-104896344D01*
X129246765Y-104863083D01*
X129409113Y-104758615D01*
X129518027Y-104599215D01*
X129525563Y-104562000D01*
X130309932Y-104562000D01*
X130348966Y-104601034D01*
X130560490Y-104742369D01*
X130810000Y-104792000D01*
X131021786Y-104792000D01*
X131039194Y-104834131D01*
X131384053Y-105179593D01*
X131834864Y-105366786D01*
X132322995Y-105367212D01*
X132774131Y-105180806D01*
X133119593Y-104835947D01*
X133120851Y-104832918D01*
X133148964Y-104861031D01*
X133148966Y-104861034D01*
X133232926Y-104917134D01*
X133360491Y-105002370D01*
X133610000Y-105052001D01*
X133610005Y-105052000D01*
X134991834Y-105052000D01*
X135095785Y-105123027D01*
X135285000Y-105161344D01*
X136773656Y-105161344D01*
X136773656Y-106650000D01*
X136806917Y-106826765D01*
X136911385Y-106989113D01*
X137070785Y-107098027D01*
X137260000Y-107136344D01*
X137473059Y-107136344D01*
X134136402Y-110473000D01*
X134101344Y-110473000D01*
X134101344Y-110225000D01*
X134072178Y-110070000D01*
X134106309Y-110070000D01*
X134339698Y-109973327D01*
X134518327Y-109794699D01*
X134615000Y-109561310D01*
X134615000Y-108997750D01*
X134456250Y-108839000D01*
X133755000Y-108839000D01*
X133755000Y-108859000D01*
X133305000Y-108859000D01*
X133305000Y-108839000D01*
X132603750Y-108839000D01*
X132445000Y-108997750D01*
X132445000Y-109561310D01*
X132518459Y-109738656D01*
X131815000Y-109738656D01*
X131638235Y-109771917D01*
X131475887Y-109876385D01*
X131366973Y-110035785D01*
X131328656Y-110225000D01*
X131328656Y-112025000D01*
X131361917Y-112201765D01*
X131466385Y-112364113D01*
X131625785Y-112473027D01*
X131815000Y-112511344D01*
X131921598Y-112511344D01*
X131567196Y-112865128D01*
X131282000Y-112579932D01*
X131282000Y-109871845D01*
X131419113Y-109783615D01*
X131528027Y-109624215D01*
X131566344Y-109435000D01*
X131566344Y-107735000D01*
X131542577Y-107608690D01*
X132445000Y-107608690D01*
X132445000Y-108172250D01*
X132603750Y-108331000D01*
X133305000Y-108331000D01*
X133305000Y-107258750D01*
X133755000Y-107258750D01*
X133755000Y-108331000D01*
X134456250Y-108331000D01*
X134615000Y-108172250D01*
X134615000Y-107608690D01*
X134518327Y-107375301D01*
X134339698Y-107196673D01*
X134106309Y-107100000D01*
X133913750Y-107100000D01*
X133755000Y-107258750D01*
X133305000Y-107258750D01*
X133146250Y-107100000D01*
X132953691Y-107100000D01*
X132720302Y-107196673D01*
X132541673Y-107375301D01*
X132445000Y-107608690D01*
X131542577Y-107608690D01*
X131533083Y-107558235D01*
X131428615Y-107395887D01*
X131269215Y-107286973D01*
X131080000Y-107248656D01*
X130180000Y-107248656D01*
X130003235Y-107281917D01*
X129840887Y-107386385D01*
X129731973Y-107545785D01*
X129693656Y-107735000D01*
X129693656Y-109435000D01*
X129726917Y-109611765D01*
X129831385Y-109774113D01*
X129978000Y-109874291D01*
X129978000Y-112849995D01*
X129977999Y-112850000D01*
X130007439Y-112998000D01*
X130027631Y-113099510D01*
X130093404Y-113197947D01*
X130168966Y-113311034D01*
X130983966Y-114126034D01*
X131195490Y-114267369D01*
X131445000Y-114317000D01*
X131494485Y-114317000D01*
X131546956Y-114443989D01*
X131933974Y-114831683D01*
X132182776Y-114934995D01*
X131936011Y-115036956D01*
X131548317Y-115423974D01*
X131338240Y-115929896D01*
X131337762Y-116477701D01*
X131546956Y-116983989D01*
X131933974Y-117371683D01*
X132439896Y-117581760D01*
X132987701Y-117582238D01*
X133493989Y-117373044D01*
X133881683Y-116986026D01*
X133935259Y-116857000D01*
X133984995Y-116857000D01*
X133985000Y-116857001D01*
X134193113Y-116815604D01*
X134234510Y-116807369D01*
X134278471Y-116777995D01*
X148632788Y-116777995D01*
X148819194Y-117229131D01*
X149164053Y-117574593D01*
X149614864Y-117761786D01*
X150102995Y-117762212D01*
X150554131Y-117575806D01*
X150899593Y-117230947D01*
X151086786Y-116780136D01*
X151087212Y-116292005D01*
X150900806Y-115840869D01*
X150555947Y-115495407D01*
X150105136Y-115308214D01*
X149617005Y-115307788D01*
X149165869Y-115494194D01*
X148820407Y-115839053D01*
X148633214Y-116289864D01*
X148632788Y-116777995D01*
X134278471Y-116777995D01*
X134446034Y-116666034D01*
X135716031Y-115396036D01*
X135716034Y-115396034D01*
X135857369Y-115184510D01*
X135907000Y-114935000D01*
X135907000Y-113506370D01*
X136318000Y-113506370D01*
X136318000Y-115093630D01*
X136430430Y-115658853D01*
X136750603Y-116138027D01*
X137229777Y-116458200D01*
X137795000Y-116570630D01*
X138360223Y-116458200D01*
X138839397Y-116138027D01*
X139065000Y-115800387D01*
X139290603Y-116138027D01*
X139769777Y-116458200D01*
X140335000Y-116570630D01*
X140900223Y-116458200D01*
X141379397Y-116138027D01*
X141502110Y-115954373D01*
X141898486Y-116385725D01*
X142371462Y-116605530D01*
X142621000Y-116504235D01*
X142621000Y-114554000D01*
X143129000Y-114554000D01*
X143129000Y-116504235D01*
X143378538Y-116605530D01*
X143851514Y-116385725D01*
X144288341Y-115910353D01*
X144494006Y-115347750D01*
X144725000Y-115347750D01*
X144725000Y-115661309D01*
X144821673Y-115894698D01*
X145000301Y-116073327D01*
X145233690Y-116170000D01*
X146197250Y-116170000D01*
X146356000Y-116011250D01*
X146356000Y-115189000D01*
X146864000Y-115189000D01*
X146864000Y-116011250D01*
X147022750Y-116170000D01*
X147986310Y-116170000D01*
X148219699Y-116073327D01*
X148398327Y-115894698D01*
X148495000Y-115661309D01*
X148495000Y-115347750D01*
X148336250Y-115189000D01*
X146864000Y-115189000D01*
X146356000Y-115189000D01*
X144883750Y-115189000D01*
X144725000Y-115347750D01*
X144494006Y-115347750D01*
X144510000Y-115304000D01*
X144510000Y-114554000D01*
X143129000Y-114554000D01*
X142621000Y-114554000D01*
X142601000Y-114554000D01*
X142601000Y-114208691D01*
X144725000Y-114208691D01*
X144725000Y-114522250D01*
X144883750Y-114681000D01*
X146356000Y-114681000D01*
X146356000Y-113858750D01*
X146864000Y-113858750D01*
X146864000Y-114681000D01*
X148336250Y-114681000D01*
X148495000Y-114522250D01*
X148495000Y-114208691D01*
X148398327Y-113975302D01*
X148219699Y-113796673D01*
X147986310Y-113700000D01*
X147022750Y-113700000D01*
X146864000Y-113858750D01*
X146356000Y-113858750D01*
X146197250Y-113700000D01*
X145233690Y-113700000D01*
X145000301Y-113796673D01*
X144821673Y-113975302D01*
X144725000Y-114208691D01*
X142601000Y-114208691D01*
X142601000Y-114046000D01*
X142621000Y-114046000D01*
X142621000Y-112095765D01*
X143129000Y-112095765D01*
X143129000Y-114046000D01*
X144510000Y-114046000D01*
X144510000Y-113296000D01*
X144288341Y-112689647D01*
X143851514Y-112214275D01*
X143378538Y-111994470D01*
X143129000Y-112095765D01*
X142621000Y-112095765D01*
X142371462Y-111994470D01*
X141898486Y-112214275D01*
X141502110Y-112645627D01*
X141379397Y-112461973D01*
X140987000Y-112199782D01*
X140987000Y-111335000D01*
X144873656Y-111335000D01*
X144873656Y-112535000D01*
X144906917Y-112711765D01*
X145011385Y-112874113D01*
X145170785Y-112983027D01*
X145360000Y-113021344D01*
X147860000Y-113021344D01*
X148036765Y-112988083D01*
X148199113Y-112883615D01*
X148308027Y-112724215D01*
X148346344Y-112535000D01*
X148346344Y-111335000D01*
X148313083Y-111158235D01*
X148208615Y-110995887D01*
X148049215Y-110886973D01*
X147860000Y-110848656D01*
X145360000Y-110848656D01*
X145183235Y-110881917D01*
X145020887Y-110986385D01*
X144911973Y-111145785D01*
X144873656Y-111335000D01*
X140987000Y-111335000D01*
X140987000Y-111191344D01*
X141185000Y-111191344D01*
X141361765Y-111158083D01*
X141524113Y-111053615D01*
X141633027Y-110894215D01*
X141671344Y-110705000D01*
X141671344Y-110682787D01*
X141760186Y-110836057D01*
X142220480Y-111187999D01*
X142395245Y-111260368D01*
X142621000Y-111156700D01*
X142621000Y-110109000D01*
X143129000Y-110109000D01*
X143129000Y-111156700D01*
X143354755Y-111260368D01*
X143529520Y-111187999D01*
X143989814Y-110836057D01*
X144280388Y-110334758D01*
X144179386Y-110109000D01*
X143129000Y-110109000D01*
X142621000Y-110109000D01*
X142601000Y-110109000D01*
X142601000Y-109777995D01*
X148632788Y-109777995D01*
X148819194Y-110229131D01*
X149164053Y-110574593D01*
X149614864Y-110761786D01*
X150102995Y-110762212D01*
X150554131Y-110575806D01*
X150899593Y-110230947D01*
X151086786Y-109780136D01*
X151087212Y-109292005D01*
X150900806Y-108840869D01*
X150555947Y-108495407D01*
X150105136Y-108308214D01*
X149617005Y-108307788D01*
X149165869Y-108494194D01*
X148820407Y-108839053D01*
X148633214Y-109289864D01*
X148632788Y-109777995D01*
X142601000Y-109777995D01*
X142601000Y-109601000D01*
X142621000Y-109601000D01*
X142621000Y-109581000D01*
X143129000Y-109581000D01*
X143129000Y-109601000D01*
X144179386Y-109601000D01*
X144280388Y-109375242D01*
X143989814Y-108873943D01*
X143614530Y-108587000D01*
X144883441Y-108587000D01*
X144906917Y-108711765D01*
X145011385Y-108874113D01*
X145170785Y-108983027D01*
X145360000Y-109021344D01*
X147860000Y-109021344D01*
X148036765Y-108988083D01*
X148199113Y-108883615D01*
X148308027Y-108724215D01*
X148346344Y-108535000D01*
X148346344Y-107335000D01*
X148329927Y-107247750D01*
X151225000Y-107247750D01*
X151225000Y-107561309D01*
X151321673Y-107794698D01*
X151500301Y-107973327D01*
X151733690Y-108070000D01*
X152697250Y-108070000D01*
X152856000Y-107911250D01*
X152856000Y-107089000D01*
X153364000Y-107089000D01*
X153364000Y-107911250D01*
X153522750Y-108070000D01*
X154486310Y-108070000D01*
X154719699Y-107973327D01*
X154898327Y-107794698D01*
X154995000Y-107561309D01*
X154995000Y-107247750D01*
X154836250Y-107089000D01*
X153364000Y-107089000D01*
X152856000Y-107089000D01*
X151383750Y-107089000D01*
X151225000Y-107247750D01*
X148329927Y-107247750D01*
X148313083Y-107158235D01*
X148208615Y-106995887D01*
X148049215Y-106886973D01*
X147860000Y-106848656D01*
X145360000Y-106848656D01*
X145183235Y-106881917D01*
X145020887Y-106986385D01*
X144911973Y-107145785D01*
X144884186Y-107283000D01*
X140985005Y-107283000D01*
X140985000Y-107282999D01*
X140735491Y-107332630D01*
X140707011Y-107351660D01*
X140523966Y-107473966D01*
X140523964Y-107473969D01*
X139873966Y-108123966D01*
X139732631Y-108335490D01*
X139732631Y-108335491D01*
X139696196Y-108518656D01*
X139485000Y-108518656D01*
X139308235Y-108551917D01*
X139145887Y-108656385D01*
X139036973Y-108815785D01*
X138998656Y-109005000D01*
X138998656Y-110705000D01*
X139031917Y-110881765D01*
X139136385Y-111044113D01*
X139295785Y-111153027D01*
X139485000Y-111191344D01*
X139683000Y-111191344D01*
X139683000Y-112199782D01*
X139290603Y-112461973D01*
X139065000Y-112799613D01*
X138839397Y-112461973D01*
X138522000Y-112249896D01*
X138522000Y-112035321D01*
X138571865Y-111915233D01*
X138572134Y-111606123D01*
X138454092Y-111320440D01*
X138235710Y-111101676D01*
X137950233Y-110983135D01*
X137641123Y-110982866D01*
X137355440Y-111100908D01*
X137136676Y-111319290D01*
X137018135Y-111604767D01*
X137017866Y-111913877D01*
X137068000Y-112035210D01*
X137068000Y-112249896D01*
X136750603Y-112461973D01*
X136430430Y-112941147D01*
X136318000Y-113506370D01*
X135907000Y-113506370D01*
X135907000Y-111395068D01*
X136351031Y-110951036D01*
X136351034Y-110951034D01*
X138256034Y-109046034D01*
X139596031Y-107706036D01*
X139596034Y-107706034D01*
X139737369Y-107494510D01*
X139787000Y-107245000D01*
X139787000Y-107136344D01*
X140210000Y-107136344D01*
X140339588Y-107111960D01*
X140460000Y-107136344D01*
X141010000Y-107136344D01*
X141139588Y-107111960D01*
X141260000Y-107136344D01*
X141810000Y-107136344D01*
X141939588Y-107111960D01*
X142060000Y-107136344D01*
X142610000Y-107136344D01*
X142739588Y-107111960D01*
X142860000Y-107136344D01*
X143410000Y-107136344D01*
X143586765Y-107103083D01*
X143749113Y-106998615D01*
X143858027Y-106839215D01*
X143871486Y-106772750D01*
X143989767Y-106821865D01*
X144298877Y-106822134D01*
X144584560Y-106704092D01*
X144803324Y-106485710D01*
X144921865Y-106200233D01*
X144921944Y-106108691D01*
X151225000Y-106108691D01*
X151225000Y-106422250D01*
X151383750Y-106581000D01*
X152856000Y-106581000D01*
X152856000Y-105758750D01*
X153364000Y-105758750D01*
X153364000Y-106581000D01*
X154836250Y-106581000D01*
X154995000Y-106422250D01*
X154995000Y-106108691D01*
X154898327Y-105875302D01*
X154719699Y-105696673D01*
X154486310Y-105600000D01*
X153522750Y-105600000D01*
X153364000Y-105758750D01*
X152856000Y-105758750D01*
X152697250Y-105600000D01*
X151733690Y-105600000D01*
X151500301Y-105696673D01*
X151321673Y-105875302D01*
X151225000Y-106108691D01*
X144921944Y-106108691D01*
X144922134Y-105891123D01*
X144804092Y-105605440D01*
X144585710Y-105386676D01*
X144300233Y-105268135D01*
X143991123Y-105267866D01*
X143896344Y-105307028D01*
X143896344Y-105161344D01*
X145385000Y-105161344D01*
X145523560Y-105135272D01*
X146241644Y-105853356D01*
X146445058Y-105989273D01*
X146685000Y-106037000D01*
X149860000Y-106037000D01*
X150099943Y-105989272D01*
X150303356Y-105853356D01*
X150938356Y-105218356D01*
X151074273Y-105014942D01*
X151122000Y-104775000D01*
X151122000Y-104677352D01*
X151433331Y-104469328D01*
X151720988Y-104038818D01*
X151765000Y-103817555D01*
X151809012Y-104038818D01*
X152096669Y-104469328D01*
X152527179Y-104756985D01*
X153035000Y-104857997D01*
X153542821Y-104756985D01*
X153973331Y-104469328D01*
X154260988Y-104038818D01*
X154362000Y-103530997D01*
X154362000Y-103479003D01*
X154260988Y-102971182D01*
X153973331Y-102540672D01*
X153640515Y-102318292D01*
X153689520Y-102297999D01*
X154149814Y-101946057D01*
X154440388Y-101444758D01*
X154339386Y-101219000D01*
X153289000Y-101219000D01*
X153289000Y-101239000D01*
X152781000Y-101239000D01*
X152781000Y-101219000D01*
X152761000Y-101219000D01*
X152761000Y-100711000D01*
X152781000Y-100711000D01*
X152781000Y-99663300D01*
X153289000Y-99663300D01*
X153289000Y-100711000D01*
X154339386Y-100711000D01*
X154440388Y-100485242D01*
X154149814Y-99983943D01*
X153689520Y-99632001D01*
X153514755Y-99559632D01*
X153289000Y-99663300D01*
X152781000Y-99663300D01*
X152555245Y-99559632D01*
X152380480Y-99632001D01*
X151920186Y-99983943D01*
X151688838Y-100383066D01*
X151433331Y-100000672D01*
X151002821Y-99713015D01*
X150495000Y-99612003D01*
X150096956Y-99691179D01*
X150132001Y-99515000D01*
X150132000Y-99514995D01*
X150132000Y-99028584D01*
X150165456Y-99007055D01*
X150210785Y-99038027D01*
X150400000Y-99076344D01*
X151400000Y-99076344D01*
X151576765Y-99043083D01*
X151739113Y-98938615D01*
X151848027Y-98779215D01*
X151886344Y-98590000D01*
X151886344Y-98202750D01*
X152765000Y-98202750D01*
X152765000Y-98716310D01*
X152861673Y-98949699D01*
X153040302Y-99128327D01*
X153273691Y-99225000D01*
X153491250Y-99225000D01*
X153650000Y-99066250D01*
X153650000Y-98044000D01*
X152923750Y-98044000D01*
X152765000Y-98202750D01*
X151886344Y-98202750D01*
X151886344Y-96990000D01*
X151853083Y-96813235D01*
X151748615Y-96650887D01*
X151741354Y-96645925D01*
X151759698Y-96638327D01*
X151938327Y-96459699D01*
X152035000Y-96226310D01*
X152035000Y-95662750D01*
X151876250Y-95504000D01*
X151175000Y-95504000D01*
X151175000Y-95524000D01*
X150725000Y-95524000D01*
X150725000Y-95504000D01*
X150023750Y-95504000D01*
X149865000Y-95662750D01*
X149865000Y-96226310D01*
X149961673Y-96459699D01*
X149981183Y-96479209D01*
X149855000Y-96453656D01*
X148955000Y-96453656D01*
X148778235Y-96486917D01*
X148615887Y-96591385D01*
X148506973Y-96750785D01*
X148468656Y-96940000D01*
X148468656Y-98640000D01*
X148501917Y-98816765D01*
X148606385Y-98979113D01*
X148678000Y-99028046D01*
X148678000Y-99213867D01*
X148225965Y-99665901D01*
X147955000Y-99612003D01*
X147447179Y-99713015D01*
X147016669Y-100000672D01*
X146729012Y-100431182D01*
X146628000Y-100939003D01*
X146628000Y-100990997D01*
X146673272Y-101218594D01*
X146618866Y-101273000D01*
X145554596Y-101273000D01*
X145385000Y-101238656D01*
X143785000Y-101238656D01*
X143608235Y-101271917D01*
X143606552Y-101273000D01*
X142970005Y-101273000D01*
X142970000Y-101272999D01*
X142737948Y-101319158D01*
X142691789Y-101328340D01*
X142467491Y-101478210D01*
X142455933Y-101485933D01*
X141868866Y-102073000D01*
X138568778Y-102073000D01*
X138522000Y-101959790D01*
X138522000Y-101600000D01*
X138466660Y-101321789D01*
X138309067Y-101085933D01*
X138309064Y-101085931D01*
X137909067Y-100685933D01*
X137673211Y-100528340D01*
X137622410Y-100518235D01*
X137395000Y-100472999D01*
X137394995Y-100473000D01*
X137054596Y-100473000D01*
X136885000Y-100438656D01*
X135285000Y-100438656D01*
X135108235Y-100471917D01*
X135006316Y-100537500D01*
X134808750Y-100537500D01*
X134650000Y-100696250D01*
X134650000Y-100801310D01*
X134746673Y-101034699D01*
X134798656Y-101086682D01*
X134798656Y-101313318D01*
X134746673Y-101365301D01*
X134650000Y-101598690D01*
X134650000Y-101703750D01*
X134808750Y-101862500D01*
X135007201Y-101862500D01*
X135095785Y-101923027D01*
X135285000Y-101961344D01*
X136359000Y-101961344D01*
X136359000Y-102038656D01*
X135285000Y-102038656D01*
X135108235Y-102071917D01*
X135006316Y-102137500D01*
X134808750Y-102137500D01*
X134650000Y-102296250D01*
X134650000Y-102401310D01*
X134746673Y-102634699D01*
X134798656Y-102686682D01*
X134798656Y-102948000D01*
X134350068Y-102948000D01*
X132732000Y-101329932D01*
X132732000Y-100318214D01*
X132774131Y-100300806D01*
X133119593Y-99955947D01*
X133306786Y-99505136D01*
X133307212Y-99017005D01*
X133120806Y-98565869D01*
X132775947Y-98220407D01*
X132325136Y-98033214D01*
X131837005Y-98032788D01*
X131385869Y-98219194D01*
X131040407Y-98564053D01*
X130853214Y-99014864D01*
X130852788Y-99502995D01*
X131039194Y-99954131D01*
X131384053Y-100299593D01*
X131428000Y-100317841D01*
X131428000Y-100543000D01*
X129527743Y-100543000D01*
X129523083Y-100518235D01*
X129418615Y-100355887D01*
X129259215Y-100246973D01*
X129070000Y-100208656D01*
X127470000Y-100208656D01*
X127293235Y-100241917D01*
X127130887Y-100346385D01*
X127021973Y-100505785D01*
X126983656Y-100695000D01*
X125600000Y-100695000D01*
X125449215Y-100591973D01*
X125260000Y-100553656D01*
X123660000Y-100553656D01*
X123483235Y-100586917D01*
X123320887Y-100691385D01*
X123211973Y-100850785D01*
X123173656Y-101040000D01*
X123173656Y-101858211D01*
X121838713Y-103193154D01*
X121833083Y-103163235D01*
X121728615Y-103000887D01*
X121569215Y-102891973D01*
X121463672Y-102870600D01*
X121556765Y-102853083D01*
X121719113Y-102748615D01*
X121828027Y-102589215D01*
X121866344Y-102400000D01*
X121866344Y-100800000D01*
X121833083Y-100623235D01*
X121728615Y-100460887D01*
X121569215Y-100351973D01*
X121565470Y-100351215D01*
X121551660Y-100281789D01*
X121394067Y-100045933D01*
X121394064Y-100045931D01*
X121368449Y-100020316D01*
X121458027Y-99889215D01*
X121496344Y-99700000D01*
X121496344Y-99050000D01*
X121463083Y-98873235D01*
X121358615Y-98710887D01*
X121201816Y-98603750D01*
X126835000Y-98603750D01*
X126835000Y-98821309D01*
X126931673Y-99054698D01*
X127110301Y-99233327D01*
X127343690Y-99330000D01*
X127857250Y-99330000D01*
X128016000Y-99171250D01*
X128016000Y-98445000D01*
X128524000Y-98445000D01*
X128524000Y-99171250D01*
X128682750Y-99330000D01*
X129196310Y-99330000D01*
X129429699Y-99233327D01*
X129608327Y-99054698D01*
X129705000Y-98821309D01*
X129705000Y-98603750D01*
X129546250Y-98445000D01*
X128524000Y-98445000D01*
X128016000Y-98445000D01*
X126993750Y-98445000D01*
X126835000Y-98603750D01*
X121201816Y-98603750D01*
X121199215Y-98601973D01*
X121010000Y-98563656D01*
X119950000Y-98563656D01*
X119773235Y-98596917D01*
X119619741Y-98695688D01*
X119380000Y-98648000D01*
X119346750Y-98648000D01*
X119286250Y-98587500D01*
X118927745Y-98587500D01*
X118810000Y-98563656D01*
X118006000Y-98563656D01*
X118006000Y-98286344D01*
X118810000Y-98286344D01*
X118936719Y-98262500D01*
X119286250Y-98262500D01*
X119445000Y-98103750D01*
X119445000Y-97973690D01*
X119348327Y-97740301D01*
X119296344Y-97688318D01*
X119296344Y-97150000D01*
X119263083Y-96973235D01*
X119158615Y-96810887D01*
X118999215Y-96701973D01*
X118810000Y-96663656D01*
X117750000Y-96663656D01*
X117573235Y-96696917D01*
X117493850Y-96748000D01*
X117155000Y-96748000D01*
X116876789Y-96803340D01*
X116640933Y-96960933D01*
X116640931Y-96960936D01*
X116325933Y-97275933D01*
X116168340Y-97511789D01*
X116168340Y-97511790D01*
X116112999Y-97790000D01*
X116113000Y-97790005D01*
X116113000Y-98648000D01*
X115255005Y-98648000D01*
X115255000Y-98647999D01*
X115022948Y-98694158D01*
X114976789Y-98703340D01*
X114800235Y-98821309D01*
X114740933Y-98860933D01*
X113785933Y-99815933D01*
X113628340Y-100051789D01*
X113628340Y-100051790D01*
X113586196Y-100263656D01*
X113450000Y-100263656D01*
X113273235Y-100296917D01*
X113110887Y-100401385D01*
X113001973Y-100560785D01*
X112963656Y-100750000D01*
X112963656Y-102450000D01*
X112996917Y-102626765D01*
X113101385Y-102789113D01*
X113260785Y-102898027D01*
X113450000Y-102936344D01*
X113472213Y-102936344D01*
X113318943Y-103025186D01*
X112967001Y-103485480D01*
X112894632Y-103660245D01*
X112502000Y-103660245D01*
X112502000Y-94392750D01*
X113105000Y-94392750D01*
X113105000Y-94906310D01*
X113201673Y-95139699D01*
X113380302Y-95318327D01*
X113613691Y-95415000D01*
X114627250Y-95415000D01*
X114786000Y-95256250D01*
X114786000Y-94234000D01*
X113263750Y-94234000D01*
X113105000Y-94392750D01*
X112502000Y-94392750D01*
X112502000Y-93053690D01*
X113105000Y-93053690D01*
X113105000Y-93567250D01*
X113263750Y-93726000D01*
X114786000Y-93726000D01*
X114786000Y-92703750D01*
X114627250Y-92545000D01*
X113613691Y-92545000D01*
X113380302Y-92641673D01*
X113201673Y-92820301D01*
X113105000Y-93053690D01*
X112502000Y-93053690D01*
X112502000Y-90014755D01*
X112894632Y-90014755D01*
X112967001Y-90189520D01*
X113318943Y-90649814D01*
X113820242Y-90940388D01*
X114046000Y-90839386D01*
X114046000Y-89789000D01*
X112998300Y-89789000D01*
X112894632Y-90014755D01*
X112502000Y-90014755D01*
X112502000Y-89055245D01*
X112894632Y-89055245D01*
X112998300Y-89281000D01*
X114046000Y-89281000D01*
X114046000Y-89261000D01*
X114554000Y-89261000D01*
X114554000Y-89281000D01*
X114574000Y-89281000D01*
X114574000Y-89789000D01*
X114554000Y-89789000D01*
X114554000Y-90839386D01*
X114779758Y-90940388D01*
X115281057Y-90649814D01*
X115632999Y-90189520D01*
X115691093Y-90049227D01*
X116325931Y-90684064D01*
X116325933Y-90684067D01*
X116493656Y-90796135D01*
X116493656Y-91020000D01*
X116526917Y-91196765D01*
X116631385Y-91359113D01*
X116790785Y-91468027D01*
X116903000Y-91490751D01*
X116903000Y-91919995D01*
X116902999Y-91920000D01*
X116937213Y-92092000D01*
X116958340Y-92198211D01*
X117039026Y-92318967D01*
X117115933Y-92434067D01*
X117375522Y-92693656D01*
X117340000Y-92693656D01*
X117163235Y-92726917D01*
X117000887Y-92831385D01*
X116927442Y-92938875D01*
X116878327Y-92820301D01*
X116699698Y-92641673D01*
X116466309Y-92545000D01*
X115452750Y-92545000D01*
X115294000Y-92703750D01*
X115294000Y-93726000D01*
X115314000Y-93726000D01*
X115314000Y-94234000D01*
X115294000Y-94234000D01*
X115294000Y-95256250D01*
X115452750Y-95415000D01*
X116466309Y-95415000D01*
X116699698Y-95318327D01*
X116878327Y-95139699D01*
X116927790Y-95020284D01*
X116991385Y-95119113D01*
X117150785Y-95228027D01*
X117340000Y-95266344D01*
X119940000Y-95266344D01*
X120116765Y-95233083D01*
X120279113Y-95128615D01*
X120388027Y-94969215D01*
X120425590Y-94783724D01*
X120558000Y-94916133D01*
X120558000Y-96663656D01*
X119950000Y-96663656D01*
X119773235Y-96696917D01*
X119610887Y-96801385D01*
X119501973Y-96960785D01*
X119463656Y-97150000D01*
X119463656Y-97800000D01*
X119496917Y-97976765D01*
X119601385Y-98139113D01*
X119760785Y-98248027D01*
X119950000Y-98286344D01*
X121010000Y-98286344D01*
X121186765Y-98253083D01*
X121349113Y-98148615D01*
X121440538Y-98014811D01*
X121479067Y-97989067D01*
X121799064Y-97669069D01*
X121799067Y-97669067D01*
X121866135Y-97568691D01*
X126835000Y-97568691D01*
X126835000Y-97786250D01*
X126993750Y-97945000D01*
X128016000Y-97945000D01*
X128016000Y-97218750D01*
X128524000Y-97218750D01*
X128524000Y-97945000D01*
X129546250Y-97945000D01*
X129705000Y-97786250D01*
X129705000Y-97568691D01*
X129608327Y-97335302D01*
X129429699Y-97156673D01*
X129196310Y-97060000D01*
X128682750Y-97060000D01*
X128524000Y-97218750D01*
X128016000Y-97218750D01*
X127857250Y-97060000D01*
X127343690Y-97060000D01*
X127110301Y-97156673D01*
X126931673Y-97335302D01*
X126835000Y-97568691D01*
X121866135Y-97568691D01*
X121956660Y-97433211D01*
X121983743Y-97297056D01*
X122073877Y-97297134D01*
X122359560Y-97179092D01*
X122578324Y-96960710D01*
X122696865Y-96675233D01*
X122697134Y-96366123D01*
X122579092Y-96080440D01*
X122360710Y-95861676D01*
X122075233Y-95743135D01*
X122012000Y-95743080D01*
X122012000Y-94615005D01*
X122012001Y-94615000D01*
X121956660Y-94336790D01*
X121956660Y-94336789D01*
X121799067Y-94100933D01*
X121799064Y-94100931D01*
X121164067Y-93465933D01*
X121039005Y-93382370D01*
X120928211Y-93308340D01*
X120882052Y-93299158D01*
X120650000Y-93252999D01*
X120649995Y-93253000D01*
X120426344Y-93253000D01*
X120426344Y-93180000D01*
X120393083Y-93003235D01*
X120288615Y-92840887D01*
X120129215Y-92731973D01*
X119940000Y-92693656D01*
X119319988Y-92693656D01*
X119311660Y-92651790D01*
X119311660Y-92651789D01*
X119154067Y-92415933D01*
X119154064Y-92415931D01*
X118357000Y-91618866D01*
X118357000Y-91491855D01*
X118456765Y-91473083D01*
X118619113Y-91368615D01*
X118728027Y-91209215D01*
X118766344Y-91020000D01*
X118766344Y-89320000D01*
X118733083Y-89143235D01*
X118628615Y-88980887D01*
X118469215Y-88871973D01*
X118457624Y-88869626D01*
X118491000Y-88836250D01*
X118491000Y-88110000D01*
X117468750Y-88110000D01*
X117310000Y-88268750D01*
X117310000Y-88486309D01*
X117406673Y-88719698D01*
X117520630Y-88833656D01*
X116980000Y-88833656D01*
X116932000Y-88842688D01*
X116932000Y-87630005D01*
X116932001Y-87630000D01*
X116876660Y-87351790D01*
X116876660Y-87351789D01*
X116797750Y-87233691D01*
X117310000Y-87233691D01*
X117310000Y-87451250D01*
X117468750Y-87610000D01*
X118491000Y-87610000D01*
X118491000Y-86883750D01*
X118999000Y-86883750D01*
X118999000Y-87610000D01*
X119019000Y-87610000D01*
X119019000Y-88110000D01*
X118999000Y-88110000D01*
X118999000Y-88836250D01*
X119157750Y-88995000D01*
X119671310Y-88995000D01*
X119904699Y-88898327D01*
X119998000Y-88805025D01*
X119998000Y-88899995D01*
X119997999Y-88900000D01*
X120018280Y-89001956D01*
X120041216Y-89117258D01*
X120031973Y-89130785D01*
X119993656Y-89320000D01*
X119993656Y-91020000D01*
X120026917Y-91196765D01*
X120131385Y-91359113D01*
X120290785Y-91468027D01*
X120480000Y-91506344D01*
X121780000Y-91506344D01*
X121956765Y-91473083D01*
X122119113Y-91368615D01*
X122228027Y-91209215D01*
X122266344Y-91020000D01*
X122266344Y-89320000D01*
X122233083Y-89143235D01*
X122128615Y-88980887D01*
X121969215Y-88871973D01*
X121780000Y-88833656D01*
X121505723Y-88833656D01*
X121418411Y-88746344D01*
X121500000Y-88746344D01*
X121676765Y-88713083D01*
X121839113Y-88608615D01*
X121948027Y-88449215D01*
X121986344Y-88260000D01*
X121986344Y-87360000D01*
X121953083Y-87183235D01*
X121848615Y-87020887D01*
X121689215Y-86911973D01*
X121500000Y-86873656D01*
X119956682Y-86873656D01*
X119904699Y-86821673D01*
X119671310Y-86725000D01*
X119157750Y-86725000D01*
X118999000Y-86883750D01*
X118491000Y-86883750D01*
X118332250Y-86725000D01*
X117818690Y-86725000D01*
X117585301Y-86821673D01*
X117406673Y-87000302D01*
X117310000Y-87233691D01*
X116797750Y-87233691D01*
X116719067Y-87115933D01*
X116719064Y-87115931D01*
X116084067Y-86480933D01*
X116055666Y-86461956D01*
X115848211Y-86323340D01*
X115802052Y-86314158D01*
X115636344Y-86281196D01*
X115636344Y-86145000D01*
X115603083Y-85968235D01*
X115546464Y-85880245D01*
X122419632Y-85880245D01*
X122523300Y-86106000D01*
X123571000Y-86106000D01*
X123571000Y-85055614D01*
X124079000Y-85055614D01*
X124079000Y-86106000D01*
X125126700Y-86106000D01*
X125230368Y-85880245D01*
X125157999Y-85705480D01*
X124806057Y-85245186D01*
X124304758Y-84954612D01*
X124079000Y-85055614D01*
X123571000Y-85055614D01*
X123345242Y-84954612D01*
X122843943Y-85245186D01*
X122492001Y-85705480D01*
X122419632Y-85880245D01*
X115546464Y-85880245D01*
X115498615Y-85805887D01*
X115339215Y-85696973D01*
X115150000Y-85658656D01*
X113450000Y-85658656D01*
X113273235Y-85691917D01*
X113110887Y-85796385D01*
X113001973Y-85955785D01*
X112963656Y-86145000D01*
X112963656Y-87845000D01*
X112996917Y-88021765D01*
X113101385Y-88184113D01*
X113260785Y-88293027D01*
X113450000Y-88331344D01*
X113472213Y-88331344D01*
X113318943Y-88420186D01*
X112967001Y-88880480D01*
X112894632Y-89055245D01*
X112502000Y-89055245D01*
X112502000Y-84282750D01*
X114774000Y-84282750D01*
X114774000Y-85146309D01*
X114870673Y-85379698D01*
X115049301Y-85558327D01*
X115282690Y-85655000D01*
X115400250Y-85655000D01*
X115559000Y-85496250D01*
X115559000Y-84124000D01*
X114932750Y-84124000D01*
X114774000Y-84282750D01*
X112502000Y-84282750D01*
X112502000Y-82593691D01*
X114774000Y-82593691D01*
X114774000Y-83457250D01*
X114932750Y-83616000D01*
X115559000Y-83616000D01*
X115559000Y-82243750D01*
X115859000Y-82243750D01*
X115859000Y-83616000D01*
X115983000Y-83616000D01*
X115983000Y-84124000D01*
X115859000Y-84124000D01*
X115859000Y-85496250D01*
X116017750Y-85655000D01*
X116135310Y-85655000D01*
X116368699Y-85558327D01*
X116547327Y-85379698D01*
X116557628Y-85354829D01*
X116560385Y-85359113D01*
X116719785Y-85468027D01*
X116909000Y-85506344D01*
X117486193Y-85506344D01*
X117491917Y-85536765D01*
X117596385Y-85699113D01*
X117755785Y-85808027D01*
X117945000Y-85846344D01*
X119545000Y-85846344D01*
X119677180Y-85821472D01*
X119800000Y-85846344D01*
X121500000Y-85846344D01*
X121676765Y-85813083D01*
X121839113Y-85708615D01*
X121948027Y-85549215D01*
X121986344Y-85360000D01*
X121986344Y-84460000D01*
X121953083Y-84283235D01*
X121848615Y-84120887D01*
X121689215Y-84011973D01*
X121500000Y-83973656D01*
X121302000Y-83973656D01*
X121302000Y-83820000D01*
X121252369Y-83570490D01*
X121111034Y-83358966D01*
X120899510Y-83217631D01*
X120650000Y-83168000D01*
X120286000Y-83168000D01*
X120286000Y-82862000D01*
X121903656Y-82862000D01*
X121903656Y-83710000D01*
X121936917Y-83886765D01*
X122041385Y-84049113D01*
X122200785Y-84158027D01*
X122390000Y-84196344D01*
X123990000Y-84196344D01*
X124166765Y-84163083D01*
X124329113Y-84058615D01*
X124438027Y-83899215D01*
X124476344Y-83710000D01*
X124476344Y-82862000D01*
X124484932Y-82862000D01*
X126283966Y-84661034D01*
X126463656Y-84781098D01*
X126463656Y-85350000D01*
X126496917Y-85526765D01*
X126601385Y-85689113D01*
X126615243Y-85698582D01*
X126610887Y-85701385D01*
X126501973Y-85860785D01*
X126463656Y-86050000D01*
X126463656Y-86652310D01*
X126367155Y-86716790D01*
X126333966Y-86738966D01*
X124918277Y-88154655D01*
X124789328Y-87961669D01*
X124406934Y-87706162D01*
X124806057Y-87474814D01*
X125157999Y-87014520D01*
X125230368Y-86839755D01*
X125126700Y-86614000D01*
X124079000Y-86614000D01*
X124079000Y-86634000D01*
X123571000Y-86634000D01*
X123571000Y-86614000D01*
X122523300Y-86614000D01*
X122419632Y-86839755D01*
X122492001Y-87014520D01*
X122843943Y-87474814D01*
X123243066Y-87706162D01*
X122860672Y-87961669D01*
X122573015Y-88392179D01*
X122472003Y-88900000D01*
X122573015Y-89407821D01*
X122860672Y-89838331D01*
X123291182Y-90125988D01*
X123512445Y-90170000D01*
X123291182Y-90214012D01*
X122860672Y-90501669D01*
X122573015Y-90932179D01*
X122472003Y-91440000D01*
X122573015Y-91947821D01*
X122860672Y-92378331D01*
X123257760Y-92643656D01*
X122975000Y-92643656D01*
X122798235Y-92676917D01*
X122635887Y-92781385D01*
X122526973Y-92940785D01*
X122488656Y-93130000D01*
X122488656Y-94830000D01*
X122521917Y-95006765D01*
X122626385Y-95169113D01*
X122785785Y-95278027D01*
X122975000Y-95316344D01*
X124675000Y-95316344D01*
X124851765Y-95283083D01*
X125014113Y-95178615D01*
X125123027Y-95019215D01*
X125161344Y-94830000D01*
X125161344Y-93130000D01*
X125128083Y-92953235D01*
X125023615Y-92790887D01*
X124864215Y-92681973D01*
X124675000Y-92643656D01*
X124392240Y-92643656D01*
X124789328Y-92378331D01*
X124980648Y-92092000D01*
X125094995Y-92092000D01*
X125095000Y-92092001D01*
X125306147Y-92050000D01*
X125344510Y-92042369D01*
X125556034Y-91901034D01*
X126463656Y-90993411D01*
X126463656Y-91350000D01*
X126496917Y-91526765D01*
X126601385Y-91689113D01*
X126615243Y-91698582D01*
X126610887Y-91701385D01*
X126501973Y-91860785D01*
X126463656Y-92050000D01*
X126463656Y-94350000D01*
X126496917Y-94526765D01*
X126601385Y-94689113D01*
X126760785Y-94798027D01*
X126950000Y-94836344D01*
X127020523Y-94836344D01*
X126045612Y-95811254D01*
X125925440Y-95860908D01*
X125706676Y-96079290D01*
X125588135Y-96364767D01*
X125587866Y-96673877D01*
X125705908Y-96959560D01*
X125924290Y-97178324D01*
X126209767Y-97296865D01*
X126518877Y-97297134D01*
X126804560Y-97179092D01*
X127023324Y-96960710D01*
X127073670Y-96839464D01*
X128464064Y-95449069D01*
X128464067Y-95449067D01*
X128621660Y-95213211D01*
X128677000Y-94935000D01*
X128677000Y-94836344D01*
X128950000Y-94836344D01*
X129126765Y-94803083D01*
X129289113Y-94698615D01*
X129398027Y-94539215D01*
X129436344Y-94350000D01*
X129436344Y-93927000D01*
X130319995Y-93927000D01*
X130320000Y-93927001D01*
X130587065Y-93873877D01*
X130598211Y-93871660D01*
X130834067Y-93714067D01*
X131324064Y-93224069D01*
X131324067Y-93224067D01*
X131481660Y-92988211D01*
X131515060Y-92820301D01*
X131537001Y-92710000D01*
X131537000Y-92709995D01*
X131537000Y-90445321D01*
X131586865Y-90325233D01*
X131587134Y-90016123D01*
X131469092Y-89730440D01*
X131250710Y-89511676D01*
X130965233Y-89393135D01*
X130656123Y-89392866D01*
X130370440Y-89510908D01*
X130151676Y-89729290D01*
X130033135Y-90014767D01*
X130032866Y-90323877D01*
X130083000Y-90445210D01*
X130083000Y-92408867D01*
X130018866Y-92473000D01*
X129436344Y-92473000D01*
X129436344Y-92050000D01*
X129403083Y-91873235D01*
X129298615Y-91710887D01*
X129284757Y-91701418D01*
X129289113Y-91698615D01*
X129398027Y-91539215D01*
X129436344Y-91350000D01*
X129436344Y-89050000D01*
X129403083Y-88873235D01*
X129298615Y-88710887D01*
X129284757Y-88701418D01*
X129289113Y-88698615D01*
X129398027Y-88539215D01*
X129436344Y-88350000D01*
X129436344Y-87852000D01*
X133284932Y-87852000D01*
X138483000Y-93050067D01*
X138483000Y-96063656D01*
X138187000Y-96063656D01*
X138187000Y-94167023D01*
X138193324Y-94160710D01*
X138311865Y-93875233D01*
X138312134Y-93566123D01*
X138194092Y-93280440D01*
X137975710Y-93061676D01*
X137690233Y-92943135D01*
X137381123Y-92942866D01*
X137095440Y-93060908D01*
X136876676Y-93279290D01*
X136758135Y-93564767D01*
X136757866Y-93873877D01*
X136875908Y-94159560D01*
X136883000Y-94166664D01*
X136883000Y-96256834D01*
X136811973Y-96360785D01*
X136773656Y-96550000D01*
X136773656Y-98038656D01*
X136737000Y-98038656D01*
X136737000Y-97985005D01*
X136737001Y-97985000D01*
X136687370Y-97735491D01*
X136667074Y-97705116D01*
X136667134Y-97636123D01*
X136549092Y-97350440D01*
X136330710Y-97131676D01*
X136045233Y-97013135D01*
X135736123Y-97012866D01*
X135450440Y-97130908D01*
X135231676Y-97349290D01*
X135113135Y-97634767D01*
X135112866Y-97943877D01*
X135161621Y-98061872D01*
X135108235Y-98071917D01*
X134945887Y-98176385D01*
X134836973Y-98335785D01*
X134798656Y-98525000D01*
X134798656Y-99075000D01*
X134823040Y-99204588D01*
X134798656Y-99325000D01*
X134798656Y-99713318D01*
X134746673Y-99765301D01*
X134650000Y-99998690D01*
X134650000Y-100103750D01*
X134808750Y-100262500D01*
X135007201Y-100262500D01*
X135095785Y-100323027D01*
X135285000Y-100361344D01*
X136885000Y-100361344D01*
X137061765Y-100328083D01*
X137163684Y-100262500D01*
X137361250Y-100262500D01*
X137520000Y-100103750D01*
X137520000Y-99998690D01*
X137423327Y-99765301D01*
X137371344Y-99713318D01*
X137371344Y-99325000D01*
X137346960Y-99195412D01*
X137371344Y-99075000D01*
X137371344Y-98636344D01*
X137810000Y-98636344D01*
X137819677Y-98634523D01*
X137827631Y-98674510D01*
X137931001Y-98829215D01*
X137968966Y-98886034D01*
X138922874Y-99839941D01*
X138922866Y-99848877D01*
X139040908Y-100134560D01*
X139259290Y-100353324D01*
X139544767Y-100471865D01*
X139853877Y-100472134D01*
X140139560Y-100354092D01*
X140358324Y-100135710D01*
X140476865Y-99850233D01*
X140477134Y-99541123D01*
X140359092Y-99255440D01*
X140140710Y-99036676D01*
X139855233Y-98918135D01*
X139845194Y-98918126D01*
X139539116Y-98612049D01*
X139539588Y-98611960D01*
X139660000Y-98636344D01*
X140210000Y-98636344D01*
X140339588Y-98611960D01*
X140460000Y-98636344D01*
X141010000Y-98636344D01*
X141139588Y-98611960D01*
X141260000Y-98636344D01*
X141810000Y-98636344D01*
X141939588Y-98611960D01*
X142060000Y-98636344D01*
X142610000Y-98636344D01*
X142739588Y-98611960D01*
X142860000Y-98636344D01*
X143298656Y-98636344D01*
X143298656Y-99075000D01*
X143323040Y-99204588D01*
X143298656Y-99325000D01*
X143298656Y-99875000D01*
X143323040Y-100004588D01*
X143298656Y-100125000D01*
X143298656Y-100513318D01*
X143246673Y-100565301D01*
X143150000Y-100798690D01*
X143150000Y-100903750D01*
X143308750Y-101062500D01*
X143507201Y-101062500D01*
X143595785Y-101123027D01*
X143785000Y-101161344D01*
X145385000Y-101161344D01*
X145561765Y-101128083D01*
X145663684Y-101062500D01*
X145861250Y-101062500D01*
X146020000Y-100903750D01*
X146020000Y-100798690D01*
X145923327Y-100565301D01*
X145871344Y-100513318D01*
X145871344Y-100125000D01*
X145846960Y-99995412D01*
X145871344Y-99875000D01*
X145871344Y-99325000D01*
X145846960Y-99195412D01*
X145868591Y-99088595D01*
X146055000Y-99126344D01*
X146955000Y-99126344D01*
X147131765Y-99093083D01*
X147294113Y-98988615D01*
X147403027Y-98829215D01*
X147441344Y-98640000D01*
X147441344Y-96940000D01*
X147408083Y-96763235D01*
X147303615Y-96600887D01*
X147144215Y-96491973D01*
X146955000Y-96453656D01*
X146055000Y-96453656D01*
X145878235Y-96486917D01*
X145858588Y-96499559D01*
X145855710Y-96496676D01*
X145570233Y-96378135D01*
X145261123Y-96377866D01*
X144975440Y-96495908D01*
X144756676Y-96714290D01*
X144638135Y-96999767D01*
X144637866Y-97308877D01*
X144755908Y-97594560D01*
X144788000Y-97626708D01*
X144788000Y-97790000D01*
X144835728Y-98029943D01*
X144841550Y-98038656D01*
X143896344Y-98038656D01*
X143896344Y-96550000D01*
X143863083Y-96373235D01*
X143787000Y-96254999D01*
X143787000Y-95895068D01*
X144289941Y-95392126D01*
X144298877Y-95392134D01*
X144584560Y-95274092D01*
X144803324Y-95055710D01*
X144921865Y-94770233D01*
X144922134Y-94461123D01*
X144804092Y-94175440D01*
X144585710Y-93956676D01*
X144300233Y-93838135D01*
X143991123Y-93837866D01*
X143705440Y-93955908D01*
X143486676Y-94174290D01*
X143368135Y-94459767D01*
X143368126Y-94469806D01*
X142987000Y-94850932D01*
X142987000Y-92863877D01*
X144002866Y-92863877D01*
X144120908Y-93149560D01*
X144339290Y-93368324D01*
X144624767Y-93486865D01*
X144634806Y-93486874D01*
X144953964Y-93806031D01*
X144953966Y-93806034D01*
X145095302Y-93900471D01*
X145165491Y-93947370D01*
X145415000Y-93997001D01*
X145415005Y-93997000D01*
X145963656Y-93997000D01*
X145963656Y-94350000D01*
X145996917Y-94526765D01*
X146101385Y-94689113D01*
X146260785Y-94798027D01*
X146450000Y-94836344D01*
X148450000Y-94836344D01*
X148626765Y-94803083D01*
X148789113Y-94698615D01*
X148898027Y-94539215D01*
X148936344Y-94350000D01*
X148936344Y-92050000D01*
X148903083Y-91873235D01*
X148798615Y-91710887D01*
X148784757Y-91701418D01*
X148789113Y-91698615D01*
X148898027Y-91539215D01*
X148936344Y-91350000D01*
X148936344Y-89050000D01*
X148903083Y-88873235D01*
X148798615Y-88710887D01*
X148784757Y-88701418D01*
X148789113Y-88698615D01*
X148898027Y-88539215D01*
X148936344Y-88350000D01*
X148936344Y-86050000D01*
X148903083Y-85873235D01*
X148798615Y-85710887D01*
X148784757Y-85701418D01*
X148789113Y-85698615D01*
X148898027Y-85539215D01*
X148936344Y-85350000D01*
X148936344Y-84562308D01*
X151422727Y-84562308D01*
X151662305Y-85142132D01*
X152105535Y-85586136D01*
X152684939Y-85826725D01*
X153312308Y-85827273D01*
X153892132Y-85587695D01*
X154336136Y-85144465D01*
X154576725Y-84565061D01*
X154577273Y-83937692D01*
X154337695Y-83357868D01*
X153894465Y-82913864D01*
X153315061Y-82673275D01*
X152687692Y-82672727D01*
X152107868Y-82912305D01*
X151663864Y-83355535D01*
X151423275Y-83934939D01*
X151422727Y-84562308D01*
X148936344Y-84562308D01*
X148936344Y-83050000D01*
X148903083Y-82873235D01*
X148798615Y-82710887D01*
X148784757Y-82701418D01*
X148789113Y-82698615D01*
X148898027Y-82539215D01*
X148936344Y-82350000D01*
X148936344Y-80050000D01*
X148903083Y-79873235D01*
X148872429Y-79825597D01*
X148988327Y-79709699D01*
X149085000Y-79476310D01*
X149085000Y-78612750D01*
X148926250Y-78454000D01*
X147704000Y-78454000D01*
X147704000Y-78474000D01*
X147196000Y-78474000D01*
X147196000Y-78454000D01*
X145973750Y-78454000D01*
X145815000Y-78612750D01*
X145815000Y-79476310D01*
X145911673Y-79709699D01*
X146026648Y-79824673D01*
X146001973Y-79860785D01*
X145963656Y-80050000D01*
X145963656Y-82350000D01*
X145996917Y-82526765D01*
X146101385Y-82689113D01*
X146115243Y-82698582D01*
X146110887Y-82701385D01*
X146001973Y-82860785D01*
X145963656Y-83050000D01*
X145963656Y-85350000D01*
X145996917Y-85526765D01*
X146101385Y-85689113D01*
X146115243Y-85698582D01*
X146110887Y-85701385D01*
X146001973Y-85860785D01*
X145963656Y-86050000D01*
X145963656Y-88350000D01*
X145996917Y-88526765D01*
X146101385Y-88689113D01*
X146115243Y-88698582D01*
X146110887Y-88701385D01*
X146001973Y-88860785D01*
X145963656Y-89050000D01*
X145963656Y-89518000D01*
X145862023Y-89518000D01*
X145855710Y-89511676D01*
X145570233Y-89393135D01*
X145261123Y-89392866D01*
X144975440Y-89510908D01*
X144756676Y-89729290D01*
X144638135Y-90014767D01*
X144637866Y-90323877D01*
X144755908Y-90609560D01*
X144974290Y-90828324D01*
X145259767Y-90946865D01*
X145568877Y-90947134D01*
X145854560Y-90829092D01*
X145861664Y-90822000D01*
X145963656Y-90822000D01*
X145963656Y-91350000D01*
X145996917Y-91526765D01*
X146101385Y-91689113D01*
X146115243Y-91698582D01*
X146110887Y-91701385D01*
X146001973Y-91860785D01*
X145963656Y-92050000D01*
X145963656Y-92693000D01*
X145685067Y-92693000D01*
X145557126Y-92565059D01*
X145557134Y-92556123D01*
X145439092Y-92270440D01*
X145220710Y-92051676D01*
X144935233Y-91933135D01*
X144626123Y-91932866D01*
X144340440Y-92050908D01*
X144121676Y-92269290D01*
X144003135Y-92554767D01*
X144002866Y-92863877D01*
X142987000Y-92863877D01*
X142987000Y-89710068D01*
X144289941Y-88407126D01*
X144298877Y-88407134D01*
X144584560Y-88289092D01*
X144803324Y-88070710D01*
X144921865Y-87785233D01*
X144922134Y-87476123D01*
X144804092Y-87190440D01*
X144585710Y-86971676D01*
X144300233Y-86853135D01*
X143991123Y-86852866D01*
X143705440Y-86970908D01*
X143486676Y-87189290D01*
X143368135Y-87474767D01*
X143368126Y-87484807D01*
X141873966Y-88978966D01*
X141732631Y-89190490D01*
X141732631Y-89190491D01*
X141682999Y-89440000D01*
X141683000Y-89440005D01*
X141683000Y-96063656D01*
X141260000Y-96063656D01*
X141130412Y-96088040D01*
X141094992Y-96080867D01*
X141111865Y-96040233D01*
X141112134Y-95731123D01*
X140994092Y-95445440D01*
X140775710Y-95226676D01*
X140490233Y-95108135D01*
X140181123Y-95107866D01*
X139895440Y-95225908D01*
X139787000Y-95334159D01*
X139787000Y-92780005D01*
X139787001Y-92780000D01*
X139737370Y-92530491D01*
X139690471Y-92460302D01*
X139596034Y-92318966D01*
X139596031Y-92318964D01*
X134016034Y-86738966D01*
X133982845Y-86716790D01*
X133804510Y-86597631D01*
X133763113Y-86589396D01*
X133555000Y-86547999D01*
X133554995Y-86548000D01*
X129436344Y-86548000D01*
X129436344Y-86050000D01*
X129403083Y-85873235D01*
X129298615Y-85710887D01*
X129284757Y-85701418D01*
X129289113Y-85698615D01*
X129398027Y-85539215D01*
X129436344Y-85350000D01*
X129436344Y-83050000D01*
X129403083Y-82873235D01*
X129372429Y-82825597D01*
X129488327Y-82709699D01*
X129585000Y-82476310D01*
X129585000Y-81612750D01*
X129426250Y-81454000D01*
X128204000Y-81454000D01*
X128204000Y-81474000D01*
X127696000Y-81474000D01*
X127696000Y-81454000D01*
X126473750Y-81454000D01*
X126315000Y-81612750D01*
X126315000Y-82476310D01*
X126411673Y-82709699D01*
X126526648Y-82824673D01*
X126501973Y-82860785D01*
X126472651Y-83005583D01*
X125216034Y-81748966D01*
X125004510Y-81607631D01*
X124963113Y-81599396D01*
X124755000Y-81557999D01*
X124754995Y-81558000D01*
X124476344Y-81558000D01*
X124476344Y-80710000D01*
X124443083Y-80533235D01*
X124338615Y-80370887D01*
X124179215Y-80261973D01*
X123990000Y-80223656D01*
X122390000Y-80223656D01*
X122213235Y-80256917D01*
X122050887Y-80361385D01*
X121941973Y-80520785D01*
X121903656Y-80710000D01*
X121903656Y-81558000D01*
X117815000Y-81558000D01*
X117565490Y-81607631D01*
X117353966Y-81748966D01*
X117353964Y-81748969D01*
X116969276Y-82133656D01*
X116909000Y-82133656D01*
X116732235Y-82166917D01*
X116569887Y-82271385D01*
X116524636Y-82337611D01*
X116368699Y-82181673D01*
X116135310Y-82085000D01*
X116017750Y-82085000D01*
X115859000Y-82243750D01*
X115559000Y-82243750D01*
X115400250Y-82085000D01*
X115282690Y-82085000D01*
X115049301Y-82181673D01*
X114870673Y-82360302D01*
X114774000Y-82593691D01*
X112502000Y-82593691D01*
X112502000Y-78222750D01*
X121755000Y-78222750D01*
X121755000Y-79436309D01*
X121851673Y-79669698D01*
X122030301Y-79848327D01*
X122263690Y-79945000D01*
X122777250Y-79945000D01*
X122936000Y-79786250D01*
X122936000Y-78064000D01*
X123444000Y-78064000D01*
X123444000Y-79786250D01*
X123602750Y-79945000D01*
X124116310Y-79945000D01*
X124167756Y-79923690D01*
X126315000Y-79923690D01*
X126315000Y-80787250D01*
X126473750Y-80946000D01*
X127696000Y-80946000D01*
X127696000Y-80926000D01*
X128204000Y-80926000D01*
X128204000Y-80946000D01*
X129426250Y-80946000D01*
X129585000Y-80787250D01*
X129585000Y-79923690D01*
X129488327Y-79690301D01*
X129373352Y-79575327D01*
X129398027Y-79539215D01*
X129436344Y-79350000D01*
X129436344Y-78927000D01*
X129968866Y-78927000D01*
X130083000Y-79041133D01*
X130083000Y-84179679D01*
X130033135Y-84299767D01*
X130032866Y-84608877D01*
X130150908Y-84894560D01*
X130369290Y-85113324D01*
X130654767Y-85231865D01*
X130963877Y-85232134D01*
X131062160Y-85191524D01*
X136572657Y-85191524D01*
X136873003Y-85918418D01*
X137428657Y-86475042D01*
X138155025Y-86776656D01*
X138941524Y-86777343D01*
X139668418Y-86476997D01*
X140225042Y-85921343D01*
X140526656Y-85194975D01*
X140527343Y-84408476D01*
X140226997Y-83681582D01*
X139671343Y-83124958D01*
X138944975Y-82823344D01*
X138158476Y-82822657D01*
X137431582Y-83123003D01*
X136874958Y-83678657D01*
X136573344Y-84405025D01*
X136572657Y-85191524D01*
X131062160Y-85191524D01*
X131249560Y-85114092D01*
X131468324Y-84895710D01*
X131586865Y-84610233D01*
X131587134Y-84301123D01*
X131537000Y-84179790D01*
X131537000Y-78740000D01*
X131481660Y-78461789D01*
X131324067Y-78225933D01*
X131324064Y-78225931D01*
X130784067Y-77685933D01*
X130548211Y-77528340D01*
X130502052Y-77519158D01*
X130270000Y-77472999D01*
X130269995Y-77473000D01*
X129436344Y-77473000D01*
X129436344Y-77050000D01*
X129412577Y-76923690D01*
X145815000Y-76923690D01*
X145815000Y-77787250D01*
X145973750Y-77946000D01*
X147196000Y-77946000D01*
X147196000Y-76573750D01*
X147704000Y-76573750D01*
X147704000Y-77946000D01*
X148926250Y-77946000D01*
X149085000Y-77787250D01*
X149085000Y-76923690D01*
X148988327Y-76690301D01*
X148809698Y-76511673D01*
X148576309Y-76415000D01*
X147862750Y-76415000D01*
X147704000Y-76573750D01*
X147196000Y-76573750D01*
X147037250Y-76415000D01*
X146323691Y-76415000D01*
X146090302Y-76511673D01*
X145911673Y-76690301D01*
X145815000Y-76923690D01*
X129412577Y-76923690D01*
X129403083Y-76873235D01*
X129298615Y-76710887D01*
X129139215Y-76601973D01*
X128950000Y-76563656D01*
X126950000Y-76563656D01*
X126773235Y-76596917D01*
X126610887Y-76701385D01*
X126501973Y-76860785D01*
X126463656Y-77050000D01*
X126463656Y-78096156D01*
X126443000Y-78200000D01*
X126463656Y-78303844D01*
X126463656Y-79350000D01*
X126496917Y-79526765D01*
X126527571Y-79574403D01*
X126411673Y-79690301D01*
X126315000Y-79923690D01*
X124167756Y-79923690D01*
X124349699Y-79848327D01*
X124528327Y-79669698D01*
X124625000Y-79436309D01*
X124625000Y-78222750D01*
X124466250Y-78064000D01*
X123444000Y-78064000D01*
X122936000Y-78064000D01*
X121913750Y-78064000D01*
X121755000Y-78222750D01*
X112502000Y-78222750D01*
X112502000Y-76183691D01*
X121755000Y-76183691D01*
X121755000Y-77397250D01*
X121913750Y-77556000D01*
X122936000Y-77556000D01*
X122936000Y-75833750D01*
X123444000Y-75833750D01*
X123444000Y-77556000D01*
X124466250Y-77556000D01*
X124625000Y-77397250D01*
X124625000Y-76183691D01*
X124528327Y-75950302D01*
X124349699Y-75771673D01*
X124116310Y-75675000D01*
X123602750Y-75675000D01*
X123444000Y-75833750D01*
X122936000Y-75833750D01*
X122777250Y-75675000D01*
X122263690Y-75675000D01*
X122030301Y-75771673D01*
X121851673Y-75950302D01*
X121755000Y-76183691D01*
X112502000Y-76183691D01*
X112502000Y-75502000D01*
X149998000Y-75502000D01*
X149998000Y-77500000D01*
X149998000Y-77500000D01*
G37*
X149998000Y-77500000D02*
X150007646Y-77548493D01*
X150007646Y-77597935D01*
X150197946Y-78554639D01*
X150197946Y-78554645D01*
X150272903Y-78735605D01*
X150814834Y-79546661D01*
X150814835Y-79546664D01*
X150884086Y-79615914D01*
X150953336Y-79685165D01*
X150953339Y-79685166D01*
X151764394Y-80227096D01*
X151764395Y-80227097D01*
X151848594Y-80261973D01*
X151945355Y-80302053D01*
X151945356Y-80302053D01*
X152902065Y-80492354D01*
X152951507Y-80492354D01*
X153000000Y-80502000D01*
X154998000Y-80502000D01*
X154998000Y-96774364D01*
X154938327Y-96630301D01*
X154759698Y-96451673D01*
X154664084Y-96412068D01*
X154748027Y-96289215D01*
X154786344Y-96100000D01*
X154786344Y-94400000D01*
X154753083Y-94223235D01*
X154648615Y-94060887D01*
X154502000Y-93960709D01*
X154502000Y-90985000D01*
X154452369Y-90735490D01*
X154311034Y-90523966D01*
X153496034Y-89708966D01*
X153461562Y-89685933D01*
X153284510Y-89567631D01*
X153243113Y-89559396D01*
X153035000Y-89517999D01*
X153034995Y-89518000D01*
X152985515Y-89518000D01*
X152933044Y-89391011D01*
X152546026Y-89003317D01*
X152297224Y-88900005D01*
X152543989Y-88798044D01*
X152931683Y-88411026D01*
X153141760Y-87905104D01*
X153142238Y-87357299D01*
X152933044Y-86851011D01*
X152546026Y-86463317D01*
X152040104Y-86253240D01*
X151492299Y-86252762D01*
X150986011Y-86461956D01*
X150598317Y-86848974D01*
X150388240Y-87354896D01*
X150387762Y-87902701D01*
X150596956Y-88408989D01*
X150983974Y-88796683D01*
X151232776Y-88899995D01*
X150986011Y-89001956D01*
X150598317Y-89388974D01*
X150388240Y-89894896D01*
X150387762Y-90442701D01*
X150596956Y-90948989D01*
X150970970Y-91323656D01*
X150865000Y-91323656D01*
X150688235Y-91356917D01*
X150525887Y-91461385D01*
X150416973Y-91620785D01*
X150378656Y-91810000D01*
X150378656Y-93610000D01*
X150407822Y-93765000D01*
X150373691Y-93765000D01*
X150140302Y-93861673D01*
X149961673Y-94040301D01*
X149865000Y-94273690D01*
X149865000Y-94837250D01*
X150023750Y-94996000D01*
X150725000Y-94996000D01*
X150725000Y-94976000D01*
X151175000Y-94976000D01*
X151175000Y-94996000D01*
X151876250Y-94996000D01*
X152035000Y-94837250D01*
X152035000Y-94273690D01*
X151961541Y-94096344D01*
X152665000Y-94096344D01*
X152841765Y-94063083D01*
X153004113Y-93958615D01*
X153113027Y-93799215D01*
X153151344Y-93610000D01*
X153151344Y-91810000D01*
X153118083Y-91633235D01*
X153013615Y-91470887D01*
X152854215Y-91361973D01*
X152665000Y-91323656D01*
X152558402Y-91323656D01*
X152912804Y-90969872D01*
X153198000Y-91255068D01*
X153198000Y-93963155D01*
X153060887Y-94051385D01*
X152951973Y-94210785D01*
X152913656Y-94400000D01*
X152913656Y-96100000D01*
X152946917Y-96276765D01*
X153051385Y-96439113D01*
X153058646Y-96444075D01*
X153040302Y-96451673D01*
X152861673Y-96630301D01*
X152765000Y-96863690D01*
X152765000Y-97377250D01*
X152923750Y-97536000D01*
X153650000Y-97536000D01*
X153650000Y-97516000D01*
X154150000Y-97516000D01*
X154150000Y-97536000D01*
X154174000Y-97536000D01*
X154174000Y-98044000D01*
X154150000Y-98044000D01*
X154150000Y-99066250D01*
X154308750Y-99225000D01*
X154526309Y-99225000D01*
X154759698Y-99128327D01*
X154938327Y-98949699D01*
X154998000Y-98805636D01*
X154998000Y-117998000D01*
X117502000Y-117998000D01*
X117502000Y-116161590D01*
X117515430Y-116161590D01*
X117515430Y-117124829D01*
X117612103Y-117358218D01*
X117790731Y-117536847D01*
X118024120Y-117633520D01*
X118737170Y-117633520D01*
X118895920Y-117474770D01*
X118895920Y-116002840D01*
X119403920Y-116002840D01*
X119403920Y-117474770D01*
X119562670Y-117633520D01*
X120275720Y-117633520D01*
X120509109Y-117536847D01*
X120687737Y-117358218D01*
X120784410Y-117124829D01*
X120784410Y-116161590D01*
X126415590Y-116161590D01*
X126415590Y-117124829D01*
X126512263Y-117358218D01*
X126690891Y-117536847D01*
X126924280Y-117633520D01*
X127637330Y-117633520D01*
X127796080Y-117474770D01*
X127796080Y-116002840D01*
X128304080Y-116002840D01*
X128304080Y-117474770D01*
X128462830Y-117633520D01*
X129175880Y-117633520D01*
X129409269Y-117536847D01*
X129587897Y-117358218D01*
X129684570Y-117124829D01*
X129684570Y-116161590D01*
X129525820Y-116002840D01*
X128304080Y-116002840D01*
X127796080Y-116002840D01*
X126574340Y-116002840D01*
X126415590Y-116161590D01*
X120784410Y-116161590D01*
X120625660Y-116002840D01*
X119403920Y-116002840D01*
X118895920Y-116002840D01*
X117674180Y-116002840D01*
X117515430Y-116161590D01*
X117502000Y-116161590D01*
X117502000Y-116000000D01*
X117492354Y-115951507D01*
X117492354Y-115902065D01*
X117302053Y-114945356D01*
X117297764Y-114935000D01*
X117253344Y-114827762D01*
X117227097Y-114764395D01*
X117227096Y-114764394D01*
X116965476Y-114372851D01*
X117515430Y-114372851D01*
X117515430Y-115336090D01*
X117674180Y-115494840D01*
X118895920Y-115494840D01*
X118895920Y-114022910D01*
X119403920Y-114022910D01*
X119403920Y-115494840D01*
X120625660Y-115494840D01*
X120784410Y-115336090D01*
X120784410Y-114372851D01*
X126415590Y-114372851D01*
X126415590Y-115336090D01*
X126574340Y-115494840D01*
X127796080Y-115494840D01*
X127796080Y-114022910D01*
X128304080Y-114022910D01*
X128304080Y-115494840D01*
X129525820Y-115494840D01*
X129684570Y-115336090D01*
X129684570Y-114372851D01*
X129587897Y-114139462D01*
X129409269Y-113960833D01*
X129175880Y-113864160D01*
X128462830Y-113864160D01*
X128304080Y-114022910D01*
X127796080Y-114022910D01*
X127637330Y-113864160D01*
X126924280Y-113864160D01*
X126690891Y-113960833D01*
X126512263Y-114139462D01*
X126415590Y-114372851D01*
X120784410Y-114372851D01*
X120687737Y-114139462D01*
X120509109Y-113960833D01*
X120275720Y-113864160D01*
X119562670Y-113864160D01*
X119403920Y-114022910D01*
X118895920Y-114022910D01*
X118737170Y-113864160D01*
X118024120Y-113864160D01*
X117790731Y-113960833D01*
X117612103Y-114139462D01*
X117515430Y-114372851D01*
X116965476Y-114372851D01*
X116685165Y-113953337D01*
X116685165Y-113953336D01*
X116615914Y-113884086D01*
X116546664Y-113814835D01*
X116546661Y-113814834D01*
X115735605Y-113272903D01*
X115554645Y-113197946D01*
X115554639Y-113197946D01*
X114597935Y-113007646D01*
X114548493Y-113007646D01*
X114500000Y-112998000D01*
X112502000Y-112998000D01*
X112502000Y-112932600D01*
X120473619Y-112932600D01*
X120614385Y-113273280D01*
X120874809Y-113534158D01*
X121215243Y-113675519D01*
X121583860Y-113675841D01*
X121924540Y-113535075D01*
X122185418Y-113274651D01*
X122326779Y-112934217D01*
X122326780Y-112932600D01*
X124872899Y-112932600D01*
X125013665Y-113273280D01*
X125274089Y-113534158D01*
X125614523Y-113675519D01*
X125983140Y-113675841D01*
X126323820Y-113535075D01*
X126584698Y-113274651D01*
X126726059Y-112934217D01*
X126726381Y-112565600D01*
X126585615Y-112224920D01*
X126325191Y-111964042D01*
X125984757Y-111822681D01*
X125827173Y-111822543D01*
X125988717Y-111660998D01*
X126085390Y-111427609D01*
X126085390Y-110662490D01*
X126415590Y-110662490D01*
X126415590Y-111625729D01*
X126512263Y-111859118D01*
X126690891Y-112037747D01*
X126924280Y-112134420D01*
X127637330Y-112134420D01*
X127796080Y-111975670D01*
X127796080Y-110503740D01*
X128304080Y-110503740D01*
X128304080Y-111975670D01*
X128462830Y-112134420D01*
X129175880Y-112134420D01*
X129409269Y-112037747D01*
X129587897Y-111859118D01*
X129684570Y-111625729D01*
X129684570Y-110662490D01*
X129525820Y-110503740D01*
X128304080Y-110503740D01*
X127796080Y-110503740D01*
X126574340Y-110503740D01*
X126415590Y-110662490D01*
X126085390Y-110662490D01*
X126085390Y-110563430D01*
X125926640Y-110404680D01*
X125325295Y-110404680D01*
X125325295Y-111777550D01*
X125442040Y-111894295D01*
X125275460Y-111963125D01*
X125014582Y-112223549D01*
X124873221Y-112563983D01*
X124872899Y-112932600D01*
X122326780Y-112932600D01*
X122327101Y-112565600D01*
X122186335Y-112224920D01*
X121925911Y-111964042D01*
X121585477Y-111822681D01*
X121216860Y-111822359D01*
X120876180Y-111963125D01*
X120615302Y-112223549D01*
X120473941Y-112563983D01*
X120473619Y-112932600D01*
X112502000Y-112932600D01*
X112502000Y-109562308D01*
X112922727Y-109562308D01*
X113162305Y-110142132D01*
X113605535Y-110586136D01*
X114184939Y-110826725D01*
X114812308Y-110827273D01*
X115211113Y-110662490D01*
X117515430Y-110662490D01*
X117515430Y-111625729D01*
X117612103Y-111859118D01*
X117790731Y-112037747D01*
X118024120Y-112134420D01*
X118737170Y-112134420D01*
X118895920Y-111975670D01*
X118895920Y-110503740D01*
X119403920Y-110503740D01*
X119403920Y-111975670D01*
X119562670Y-112134420D01*
X120275720Y-112134420D01*
X120509109Y-112037747D01*
X120687737Y-111859118D01*
X120784410Y-111625729D01*
X120784410Y-110662490D01*
X120625660Y-110503740D01*
X119403920Y-110503740D01*
X118895920Y-110503740D01*
X117674180Y-110503740D01*
X117515430Y-110662490D01*
X115211113Y-110662490D01*
X115392132Y-110587695D01*
X115836136Y-110144465D01*
X116076725Y-109565061D01*
X116077273Y-108937692D01*
X116050854Y-108873751D01*
X117515430Y-108873751D01*
X117515430Y-109836990D01*
X117674180Y-109995740D01*
X118895920Y-109995740D01*
X118895920Y-108523810D01*
X119403920Y-108523810D01*
X119403920Y-109995740D01*
X120625660Y-109995740D01*
X120784410Y-109836990D01*
X120784410Y-108873751D01*
X120687737Y-108640362D01*
X120509109Y-108461733D01*
X120275720Y-108365060D01*
X119562670Y-108365060D01*
X119403920Y-108523810D01*
X118895920Y-108523810D01*
X118737170Y-108365060D01*
X118024120Y-108365060D01*
X117790731Y-108461733D01*
X117612103Y-108640362D01*
X117515430Y-108873751D01*
X116050854Y-108873751D01*
X115837695Y-108357868D01*
X115394465Y-107913864D01*
X114815061Y-107673275D01*
X114187692Y-107672727D01*
X113607868Y-107912305D01*
X113163864Y-108355535D01*
X112923275Y-108934939D01*
X112922727Y-109562308D01*
X112502000Y-109562308D01*
X112502000Y-104619755D01*
X112894632Y-104619755D01*
X112967001Y-104794520D01*
X113318943Y-105254814D01*
X113820242Y-105545388D01*
X114046000Y-105444386D01*
X114046000Y-104394000D01*
X114554000Y-104394000D01*
X114554000Y-105444386D01*
X114779758Y-105545388D01*
X115281057Y-105254814D01*
X115632999Y-104794520D01*
X115705368Y-104619755D01*
X115601700Y-104394000D01*
X114554000Y-104394000D01*
X114046000Y-104394000D01*
X112998300Y-104394000D01*
X112894632Y-104619755D01*
X112502000Y-104619755D01*
X112502000Y-103660245D01*
X112894632Y-103660245D01*
X112998300Y-103886000D01*
X114046000Y-103886000D01*
X114046000Y-103866000D01*
X114554000Y-103866000D01*
X114554000Y-103886000D01*
X115601700Y-103886000D01*
X115705368Y-103660245D01*
X115632999Y-103485480D01*
X115281057Y-103025186D01*
X115127787Y-102936344D01*
X115150000Y-102936344D01*
X115326765Y-102903083D01*
X115489113Y-102798615D01*
X115598027Y-102639215D01*
X115636344Y-102450000D01*
X115636344Y-102012750D01*
X116745000Y-102012750D01*
X116745000Y-102526310D01*
X116841673Y-102759699D01*
X116951975Y-102870000D01*
X116841673Y-102980301D01*
X116745000Y-103213690D01*
X116745000Y-103727250D01*
X116903750Y-103886000D01*
X117630000Y-103886000D01*
X117630000Y-101854000D01*
X116903750Y-101854000D01*
X116745000Y-102012750D01*
X115636344Y-102012750D01*
X115636344Y-100750000D01*
X115603083Y-100573235D01*
X115498615Y-100410887D01*
X115349282Y-100308852D01*
X115556134Y-100102000D01*
X117493423Y-100102000D01*
X117560785Y-100148027D01*
X117644600Y-100165000D01*
X117625998Y-100165000D01*
X117625998Y-100319748D01*
X117471250Y-100165000D01*
X117253691Y-100165000D01*
X117020302Y-100261673D01*
X116841673Y-100440301D01*
X116745000Y-100673690D01*
X116745000Y-101187250D01*
X116903750Y-101346000D01*
X117630000Y-101346000D01*
X117630000Y-101326000D01*
X118130000Y-101326000D01*
X118130000Y-101346000D01*
X118154000Y-101346000D01*
X118154000Y-101854000D01*
X118130000Y-101854000D01*
X118130000Y-103886000D01*
X118154000Y-103886000D01*
X118154000Y-104394000D01*
X118130000Y-104394000D01*
X118130000Y-104414000D01*
X117630000Y-104414000D01*
X117630000Y-104394000D01*
X116903750Y-104394000D01*
X116745000Y-104552750D01*
X116745000Y-105066310D01*
X116804510Y-105209979D01*
X116792775Y-105212187D01*
X116630427Y-105316655D01*
X116521513Y-105476055D01*
X116483196Y-105665270D01*
X116483196Y-107694730D01*
X116516457Y-107871495D01*
X116620925Y-108033843D01*
X116780325Y-108142757D01*
X116969540Y-108181074D01*
X118620540Y-108181074D01*
X118797305Y-108147813D01*
X118959653Y-108043345D01*
X119068567Y-107883945D01*
X119106884Y-107694730D01*
X119106884Y-107295752D01*
X119259067Y-107194067D01*
X119653116Y-106800017D01*
X119653116Y-107694730D01*
X119686377Y-107871495D01*
X119790845Y-108033843D01*
X119950245Y-108142757D01*
X120139460Y-108181074D01*
X120487940Y-108181074D01*
X121270619Y-108963752D01*
X121263266Y-109000060D01*
X121263266Y-111301300D01*
X121296527Y-111478065D01*
X121400995Y-111640413D01*
X121560395Y-111749327D01*
X121749610Y-111787644D01*
X122249990Y-111787644D01*
X122405351Y-111758411D01*
X122549710Y-111787644D01*
X123050090Y-111787644D01*
X123205451Y-111758411D01*
X123349810Y-111787644D01*
X123850190Y-111787644D01*
X124005551Y-111758411D01*
X124149910Y-111787644D01*
X124538328Y-111787644D01*
X124590311Y-111839627D01*
X124823700Y-111936300D01*
X124916355Y-111936300D01*
X125075105Y-111777550D01*
X125075105Y-111524487D01*
X125098317Y-111490515D01*
X125136634Y-111301300D01*
X125136634Y-109000060D01*
X125103373Y-108823295D01*
X125075105Y-108779365D01*
X125075105Y-108523810D01*
X125325295Y-108523810D01*
X125325295Y-109896680D01*
X125926640Y-109896680D01*
X126085390Y-109737930D01*
X126085390Y-108873751D01*
X126415590Y-108873751D01*
X126415590Y-109836990D01*
X126574340Y-109995740D01*
X127796080Y-109995740D01*
X127796080Y-108523810D01*
X128304080Y-108523810D01*
X128304080Y-109995740D01*
X129525820Y-109995740D01*
X129684570Y-109836990D01*
X129684570Y-108873751D01*
X129587897Y-108640362D01*
X129409269Y-108461733D01*
X129175880Y-108365060D01*
X128462830Y-108365060D01*
X128304080Y-108523810D01*
X127796080Y-108523810D01*
X127637330Y-108365060D01*
X126924280Y-108365060D01*
X126690891Y-108461733D01*
X126512263Y-108640362D01*
X126415590Y-108873751D01*
X126085390Y-108873751D01*
X125988717Y-108640362D01*
X125810089Y-108461733D01*
X125576700Y-108365060D01*
X125484045Y-108365060D01*
X125325295Y-108523810D01*
X125075105Y-108523810D01*
X124916355Y-108365060D01*
X124823700Y-108365060D01*
X124590311Y-108461733D01*
X124538328Y-108513716D01*
X124149910Y-108513716D01*
X123994549Y-108542949D01*
X123850190Y-108513716D01*
X123349810Y-108513716D01*
X123194449Y-108542949D01*
X123050090Y-108513716D01*
X122696748Y-108513716D01*
X122673339Y-108396034D01*
X122671460Y-108386589D01*
X122513867Y-108150733D01*
X122513864Y-108150731D01*
X122239934Y-107876801D01*
X122276804Y-107694730D01*
X122276804Y-106352750D01*
X123025000Y-106352750D01*
X123025000Y-107366309D01*
X123121673Y-107599698D01*
X123300301Y-107778327D01*
X123533690Y-107875000D01*
X124047250Y-107875000D01*
X124206000Y-107716250D01*
X124206000Y-106194000D01*
X124714000Y-106194000D01*
X124714000Y-107716250D01*
X124872750Y-107875000D01*
X125386310Y-107875000D01*
X125619699Y-107778327D01*
X125798327Y-107599698D01*
X125895000Y-107366309D01*
X125895000Y-107318750D01*
X126835000Y-107318750D01*
X126835000Y-107536309D01*
X126931673Y-107769698D01*
X127110301Y-107948327D01*
X127343690Y-108045000D01*
X127857250Y-108045000D01*
X128016000Y-107886250D01*
X128016000Y-107160000D01*
X128524000Y-107160000D01*
X128524000Y-107886250D01*
X128682750Y-108045000D01*
X129196310Y-108045000D01*
X129429699Y-107948327D01*
X129608327Y-107769698D01*
X129705000Y-107536309D01*
X129705000Y-107318750D01*
X129546250Y-107160000D01*
X128524000Y-107160000D01*
X128016000Y-107160000D01*
X126993750Y-107160000D01*
X126835000Y-107318750D01*
X125895000Y-107318750D01*
X125895000Y-106352750D01*
X125825941Y-106283691D01*
X126835000Y-106283691D01*
X126835000Y-106501250D01*
X126993750Y-106660000D01*
X128016000Y-106660000D01*
X128016000Y-105933750D01*
X128524000Y-105933750D01*
X128524000Y-106660000D01*
X129546250Y-106660000D01*
X129705000Y-106501250D01*
X129705000Y-106283691D01*
X129608327Y-106050302D01*
X129429699Y-105871673D01*
X129196310Y-105775000D01*
X128682750Y-105775000D01*
X128524000Y-105933750D01*
X128016000Y-105933750D01*
X127857250Y-105775000D01*
X127343690Y-105775000D01*
X127110301Y-105871673D01*
X126931673Y-106050302D01*
X126835000Y-106283691D01*
X125825941Y-106283691D01*
X125736250Y-106194000D01*
X124714000Y-106194000D01*
X124206000Y-106194000D01*
X123183750Y-106194000D01*
X123025000Y-106352750D01*
X122276804Y-106352750D01*
X122276804Y-105665270D01*
X122243543Y-105488505D01*
X122139075Y-105326157D01*
X121979675Y-105217243D01*
X121793623Y-105179567D01*
X121828027Y-105129215D01*
X121866344Y-104940000D01*
X121866344Y-104867000D01*
X121919995Y-104867000D01*
X121920000Y-104867001D01*
X122152052Y-104820842D01*
X122198211Y-104811660D01*
X122434067Y-104654067D01*
X123232152Y-103855981D01*
X123311385Y-103979113D01*
X123418875Y-104052558D01*
X123300301Y-104101673D01*
X123121673Y-104280302D01*
X123025000Y-104513691D01*
X123025000Y-105527250D01*
X123183750Y-105686000D01*
X124206000Y-105686000D01*
X124206000Y-105666000D01*
X124714000Y-105666000D01*
X124714000Y-105686000D01*
X125736250Y-105686000D01*
X125895000Y-105527250D01*
X125895000Y-104513691D01*
X125798327Y-104280302D01*
X125619699Y-104101673D01*
X125500284Y-104052210D01*
X125599113Y-103988615D01*
X125708027Y-103829215D01*
X125746344Y-103640000D01*
X125746344Y-101040000D01*
X125713083Y-100863235D01*
X125608615Y-100700887D01*
X125600000Y-100695000D01*
X126983656Y-100695000D01*
X126983656Y-101695000D01*
X127016917Y-101871765D01*
X127121385Y-102034113D01*
X127280785Y-102143027D01*
X127470000Y-102181344D01*
X129070000Y-102181344D01*
X129246765Y-102148083D01*
X129409113Y-102043615D01*
X129518027Y-101884215D01*
X129525563Y-101847000D01*
X131477132Y-101847000D01*
X131477631Y-101849510D01*
X131600978Y-102034113D01*
X131618966Y-102061034D01*
X132574827Y-103016895D01*
X132325136Y-102913214D01*
X131837005Y-102912788D01*
X131385869Y-103099194D01*
X131040407Y-103444053D01*
X131038946Y-103447571D01*
X130982717Y-103410000D01*
X130829510Y-103307631D01*
X130788113Y-103299396D01*
X130580000Y-103257999D01*
X130579995Y-103258000D01*
X129527743Y-103258000D01*
X129523083Y-103233235D01*
X129418615Y-103070887D01*
X129259215Y-102961973D01*
X129070000Y-102923656D01*
X127470000Y-102923656D01*
X127293235Y-102956917D01*
X127130887Y-103061385D01*
X127021973Y-103220785D01*
X126983656Y-103410000D01*
X126983656Y-104410000D01*
X127016917Y-104586765D01*
X127121385Y-104749113D01*
X127280785Y-104858027D01*
X127470000Y-104896344D01*
X129070000Y-104896344D01*
X129246765Y-104863083D01*
X129409113Y-104758615D01*
X129518027Y-104599215D01*
X129525563Y-104562000D01*
X130309932Y-104562000D01*
X130348966Y-104601034D01*
X130560490Y-104742369D01*
X130810000Y-104792000D01*
X131021786Y-104792000D01*
X131039194Y-104834131D01*
X131384053Y-105179593D01*
X131834864Y-105366786D01*
X132322995Y-105367212D01*
X132774131Y-105180806D01*
X133119593Y-104835947D01*
X133120851Y-104832918D01*
X133148964Y-104861031D01*
X133148966Y-104861034D01*
X133232926Y-104917134D01*
X133360491Y-105002370D01*
X133610000Y-105052001D01*
X133610005Y-105052000D01*
X134991834Y-105052000D01*
X135095785Y-105123027D01*
X135285000Y-105161344D01*
X136773656Y-105161344D01*
X136773656Y-106650000D01*
X136806917Y-106826765D01*
X136911385Y-106989113D01*
X137070785Y-107098027D01*
X137260000Y-107136344D01*
X137473059Y-107136344D01*
X134136402Y-110473000D01*
X134101344Y-110473000D01*
X134101344Y-110225000D01*
X134072178Y-110070000D01*
X134106309Y-110070000D01*
X134339698Y-109973327D01*
X134518327Y-109794699D01*
X134615000Y-109561310D01*
X134615000Y-108997750D01*
X134456250Y-108839000D01*
X133755000Y-108839000D01*
X133755000Y-108859000D01*
X133305000Y-108859000D01*
X133305000Y-108839000D01*
X132603750Y-108839000D01*
X132445000Y-108997750D01*
X132445000Y-109561310D01*
X132518459Y-109738656D01*
X131815000Y-109738656D01*
X131638235Y-109771917D01*
X131475887Y-109876385D01*
X131366973Y-110035785D01*
X131328656Y-110225000D01*
X131328656Y-112025000D01*
X131361917Y-112201765D01*
X131466385Y-112364113D01*
X131625785Y-112473027D01*
X131815000Y-112511344D01*
X131921598Y-112511344D01*
X131567196Y-112865128D01*
X131282000Y-112579932D01*
X131282000Y-109871845D01*
X131419113Y-109783615D01*
X131528027Y-109624215D01*
X131566344Y-109435000D01*
X131566344Y-107735000D01*
X131542577Y-107608690D01*
X132445000Y-107608690D01*
X132445000Y-108172250D01*
X132603750Y-108331000D01*
X133305000Y-108331000D01*
X133305000Y-107258750D01*
X133755000Y-107258750D01*
X133755000Y-108331000D01*
X134456250Y-108331000D01*
X134615000Y-108172250D01*
X134615000Y-107608690D01*
X134518327Y-107375301D01*
X134339698Y-107196673D01*
X134106309Y-107100000D01*
X133913750Y-107100000D01*
X133755000Y-107258750D01*
X133305000Y-107258750D01*
X133146250Y-107100000D01*
X132953691Y-107100000D01*
X132720302Y-107196673D01*
X132541673Y-107375301D01*
X132445000Y-107608690D01*
X131542577Y-107608690D01*
X131533083Y-107558235D01*
X131428615Y-107395887D01*
X131269215Y-107286973D01*
X131080000Y-107248656D01*
X130180000Y-107248656D01*
X130003235Y-107281917D01*
X129840887Y-107386385D01*
X129731973Y-107545785D01*
X129693656Y-107735000D01*
X129693656Y-109435000D01*
X129726917Y-109611765D01*
X129831385Y-109774113D01*
X129978000Y-109874291D01*
X129978000Y-112849995D01*
X129977999Y-112850000D01*
X130007439Y-112998000D01*
X130027631Y-113099510D01*
X130093404Y-113197947D01*
X130168966Y-113311034D01*
X130983966Y-114126034D01*
X131195490Y-114267369D01*
X131445000Y-114317000D01*
X131494485Y-114317000D01*
X131546956Y-114443989D01*
X131933974Y-114831683D01*
X132182776Y-114934995D01*
X131936011Y-115036956D01*
X131548317Y-115423974D01*
X131338240Y-115929896D01*
X131337762Y-116477701D01*
X131546956Y-116983989D01*
X131933974Y-117371683D01*
X132439896Y-117581760D01*
X132987701Y-117582238D01*
X133493989Y-117373044D01*
X133881683Y-116986026D01*
X133935259Y-116857000D01*
X133984995Y-116857000D01*
X133985000Y-116857001D01*
X134193113Y-116815604D01*
X134234510Y-116807369D01*
X134278471Y-116777995D01*
X148632788Y-116777995D01*
X148819194Y-117229131D01*
X149164053Y-117574593D01*
X149614864Y-117761786D01*
X150102995Y-117762212D01*
X150554131Y-117575806D01*
X150899593Y-117230947D01*
X151086786Y-116780136D01*
X151087212Y-116292005D01*
X150900806Y-115840869D01*
X150555947Y-115495407D01*
X150105136Y-115308214D01*
X149617005Y-115307788D01*
X149165869Y-115494194D01*
X148820407Y-115839053D01*
X148633214Y-116289864D01*
X148632788Y-116777995D01*
X134278471Y-116777995D01*
X134446034Y-116666034D01*
X135716031Y-115396036D01*
X135716034Y-115396034D01*
X135857369Y-115184510D01*
X135907000Y-114935000D01*
X135907000Y-113506370D01*
X136318000Y-113506370D01*
X136318000Y-115093630D01*
X136430430Y-115658853D01*
X136750603Y-116138027D01*
X137229777Y-116458200D01*
X137795000Y-116570630D01*
X138360223Y-116458200D01*
X138839397Y-116138027D01*
X139065000Y-115800387D01*
X139290603Y-116138027D01*
X139769777Y-116458200D01*
X140335000Y-116570630D01*
X140900223Y-116458200D01*
X141379397Y-116138027D01*
X141502110Y-115954373D01*
X141898486Y-116385725D01*
X142371462Y-116605530D01*
X142621000Y-116504235D01*
X142621000Y-114554000D01*
X143129000Y-114554000D01*
X143129000Y-116504235D01*
X143378538Y-116605530D01*
X143851514Y-116385725D01*
X144288341Y-115910353D01*
X144494006Y-115347750D01*
X144725000Y-115347750D01*
X144725000Y-115661309D01*
X144821673Y-115894698D01*
X145000301Y-116073327D01*
X145233690Y-116170000D01*
X146197250Y-116170000D01*
X146356000Y-116011250D01*
X146356000Y-115189000D01*
X146864000Y-115189000D01*
X146864000Y-116011250D01*
X147022750Y-116170000D01*
X147986310Y-116170000D01*
X148219699Y-116073327D01*
X148398327Y-115894698D01*
X148495000Y-115661309D01*
X148495000Y-115347750D01*
X148336250Y-115189000D01*
X146864000Y-115189000D01*
X146356000Y-115189000D01*
X144883750Y-115189000D01*
X144725000Y-115347750D01*
X144494006Y-115347750D01*
X144510000Y-115304000D01*
X144510000Y-114554000D01*
X143129000Y-114554000D01*
X142621000Y-114554000D01*
X142601000Y-114554000D01*
X142601000Y-114208691D01*
X144725000Y-114208691D01*
X144725000Y-114522250D01*
X144883750Y-114681000D01*
X146356000Y-114681000D01*
X146356000Y-113858750D01*
X146864000Y-113858750D01*
X146864000Y-114681000D01*
X148336250Y-114681000D01*
X148495000Y-114522250D01*
X148495000Y-114208691D01*
X148398327Y-113975302D01*
X148219699Y-113796673D01*
X147986310Y-113700000D01*
X147022750Y-113700000D01*
X146864000Y-113858750D01*
X146356000Y-113858750D01*
X146197250Y-113700000D01*
X145233690Y-113700000D01*
X145000301Y-113796673D01*
X144821673Y-113975302D01*
X144725000Y-114208691D01*
X142601000Y-114208691D01*
X142601000Y-114046000D01*
X142621000Y-114046000D01*
X142621000Y-112095765D01*
X143129000Y-112095765D01*
X143129000Y-114046000D01*
X144510000Y-114046000D01*
X144510000Y-113296000D01*
X144288341Y-112689647D01*
X143851514Y-112214275D01*
X143378538Y-111994470D01*
X143129000Y-112095765D01*
X142621000Y-112095765D01*
X142371462Y-111994470D01*
X141898486Y-112214275D01*
X141502110Y-112645627D01*
X141379397Y-112461973D01*
X140987000Y-112199782D01*
X140987000Y-111335000D01*
X144873656Y-111335000D01*
X144873656Y-112535000D01*
X144906917Y-112711765D01*
X145011385Y-112874113D01*
X145170785Y-112983027D01*
X145360000Y-113021344D01*
X147860000Y-113021344D01*
X148036765Y-112988083D01*
X148199113Y-112883615D01*
X148308027Y-112724215D01*
X148346344Y-112535000D01*
X148346344Y-111335000D01*
X148313083Y-111158235D01*
X148208615Y-110995887D01*
X148049215Y-110886973D01*
X147860000Y-110848656D01*
X145360000Y-110848656D01*
X145183235Y-110881917D01*
X145020887Y-110986385D01*
X144911973Y-111145785D01*
X144873656Y-111335000D01*
X140987000Y-111335000D01*
X140987000Y-111191344D01*
X141185000Y-111191344D01*
X141361765Y-111158083D01*
X141524113Y-111053615D01*
X141633027Y-110894215D01*
X141671344Y-110705000D01*
X141671344Y-110682787D01*
X141760186Y-110836057D01*
X142220480Y-111187999D01*
X142395245Y-111260368D01*
X142621000Y-111156700D01*
X142621000Y-110109000D01*
X143129000Y-110109000D01*
X143129000Y-111156700D01*
X143354755Y-111260368D01*
X143529520Y-111187999D01*
X143989814Y-110836057D01*
X144280388Y-110334758D01*
X144179386Y-110109000D01*
X143129000Y-110109000D01*
X142621000Y-110109000D01*
X142601000Y-110109000D01*
X142601000Y-109777995D01*
X148632788Y-109777995D01*
X148819194Y-110229131D01*
X149164053Y-110574593D01*
X149614864Y-110761786D01*
X150102995Y-110762212D01*
X150554131Y-110575806D01*
X150899593Y-110230947D01*
X151086786Y-109780136D01*
X151087212Y-109292005D01*
X150900806Y-108840869D01*
X150555947Y-108495407D01*
X150105136Y-108308214D01*
X149617005Y-108307788D01*
X149165869Y-108494194D01*
X148820407Y-108839053D01*
X148633214Y-109289864D01*
X148632788Y-109777995D01*
X142601000Y-109777995D01*
X142601000Y-109601000D01*
X142621000Y-109601000D01*
X142621000Y-109581000D01*
X143129000Y-109581000D01*
X143129000Y-109601000D01*
X144179386Y-109601000D01*
X144280388Y-109375242D01*
X143989814Y-108873943D01*
X143614530Y-108587000D01*
X144883441Y-108587000D01*
X144906917Y-108711765D01*
X145011385Y-108874113D01*
X145170785Y-108983027D01*
X145360000Y-109021344D01*
X147860000Y-109021344D01*
X148036765Y-108988083D01*
X148199113Y-108883615D01*
X148308027Y-108724215D01*
X148346344Y-108535000D01*
X148346344Y-107335000D01*
X148329927Y-107247750D01*
X151225000Y-107247750D01*
X151225000Y-107561309D01*
X151321673Y-107794698D01*
X151500301Y-107973327D01*
X151733690Y-108070000D01*
X152697250Y-108070000D01*
X152856000Y-107911250D01*
X152856000Y-107089000D01*
X153364000Y-107089000D01*
X153364000Y-107911250D01*
X153522750Y-108070000D01*
X154486310Y-108070000D01*
X154719699Y-107973327D01*
X154898327Y-107794698D01*
X154995000Y-107561309D01*
X154995000Y-107247750D01*
X154836250Y-107089000D01*
X153364000Y-107089000D01*
X152856000Y-107089000D01*
X151383750Y-107089000D01*
X151225000Y-107247750D01*
X148329927Y-107247750D01*
X148313083Y-107158235D01*
X148208615Y-106995887D01*
X148049215Y-106886973D01*
X147860000Y-106848656D01*
X145360000Y-106848656D01*
X145183235Y-106881917D01*
X145020887Y-106986385D01*
X144911973Y-107145785D01*
X144884186Y-107283000D01*
X140985005Y-107283000D01*
X140985000Y-107282999D01*
X140735491Y-107332630D01*
X140707011Y-107351660D01*
X140523966Y-107473966D01*
X140523964Y-107473969D01*
X139873966Y-108123966D01*
X139732631Y-108335490D01*
X139732631Y-108335491D01*
X139696196Y-108518656D01*
X139485000Y-108518656D01*
X139308235Y-108551917D01*
X139145887Y-108656385D01*
X139036973Y-108815785D01*
X138998656Y-109005000D01*
X138998656Y-110705000D01*
X139031917Y-110881765D01*
X139136385Y-111044113D01*
X139295785Y-111153027D01*
X139485000Y-111191344D01*
X139683000Y-111191344D01*
X139683000Y-112199782D01*
X139290603Y-112461973D01*
X139065000Y-112799613D01*
X138839397Y-112461973D01*
X138522000Y-112249896D01*
X138522000Y-112035321D01*
X138571865Y-111915233D01*
X138572134Y-111606123D01*
X138454092Y-111320440D01*
X138235710Y-111101676D01*
X137950233Y-110983135D01*
X137641123Y-110982866D01*
X137355440Y-111100908D01*
X137136676Y-111319290D01*
X137018135Y-111604767D01*
X137017866Y-111913877D01*
X137068000Y-112035210D01*
X137068000Y-112249896D01*
X136750603Y-112461973D01*
X136430430Y-112941147D01*
X136318000Y-113506370D01*
X135907000Y-113506370D01*
X135907000Y-111395068D01*
X136351031Y-110951036D01*
X136351034Y-110951034D01*
X138256034Y-109046034D01*
X139596031Y-107706036D01*
X139596034Y-107706034D01*
X139737369Y-107494510D01*
X139787000Y-107245000D01*
X139787000Y-107136344D01*
X140210000Y-107136344D01*
X140339588Y-107111960D01*
X140460000Y-107136344D01*
X141010000Y-107136344D01*
X141139588Y-107111960D01*
X141260000Y-107136344D01*
X141810000Y-107136344D01*
X141939588Y-107111960D01*
X142060000Y-107136344D01*
X142610000Y-107136344D01*
X142739588Y-107111960D01*
X142860000Y-107136344D01*
X143410000Y-107136344D01*
X143586765Y-107103083D01*
X143749113Y-106998615D01*
X143858027Y-106839215D01*
X143871486Y-106772750D01*
X143989767Y-106821865D01*
X144298877Y-106822134D01*
X144584560Y-106704092D01*
X144803324Y-106485710D01*
X144921865Y-106200233D01*
X144921944Y-106108691D01*
X151225000Y-106108691D01*
X151225000Y-106422250D01*
X151383750Y-106581000D01*
X152856000Y-106581000D01*
X152856000Y-105758750D01*
X153364000Y-105758750D01*
X153364000Y-106581000D01*
X154836250Y-106581000D01*
X154995000Y-106422250D01*
X154995000Y-106108691D01*
X154898327Y-105875302D01*
X154719699Y-105696673D01*
X154486310Y-105600000D01*
X153522750Y-105600000D01*
X153364000Y-105758750D01*
X152856000Y-105758750D01*
X152697250Y-105600000D01*
X151733690Y-105600000D01*
X151500301Y-105696673D01*
X151321673Y-105875302D01*
X151225000Y-106108691D01*
X144921944Y-106108691D01*
X144922134Y-105891123D01*
X144804092Y-105605440D01*
X144585710Y-105386676D01*
X144300233Y-105268135D01*
X143991123Y-105267866D01*
X143896344Y-105307028D01*
X143896344Y-105161344D01*
X145385000Y-105161344D01*
X145523560Y-105135272D01*
X146241644Y-105853356D01*
X146445058Y-105989273D01*
X146685000Y-106037000D01*
X149860000Y-106037000D01*
X150099943Y-105989272D01*
X150303356Y-105853356D01*
X150938356Y-105218356D01*
X151074273Y-105014942D01*
X151122000Y-104775000D01*
X151122000Y-104677352D01*
X151433331Y-104469328D01*
X151720988Y-104038818D01*
X151765000Y-103817555D01*
X151809012Y-104038818D01*
X152096669Y-104469328D01*
X152527179Y-104756985D01*
X153035000Y-104857997D01*
X153542821Y-104756985D01*
X153973331Y-104469328D01*
X154260988Y-104038818D01*
X154362000Y-103530997D01*
X154362000Y-103479003D01*
X154260988Y-102971182D01*
X153973331Y-102540672D01*
X153640515Y-102318292D01*
X153689520Y-102297999D01*
X154149814Y-101946057D01*
X154440388Y-101444758D01*
X154339386Y-101219000D01*
X153289000Y-101219000D01*
X153289000Y-101239000D01*
X152781000Y-101239000D01*
X152781000Y-101219000D01*
X152761000Y-101219000D01*
X152761000Y-100711000D01*
X152781000Y-100711000D01*
X152781000Y-99663300D01*
X153289000Y-99663300D01*
X153289000Y-100711000D01*
X154339386Y-100711000D01*
X154440388Y-100485242D01*
X154149814Y-99983943D01*
X153689520Y-99632001D01*
X153514755Y-99559632D01*
X153289000Y-99663300D01*
X152781000Y-99663300D01*
X152555245Y-99559632D01*
X152380480Y-99632001D01*
X151920186Y-99983943D01*
X151688838Y-100383066D01*
X151433331Y-100000672D01*
X151002821Y-99713015D01*
X150495000Y-99612003D01*
X150096956Y-99691179D01*
X150132001Y-99515000D01*
X150132000Y-99514995D01*
X150132000Y-99028584D01*
X150165456Y-99007055D01*
X150210785Y-99038027D01*
X150400000Y-99076344D01*
X151400000Y-99076344D01*
X151576765Y-99043083D01*
X151739113Y-98938615D01*
X151848027Y-98779215D01*
X151886344Y-98590000D01*
X151886344Y-98202750D01*
X152765000Y-98202750D01*
X152765000Y-98716310D01*
X152861673Y-98949699D01*
X153040302Y-99128327D01*
X153273691Y-99225000D01*
X153491250Y-99225000D01*
X153650000Y-99066250D01*
X153650000Y-98044000D01*
X152923750Y-98044000D01*
X152765000Y-98202750D01*
X151886344Y-98202750D01*
X151886344Y-96990000D01*
X151853083Y-96813235D01*
X151748615Y-96650887D01*
X151741354Y-96645925D01*
X151759698Y-96638327D01*
X151938327Y-96459699D01*
X152035000Y-96226310D01*
X152035000Y-95662750D01*
X151876250Y-95504000D01*
X151175000Y-95504000D01*
X151175000Y-95524000D01*
X150725000Y-95524000D01*
X150725000Y-95504000D01*
X150023750Y-95504000D01*
X149865000Y-95662750D01*
X149865000Y-96226310D01*
X149961673Y-96459699D01*
X149981183Y-96479209D01*
X149855000Y-96453656D01*
X148955000Y-96453656D01*
X148778235Y-96486917D01*
X148615887Y-96591385D01*
X148506973Y-96750785D01*
X148468656Y-96940000D01*
X148468656Y-98640000D01*
X148501917Y-98816765D01*
X148606385Y-98979113D01*
X148678000Y-99028046D01*
X148678000Y-99213867D01*
X148225965Y-99665901D01*
X147955000Y-99612003D01*
X147447179Y-99713015D01*
X147016669Y-100000672D01*
X146729012Y-100431182D01*
X146628000Y-100939003D01*
X146628000Y-100990997D01*
X146673272Y-101218594D01*
X146618866Y-101273000D01*
X145554596Y-101273000D01*
X145385000Y-101238656D01*
X143785000Y-101238656D01*
X143608235Y-101271917D01*
X143606552Y-101273000D01*
X142970005Y-101273000D01*
X142970000Y-101272999D01*
X142737948Y-101319158D01*
X142691789Y-101328340D01*
X142467491Y-101478210D01*
X142455933Y-101485933D01*
X141868866Y-102073000D01*
X138568778Y-102073000D01*
X138522000Y-101959790D01*
X138522000Y-101600000D01*
X138466660Y-101321789D01*
X138309067Y-101085933D01*
X138309064Y-101085931D01*
X137909067Y-100685933D01*
X137673211Y-100528340D01*
X137622410Y-100518235D01*
X137395000Y-100472999D01*
X137394995Y-100473000D01*
X137054596Y-100473000D01*
X136885000Y-100438656D01*
X135285000Y-100438656D01*
X135108235Y-100471917D01*
X135006316Y-100537500D01*
X134808750Y-100537500D01*
X134650000Y-100696250D01*
X134650000Y-100801310D01*
X134746673Y-101034699D01*
X134798656Y-101086682D01*
X134798656Y-101313318D01*
X134746673Y-101365301D01*
X134650000Y-101598690D01*
X134650000Y-101703750D01*
X134808750Y-101862500D01*
X135007201Y-101862500D01*
X135095785Y-101923027D01*
X135285000Y-101961344D01*
X136359000Y-101961344D01*
X136359000Y-102038656D01*
X135285000Y-102038656D01*
X135108235Y-102071917D01*
X135006316Y-102137500D01*
X134808750Y-102137500D01*
X134650000Y-102296250D01*
X134650000Y-102401310D01*
X134746673Y-102634699D01*
X134798656Y-102686682D01*
X134798656Y-102948000D01*
X134350068Y-102948000D01*
X132732000Y-101329932D01*
X132732000Y-100318214D01*
X132774131Y-100300806D01*
X133119593Y-99955947D01*
X133306786Y-99505136D01*
X133307212Y-99017005D01*
X133120806Y-98565869D01*
X132775947Y-98220407D01*
X132325136Y-98033214D01*
X131837005Y-98032788D01*
X131385869Y-98219194D01*
X131040407Y-98564053D01*
X130853214Y-99014864D01*
X130852788Y-99502995D01*
X131039194Y-99954131D01*
X131384053Y-100299593D01*
X131428000Y-100317841D01*
X131428000Y-100543000D01*
X129527743Y-100543000D01*
X129523083Y-100518235D01*
X129418615Y-100355887D01*
X129259215Y-100246973D01*
X129070000Y-100208656D01*
X127470000Y-100208656D01*
X127293235Y-100241917D01*
X127130887Y-100346385D01*
X127021973Y-100505785D01*
X126983656Y-100695000D01*
X125600000Y-100695000D01*
X125449215Y-100591973D01*
X125260000Y-100553656D01*
X123660000Y-100553656D01*
X123483235Y-100586917D01*
X123320887Y-100691385D01*
X123211973Y-100850785D01*
X123173656Y-101040000D01*
X123173656Y-101858211D01*
X121838713Y-103193154D01*
X121833083Y-103163235D01*
X121728615Y-103000887D01*
X121569215Y-102891973D01*
X121463672Y-102870600D01*
X121556765Y-102853083D01*
X121719113Y-102748615D01*
X121828027Y-102589215D01*
X121866344Y-102400000D01*
X121866344Y-100800000D01*
X121833083Y-100623235D01*
X121728615Y-100460887D01*
X121569215Y-100351973D01*
X121565470Y-100351215D01*
X121551660Y-100281789D01*
X121394067Y-100045933D01*
X121394064Y-100045931D01*
X121368449Y-100020316D01*
X121458027Y-99889215D01*
X121496344Y-99700000D01*
X121496344Y-99050000D01*
X121463083Y-98873235D01*
X121358615Y-98710887D01*
X121201816Y-98603750D01*
X126835000Y-98603750D01*
X126835000Y-98821309D01*
X126931673Y-99054698D01*
X127110301Y-99233327D01*
X127343690Y-99330000D01*
X127857250Y-99330000D01*
X128016000Y-99171250D01*
X128016000Y-98445000D01*
X128524000Y-98445000D01*
X128524000Y-99171250D01*
X128682750Y-99330000D01*
X129196310Y-99330000D01*
X129429699Y-99233327D01*
X129608327Y-99054698D01*
X129705000Y-98821309D01*
X129705000Y-98603750D01*
X129546250Y-98445000D01*
X128524000Y-98445000D01*
X128016000Y-98445000D01*
X126993750Y-98445000D01*
X126835000Y-98603750D01*
X121201816Y-98603750D01*
X121199215Y-98601973D01*
X121010000Y-98563656D01*
X119950000Y-98563656D01*
X119773235Y-98596917D01*
X119619741Y-98695688D01*
X119380000Y-98648000D01*
X119346750Y-98648000D01*
X119286250Y-98587500D01*
X118927745Y-98587500D01*
X118810000Y-98563656D01*
X118006000Y-98563656D01*
X118006000Y-98286344D01*
X118810000Y-98286344D01*
X118936719Y-98262500D01*
X119286250Y-98262500D01*
X119445000Y-98103750D01*
X119445000Y-97973690D01*
X119348327Y-97740301D01*
X119296344Y-97688318D01*
X119296344Y-97150000D01*
X119263083Y-96973235D01*
X119158615Y-96810887D01*
X118999215Y-96701973D01*
X118810000Y-96663656D01*
X117750000Y-96663656D01*
X117573235Y-96696917D01*
X117493850Y-96748000D01*
X117155000Y-96748000D01*
X116876789Y-96803340D01*
X116640933Y-96960933D01*
X116640931Y-96960936D01*
X116325933Y-97275933D01*
X116168340Y-97511789D01*
X116168340Y-97511790D01*
X116112999Y-97790000D01*
X116113000Y-97790005D01*
X116113000Y-98648000D01*
X115255005Y-98648000D01*
X115255000Y-98647999D01*
X115022948Y-98694158D01*
X114976789Y-98703340D01*
X114800235Y-98821309D01*
X114740933Y-98860933D01*
X113785933Y-99815933D01*
X113628340Y-100051789D01*
X113628340Y-100051790D01*
X113586196Y-100263656D01*
X113450000Y-100263656D01*
X113273235Y-100296917D01*
X113110887Y-100401385D01*
X113001973Y-100560785D01*
X112963656Y-100750000D01*
X112963656Y-102450000D01*
X112996917Y-102626765D01*
X113101385Y-102789113D01*
X113260785Y-102898027D01*
X113450000Y-102936344D01*
X113472213Y-102936344D01*
X113318943Y-103025186D01*
X112967001Y-103485480D01*
X112894632Y-103660245D01*
X112502000Y-103660245D01*
X112502000Y-94392750D01*
X113105000Y-94392750D01*
X113105000Y-94906310D01*
X113201673Y-95139699D01*
X113380302Y-95318327D01*
X113613691Y-95415000D01*
X114627250Y-95415000D01*
X114786000Y-95256250D01*
X114786000Y-94234000D01*
X113263750Y-94234000D01*
X113105000Y-94392750D01*
X112502000Y-94392750D01*
X112502000Y-93053690D01*
X113105000Y-93053690D01*
X113105000Y-93567250D01*
X113263750Y-93726000D01*
X114786000Y-93726000D01*
X114786000Y-92703750D01*
X114627250Y-92545000D01*
X113613691Y-92545000D01*
X113380302Y-92641673D01*
X113201673Y-92820301D01*
X113105000Y-93053690D01*
X112502000Y-93053690D01*
X112502000Y-90014755D01*
X112894632Y-90014755D01*
X112967001Y-90189520D01*
X113318943Y-90649814D01*
X113820242Y-90940388D01*
X114046000Y-90839386D01*
X114046000Y-89789000D01*
X112998300Y-89789000D01*
X112894632Y-90014755D01*
X112502000Y-90014755D01*
X112502000Y-89055245D01*
X112894632Y-89055245D01*
X112998300Y-89281000D01*
X114046000Y-89281000D01*
X114046000Y-89261000D01*
X114554000Y-89261000D01*
X114554000Y-89281000D01*
X114574000Y-89281000D01*
X114574000Y-89789000D01*
X114554000Y-89789000D01*
X114554000Y-90839386D01*
X114779758Y-90940388D01*
X115281057Y-90649814D01*
X115632999Y-90189520D01*
X115691093Y-90049227D01*
X116325931Y-90684064D01*
X116325933Y-90684067D01*
X116493656Y-90796135D01*
X116493656Y-91020000D01*
X116526917Y-91196765D01*
X116631385Y-91359113D01*
X116790785Y-91468027D01*
X116903000Y-91490751D01*
X116903000Y-91919995D01*
X116902999Y-91920000D01*
X116937213Y-92092000D01*
X116958340Y-92198211D01*
X117039026Y-92318967D01*
X117115933Y-92434067D01*
X117375522Y-92693656D01*
X117340000Y-92693656D01*
X117163235Y-92726917D01*
X117000887Y-92831385D01*
X116927442Y-92938875D01*
X116878327Y-92820301D01*
X116699698Y-92641673D01*
X116466309Y-92545000D01*
X115452750Y-92545000D01*
X115294000Y-92703750D01*
X115294000Y-93726000D01*
X115314000Y-93726000D01*
X115314000Y-94234000D01*
X115294000Y-94234000D01*
X115294000Y-95256250D01*
X115452750Y-95415000D01*
X116466309Y-95415000D01*
X116699698Y-95318327D01*
X116878327Y-95139699D01*
X116927790Y-95020284D01*
X116991385Y-95119113D01*
X117150785Y-95228027D01*
X117340000Y-95266344D01*
X119940000Y-95266344D01*
X120116765Y-95233083D01*
X120279113Y-95128615D01*
X120388027Y-94969215D01*
X120425590Y-94783724D01*
X120558000Y-94916133D01*
X120558000Y-96663656D01*
X119950000Y-96663656D01*
X119773235Y-96696917D01*
X119610887Y-96801385D01*
X119501973Y-96960785D01*
X119463656Y-97150000D01*
X119463656Y-97800000D01*
X119496917Y-97976765D01*
X119601385Y-98139113D01*
X119760785Y-98248027D01*
X119950000Y-98286344D01*
X121010000Y-98286344D01*
X121186765Y-98253083D01*
X121349113Y-98148615D01*
X121440538Y-98014811D01*
X121479067Y-97989067D01*
X121799064Y-97669069D01*
X121799067Y-97669067D01*
X121866135Y-97568691D01*
X126835000Y-97568691D01*
X126835000Y-97786250D01*
X126993750Y-97945000D01*
X128016000Y-97945000D01*
X128016000Y-97218750D01*
X128524000Y-97218750D01*
X128524000Y-97945000D01*
X129546250Y-97945000D01*
X129705000Y-97786250D01*
X129705000Y-97568691D01*
X129608327Y-97335302D01*
X129429699Y-97156673D01*
X129196310Y-97060000D01*
X128682750Y-97060000D01*
X128524000Y-97218750D01*
X128016000Y-97218750D01*
X127857250Y-97060000D01*
X127343690Y-97060000D01*
X127110301Y-97156673D01*
X126931673Y-97335302D01*
X126835000Y-97568691D01*
X121866135Y-97568691D01*
X121956660Y-97433211D01*
X121983743Y-97297056D01*
X122073877Y-97297134D01*
X122359560Y-97179092D01*
X122578324Y-96960710D01*
X122696865Y-96675233D01*
X122697134Y-96366123D01*
X122579092Y-96080440D01*
X122360710Y-95861676D01*
X122075233Y-95743135D01*
X122012000Y-95743080D01*
X122012000Y-94615005D01*
X122012001Y-94615000D01*
X121956660Y-94336790D01*
X121956660Y-94336789D01*
X121799067Y-94100933D01*
X121799064Y-94100931D01*
X121164067Y-93465933D01*
X121039005Y-93382370D01*
X120928211Y-93308340D01*
X120882052Y-93299158D01*
X120650000Y-93252999D01*
X120649995Y-93253000D01*
X120426344Y-93253000D01*
X120426344Y-93180000D01*
X120393083Y-93003235D01*
X120288615Y-92840887D01*
X120129215Y-92731973D01*
X119940000Y-92693656D01*
X119319988Y-92693656D01*
X119311660Y-92651790D01*
X119311660Y-92651789D01*
X119154067Y-92415933D01*
X119154064Y-92415931D01*
X118357000Y-91618866D01*
X118357000Y-91491855D01*
X118456765Y-91473083D01*
X118619113Y-91368615D01*
X118728027Y-91209215D01*
X118766344Y-91020000D01*
X118766344Y-89320000D01*
X118733083Y-89143235D01*
X118628615Y-88980887D01*
X118469215Y-88871973D01*
X118457624Y-88869626D01*
X118491000Y-88836250D01*
X118491000Y-88110000D01*
X117468750Y-88110000D01*
X117310000Y-88268750D01*
X117310000Y-88486309D01*
X117406673Y-88719698D01*
X117520630Y-88833656D01*
X116980000Y-88833656D01*
X116932000Y-88842688D01*
X116932000Y-87630005D01*
X116932001Y-87630000D01*
X116876660Y-87351790D01*
X116876660Y-87351789D01*
X116797750Y-87233691D01*
X117310000Y-87233691D01*
X117310000Y-87451250D01*
X117468750Y-87610000D01*
X118491000Y-87610000D01*
X118491000Y-86883750D01*
X118999000Y-86883750D01*
X118999000Y-87610000D01*
X119019000Y-87610000D01*
X119019000Y-88110000D01*
X118999000Y-88110000D01*
X118999000Y-88836250D01*
X119157750Y-88995000D01*
X119671310Y-88995000D01*
X119904699Y-88898327D01*
X119998000Y-88805025D01*
X119998000Y-88899995D01*
X119997999Y-88900000D01*
X120018280Y-89001956D01*
X120041216Y-89117258D01*
X120031973Y-89130785D01*
X119993656Y-89320000D01*
X119993656Y-91020000D01*
X120026917Y-91196765D01*
X120131385Y-91359113D01*
X120290785Y-91468027D01*
X120480000Y-91506344D01*
X121780000Y-91506344D01*
X121956765Y-91473083D01*
X122119113Y-91368615D01*
X122228027Y-91209215D01*
X122266344Y-91020000D01*
X122266344Y-89320000D01*
X122233083Y-89143235D01*
X122128615Y-88980887D01*
X121969215Y-88871973D01*
X121780000Y-88833656D01*
X121505723Y-88833656D01*
X121418411Y-88746344D01*
X121500000Y-88746344D01*
X121676765Y-88713083D01*
X121839113Y-88608615D01*
X121948027Y-88449215D01*
X121986344Y-88260000D01*
X121986344Y-87360000D01*
X121953083Y-87183235D01*
X121848615Y-87020887D01*
X121689215Y-86911973D01*
X121500000Y-86873656D01*
X119956682Y-86873656D01*
X119904699Y-86821673D01*
X119671310Y-86725000D01*
X119157750Y-86725000D01*
X118999000Y-86883750D01*
X118491000Y-86883750D01*
X118332250Y-86725000D01*
X117818690Y-86725000D01*
X117585301Y-86821673D01*
X117406673Y-87000302D01*
X117310000Y-87233691D01*
X116797750Y-87233691D01*
X116719067Y-87115933D01*
X116719064Y-87115931D01*
X116084067Y-86480933D01*
X116055666Y-86461956D01*
X115848211Y-86323340D01*
X115802052Y-86314158D01*
X115636344Y-86281196D01*
X115636344Y-86145000D01*
X115603083Y-85968235D01*
X115546464Y-85880245D01*
X122419632Y-85880245D01*
X122523300Y-86106000D01*
X123571000Y-86106000D01*
X123571000Y-85055614D01*
X124079000Y-85055614D01*
X124079000Y-86106000D01*
X125126700Y-86106000D01*
X125230368Y-85880245D01*
X125157999Y-85705480D01*
X124806057Y-85245186D01*
X124304758Y-84954612D01*
X124079000Y-85055614D01*
X123571000Y-85055614D01*
X123345242Y-84954612D01*
X122843943Y-85245186D01*
X122492001Y-85705480D01*
X122419632Y-85880245D01*
X115546464Y-85880245D01*
X115498615Y-85805887D01*
X115339215Y-85696973D01*
X115150000Y-85658656D01*
X113450000Y-85658656D01*
X113273235Y-85691917D01*
X113110887Y-85796385D01*
X113001973Y-85955785D01*
X112963656Y-86145000D01*
X112963656Y-87845000D01*
X112996917Y-88021765D01*
X113101385Y-88184113D01*
X113260785Y-88293027D01*
X113450000Y-88331344D01*
X113472213Y-88331344D01*
X113318943Y-88420186D01*
X112967001Y-88880480D01*
X112894632Y-89055245D01*
X112502000Y-89055245D01*
X112502000Y-84282750D01*
X114774000Y-84282750D01*
X114774000Y-85146309D01*
X114870673Y-85379698D01*
X115049301Y-85558327D01*
X115282690Y-85655000D01*
X115400250Y-85655000D01*
X115559000Y-85496250D01*
X115559000Y-84124000D01*
X114932750Y-84124000D01*
X114774000Y-84282750D01*
X112502000Y-84282750D01*
X112502000Y-82593691D01*
X114774000Y-82593691D01*
X114774000Y-83457250D01*
X114932750Y-83616000D01*
X115559000Y-83616000D01*
X115559000Y-82243750D01*
X115859000Y-82243750D01*
X115859000Y-83616000D01*
X115983000Y-83616000D01*
X115983000Y-84124000D01*
X115859000Y-84124000D01*
X115859000Y-85496250D01*
X116017750Y-85655000D01*
X116135310Y-85655000D01*
X116368699Y-85558327D01*
X116547327Y-85379698D01*
X116557628Y-85354829D01*
X116560385Y-85359113D01*
X116719785Y-85468027D01*
X116909000Y-85506344D01*
X117486193Y-85506344D01*
X117491917Y-85536765D01*
X117596385Y-85699113D01*
X117755785Y-85808027D01*
X117945000Y-85846344D01*
X119545000Y-85846344D01*
X119677180Y-85821472D01*
X119800000Y-85846344D01*
X121500000Y-85846344D01*
X121676765Y-85813083D01*
X121839113Y-85708615D01*
X121948027Y-85549215D01*
X121986344Y-85360000D01*
X121986344Y-84460000D01*
X121953083Y-84283235D01*
X121848615Y-84120887D01*
X121689215Y-84011973D01*
X121500000Y-83973656D01*
X121302000Y-83973656D01*
X121302000Y-83820000D01*
X121252369Y-83570490D01*
X121111034Y-83358966D01*
X120899510Y-83217631D01*
X120650000Y-83168000D01*
X120286000Y-83168000D01*
X120286000Y-82862000D01*
X121903656Y-82862000D01*
X121903656Y-83710000D01*
X121936917Y-83886765D01*
X122041385Y-84049113D01*
X122200785Y-84158027D01*
X122390000Y-84196344D01*
X123990000Y-84196344D01*
X124166765Y-84163083D01*
X124329113Y-84058615D01*
X124438027Y-83899215D01*
X124476344Y-83710000D01*
X124476344Y-82862000D01*
X124484932Y-82862000D01*
X126283966Y-84661034D01*
X126463656Y-84781098D01*
X126463656Y-85350000D01*
X126496917Y-85526765D01*
X126601385Y-85689113D01*
X126615243Y-85698582D01*
X126610887Y-85701385D01*
X126501973Y-85860785D01*
X126463656Y-86050000D01*
X126463656Y-86652310D01*
X126367155Y-86716790D01*
X126333966Y-86738966D01*
X124918277Y-88154655D01*
X124789328Y-87961669D01*
X124406934Y-87706162D01*
X124806057Y-87474814D01*
X125157999Y-87014520D01*
X125230368Y-86839755D01*
X125126700Y-86614000D01*
X124079000Y-86614000D01*
X124079000Y-86634000D01*
X123571000Y-86634000D01*
X123571000Y-86614000D01*
X122523300Y-86614000D01*
X122419632Y-86839755D01*
X122492001Y-87014520D01*
X122843943Y-87474814D01*
X123243066Y-87706162D01*
X122860672Y-87961669D01*
X122573015Y-88392179D01*
X122472003Y-88900000D01*
X122573015Y-89407821D01*
X122860672Y-89838331D01*
X123291182Y-90125988D01*
X123512445Y-90170000D01*
X123291182Y-90214012D01*
X122860672Y-90501669D01*
X122573015Y-90932179D01*
X122472003Y-91440000D01*
X122573015Y-91947821D01*
X122860672Y-92378331D01*
X123257760Y-92643656D01*
X122975000Y-92643656D01*
X122798235Y-92676917D01*
X122635887Y-92781385D01*
X122526973Y-92940785D01*
X122488656Y-93130000D01*
X122488656Y-94830000D01*
X122521917Y-95006765D01*
X122626385Y-95169113D01*
X122785785Y-95278027D01*
X122975000Y-95316344D01*
X124675000Y-95316344D01*
X124851765Y-95283083D01*
X125014113Y-95178615D01*
X125123027Y-95019215D01*
X125161344Y-94830000D01*
X125161344Y-93130000D01*
X125128083Y-92953235D01*
X125023615Y-92790887D01*
X124864215Y-92681973D01*
X124675000Y-92643656D01*
X124392240Y-92643656D01*
X124789328Y-92378331D01*
X124980648Y-92092000D01*
X125094995Y-92092000D01*
X125095000Y-92092001D01*
X125306147Y-92050000D01*
X125344510Y-92042369D01*
X125556034Y-91901034D01*
X126463656Y-90993411D01*
X126463656Y-91350000D01*
X126496917Y-91526765D01*
X126601385Y-91689113D01*
X126615243Y-91698582D01*
X126610887Y-91701385D01*
X126501973Y-91860785D01*
X126463656Y-92050000D01*
X126463656Y-94350000D01*
X126496917Y-94526765D01*
X126601385Y-94689113D01*
X126760785Y-94798027D01*
X126950000Y-94836344D01*
X127020523Y-94836344D01*
X126045612Y-95811254D01*
X125925440Y-95860908D01*
X125706676Y-96079290D01*
X125588135Y-96364767D01*
X125587866Y-96673877D01*
X125705908Y-96959560D01*
X125924290Y-97178324D01*
X126209767Y-97296865D01*
X126518877Y-97297134D01*
X126804560Y-97179092D01*
X127023324Y-96960710D01*
X127073670Y-96839464D01*
X128464064Y-95449069D01*
X128464067Y-95449067D01*
X128621660Y-95213211D01*
X128677000Y-94935000D01*
X128677000Y-94836344D01*
X128950000Y-94836344D01*
X129126765Y-94803083D01*
X129289113Y-94698615D01*
X129398027Y-94539215D01*
X129436344Y-94350000D01*
X129436344Y-93927000D01*
X130319995Y-93927000D01*
X130320000Y-93927001D01*
X130587065Y-93873877D01*
X130598211Y-93871660D01*
X130834067Y-93714067D01*
X131324064Y-93224069D01*
X131324067Y-93224067D01*
X131481660Y-92988211D01*
X131515060Y-92820301D01*
X131537001Y-92710000D01*
X131537000Y-92709995D01*
X131537000Y-90445321D01*
X131586865Y-90325233D01*
X131587134Y-90016123D01*
X131469092Y-89730440D01*
X131250710Y-89511676D01*
X130965233Y-89393135D01*
X130656123Y-89392866D01*
X130370440Y-89510908D01*
X130151676Y-89729290D01*
X130033135Y-90014767D01*
X130032866Y-90323877D01*
X130083000Y-90445210D01*
X130083000Y-92408867D01*
X130018866Y-92473000D01*
X129436344Y-92473000D01*
X129436344Y-92050000D01*
X129403083Y-91873235D01*
X129298615Y-91710887D01*
X129284757Y-91701418D01*
X129289113Y-91698615D01*
X129398027Y-91539215D01*
X129436344Y-91350000D01*
X129436344Y-89050000D01*
X129403083Y-88873235D01*
X129298615Y-88710887D01*
X129284757Y-88701418D01*
X129289113Y-88698615D01*
X129398027Y-88539215D01*
X129436344Y-88350000D01*
X129436344Y-87852000D01*
X133284932Y-87852000D01*
X138483000Y-93050067D01*
X138483000Y-96063656D01*
X138187000Y-96063656D01*
X138187000Y-94167023D01*
X138193324Y-94160710D01*
X138311865Y-93875233D01*
X138312134Y-93566123D01*
X138194092Y-93280440D01*
X137975710Y-93061676D01*
X137690233Y-92943135D01*
X137381123Y-92942866D01*
X137095440Y-93060908D01*
X136876676Y-93279290D01*
X136758135Y-93564767D01*
X136757866Y-93873877D01*
X136875908Y-94159560D01*
X136883000Y-94166664D01*
X136883000Y-96256834D01*
X136811973Y-96360785D01*
X136773656Y-96550000D01*
X136773656Y-98038656D01*
X136737000Y-98038656D01*
X136737000Y-97985005D01*
X136737001Y-97985000D01*
X136687370Y-97735491D01*
X136667074Y-97705116D01*
X136667134Y-97636123D01*
X136549092Y-97350440D01*
X136330710Y-97131676D01*
X136045233Y-97013135D01*
X135736123Y-97012866D01*
X135450440Y-97130908D01*
X135231676Y-97349290D01*
X135113135Y-97634767D01*
X135112866Y-97943877D01*
X135161621Y-98061872D01*
X135108235Y-98071917D01*
X134945887Y-98176385D01*
X134836973Y-98335785D01*
X134798656Y-98525000D01*
X134798656Y-99075000D01*
X134823040Y-99204588D01*
X134798656Y-99325000D01*
X134798656Y-99713318D01*
X134746673Y-99765301D01*
X134650000Y-99998690D01*
X134650000Y-100103750D01*
X134808750Y-100262500D01*
X135007201Y-100262500D01*
X135095785Y-100323027D01*
X135285000Y-100361344D01*
X136885000Y-100361344D01*
X137061765Y-100328083D01*
X137163684Y-100262500D01*
X137361250Y-100262500D01*
X137520000Y-100103750D01*
X137520000Y-99998690D01*
X137423327Y-99765301D01*
X137371344Y-99713318D01*
X137371344Y-99325000D01*
X137346960Y-99195412D01*
X137371344Y-99075000D01*
X137371344Y-98636344D01*
X137810000Y-98636344D01*
X137819677Y-98634523D01*
X137827631Y-98674510D01*
X137931001Y-98829215D01*
X137968966Y-98886034D01*
X138922874Y-99839941D01*
X138922866Y-99848877D01*
X139040908Y-100134560D01*
X139259290Y-100353324D01*
X139544767Y-100471865D01*
X139853877Y-100472134D01*
X140139560Y-100354092D01*
X140358324Y-100135710D01*
X140476865Y-99850233D01*
X140477134Y-99541123D01*
X140359092Y-99255440D01*
X140140710Y-99036676D01*
X139855233Y-98918135D01*
X139845194Y-98918126D01*
X139539116Y-98612049D01*
X139539588Y-98611960D01*
X139660000Y-98636344D01*
X140210000Y-98636344D01*
X140339588Y-98611960D01*
X140460000Y-98636344D01*
X141010000Y-98636344D01*
X141139588Y-98611960D01*
X141260000Y-98636344D01*
X141810000Y-98636344D01*
X141939588Y-98611960D01*
X142060000Y-98636344D01*
X142610000Y-98636344D01*
X142739588Y-98611960D01*
X142860000Y-98636344D01*
X143298656Y-98636344D01*
X143298656Y-99075000D01*
X143323040Y-99204588D01*
X143298656Y-99325000D01*
X143298656Y-99875000D01*
X143323040Y-100004588D01*
X143298656Y-100125000D01*
X143298656Y-100513318D01*
X143246673Y-100565301D01*
X143150000Y-100798690D01*
X143150000Y-100903750D01*
X143308750Y-101062500D01*
X143507201Y-101062500D01*
X143595785Y-101123027D01*
X143785000Y-101161344D01*
X145385000Y-101161344D01*
X145561765Y-101128083D01*
X145663684Y-101062500D01*
X145861250Y-101062500D01*
X146020000Y-100903750D01*
X146020000Y-100798690D01*
X145923327Y-100565301D01*
X145871344Y-100513318D01*
X145871344Y-100125000D01*
X145846960Y-99995412D01*
X145871344Y-99875000D01*
X145871344Y-99325000D01*
X145846960Y-99195412D01*
X145868591Y-99088595D01*
X146055000Y-99126344D01*
X146955000Y-99126344D01*
X147131765Y-99093083D01*
X147294113Y-98988615D01*
X147403027Y-98829215D01*
X147441344Y-98640000D01*
X147441344Y-96940000D01*
X147408083Y-96763235D01*
X147303615Y-96600887D01*
X147144215Y-96491973D01*
X146955000Y-96453656D01*
X146055000Y-96453656D01*
X145878235Y-96486917D01*
X145858588Y-96499559D01*
X145855710Y-96496676D01*
X145570233Y-96378135D01*
X145261123Y-96377866D01*
X144975440Y-96495908D01*
X144756676Y-96714290D01*
X144638135Y-96999767D01*
X144637866Y-97308877D01*
X144755908Y-97594560D01*
X144788000Y-97626708D01*
X144788000Y-97790000D01*
X144835728Y-98029943D01*
X144841550Y-98038656D01*
X143896344Y-98038656D01*
X143896344Y-96550000D01*
X143863083Y-96373235D01*
X143787000Y-96254999D01*
X143787000Y-95895068D01*
X144289941Y-95392126D01*
X144298877Y-95392134D01*
X144584560Y-95274092D01*
X144803324Y-95055710D01*
X144921865Y-94770233D01*
X144922134Y-94461123D01*
X144804092Y-94175440D01*
X144585710Y-93956676D01*
X144300233Y-93838135D01*
X143991123Y-93837866D01*
X143705440Y-93955908D01*
X143486676Y-94174290D01*
X143368135Y-94459767D01*
X143368126Y-94469806D01*
X142987000Y-94850932D01*
X142987000Y-92863877D01*
X144002866Y-92863877D01*
X144120908Y-93149560D01*
X144339290Y-93368324D01*
X144624767Y-93486865D01*
X144634806Y-93486874D01*
X144953964Y-93806031D01*
X144953966Y-93806034D01*
X145095302Y-93900471D01*
X145165491Y-93947370D01*
X145415000Y-93997001D01*
X145415005Y-93997000D01*
X145963656Y-93997000D01*
X145963656Y-94350000D01*
X145996917Y-94526765D01*
X146101385Y-94689113D01*
X146260785Y-94798027D01*
X146450000Y-94836344D01*
X148450000Y-94836344D01*
X148626765Y-94803083D01*
X148789113Y-94698615D01*
X148898027Y-94539215D01*
X148936344Y-94350000D01*
X148936344Y-92050000D01*
X148903083Y-91873235D01*
X148798615Y-91710887D01*
X148784757Y-91701418D01*
X148789113Y-91698615D01*
X148898027Y-91539215D01*
X148936344Y-91350000D01*
X148936344Y-89050000D01*
X148903083Y-88873235D01*
X148798615Y-88710887D01*
X148784757Y-88701418D01*
X148789113Y-88698615D01*
X148898027Y-88539215D01*
X148936344Y-88350000D01*
X148936344Y-86050000D01*
X148903083Y-85873235D01*
X148798615Y-85710887D01*
X148784757Y-85701418D01*
X148789113Y-85698615D01*
X148898027Y-85539215D01*
X148936344Y-85350000D01*
X148936344Y-84562308D01*
X151422727Y-84562308D01*
X151662305Y-85142132D01*
X152105535Y-85586136D01*
X152684939Y-85826725D01*
X153312308Y-85827273D01*
X153892132Y-85587695D01*
X154336136Y-85144465D01*
X154576725Y-84565061D01*
X154577273Y-83937692D01*
X154337695Y-83357868D01*
X153894465Y-82913864D01*
X153315061Y-82673275D01*
X152687692Y-82672727D01*
X152107868Y-82912305D01*
X151663864Y-83355535D01*
X151423275Y-83934939D01*
X151422727Y-84562308D01*
X148936344Y-84562308D01*
X148936344Y-83050000D01*
X148903083Y-82873235D01*
X148798615Y-82710887D01*
X148784757Y-82701418D01*
X148789113Y-82698615D01*
X148898027Y-82539215D01*
X148936344Y-82350000D01*
X148936344Y-80050000D01*
X148903083Y-79873235D01*
X148872429Y-79825597D01*
X148988327Y-79709699D01*
X149085000Y-79476310D01*
X149085000Y-78612750D01*
X148926250Y-78454000D01*
X147704000Y-78454000D01*
X147704000Y-78474000D01*
X147196000Y-78474000D01*
X147196000Y-78454000D01*
X145973750Y-78454000D01*
X145815000Y-78612750D01*
X145815000Y-79476310D01*
X145911673Y-79709699D01*
X146026648Y-79824673D01*
X146001973Y-79860785D01*
X145963656Y-80050000D01*
X145963656Y-82350000D01*
X145996917Y-82526765D01*
X146101385Y-82689113D01*
X146115243Y-82698582D01*
X146110887Y-82701385D01*
X146001973Y-82860785D01*
X145963656Y-83050000D01*
X145963656Y-85350000D01*
X145996917Y-85526765D01*
X146101385Y-85689113D01*
X146115243Y-85698582D01*
X146110887Y-85701385D01*
X146001973Y-85860785D01*
X145963656Y-86050000D01*
X145963656Y-88350000D01*
X145996917Y-88526765D01*
X146101385Y-88689113D01*
X146115243Y-88698582D01*
X146110887Y-88701385D01*
X146001973Y-88860785D01*
X145963656Y-89050000D01*
X145963656Y-89518000D01*
X145862023Y-89518000D01*
X145855710Y-89511676D01*
X145570233Y-89393135D01*
X145261123Y-89392866D01*
X144975440Y-89510908D01*
X144756676Y-89729290D01*
X144638135Y-90014767D01*
X144637866Y-90323877D01*
X144755908Y-90609560D01*
X144974290Y-90828324D01*
X145259767Y-90946865D01*
X145568877Y-90947134D01*
X145854560Y-90829092D01*
X145861664Y-90822000D01*
X145963656Y-90822000D01*
X145963656Y-91350000D01*
X145996917Y-91526765D01*
X146101385Y-91689113D01*
X146115243Y-91698582D01*
X146110887Y-91701385D01*
X146001973Y-91860785D01*
X145963656Y-92050000D01*
X145963656Y-92693000D01*
X145685067Y-92693000D01*
X145557126Y-92565059D01*
X145557134Y-92556123D01*
X145439092Y-92270440D01*
X145220710Y-92051676D01*
X144935233Y-91933135D01*
X144626123Y-91932866D01*
X144340440Y-92050908D01*
X144121676Y-92269290D01*
X144003135Y-92554767D01*
X144002866Y-92863877D01*
X142987000Y-92863877D01*
X142987000Y-89710068D01*
X144289941Y-88407126D01*
X144298877Y-88407134D01*
X144584560Y-88289092D01*
X144803324Y-88070710D01*
X144921865Y-87785233D01*
X144922134Y-87476123D01*
X144804092Y-87190440D01*
X144585710Y-86971676D01*
X144300233Y-86853135D01*
X143991123Y-86852866D01*
X143705440Y-86970908D01*
X143486676Y-87189290D01*
X143368135Y-87474767D01*
X143368126Y-87484807D01*
X141873966Y-88978966D01*
X141732631Y-89190490D01*
X141732631Y-89190491D01*
X141682999Y-89440000D01*
X141683000Y-89440005D01*
X141683000Y-96063656D01*
X141260000Y-96063656D01*
X141130412Y-96088040D01*
X141094992Y-96080867D01*
X141111865Y-96040233D01*
X141112134Y-95731123D01*
X140994092Y-95445440D01*
X140775710Y-95226676D01*
X140490233Y-95108135D01*
X140181123Y-95107866D01*
X139895440Y-95225908D01*
X139787000Y-95334159D01*
X139787000Y-92780005D01*
X139787001Y-92780000D01*
X139737370Y-92530491D01*
X139690471Y-92460302D01*
X139596034Y-92318966D01*
X139596031Y-92318964D01*
X134016034Y-86738966D01*
X133982845Y-86716790D01*
X133804510Y-86597631D01*
X133763113Y-86589396D01*
X133555000Y-86547999D01*
X133554995Y-86548000D01*
X129436344Y-86548000D01*
X129436344Y-86050000D01*
X129403083Y-85873235D01*
X129298615Y-85710887D01*
X129284757Y-85701418D01*
X129289113Y-85698615D01*
X129398027Y-85539215D01*
X129436344Y-85350000D01*
X129436344Y-83050000D01*
X129403083Y-82873235D01*
X129372429Y-82825597D01*
X129488327Y-82709699D01*
X129585000Y-82476310D01*
X129585000Y-81612750D01*
X129426250Y-81454000D01*
X128204000Y-81454000D01*
X128204000Y-81474000D01*
X127696000Y-81474000D01*
X127696000Y-81454000D01*
X126473750Y-81454000D01*
X126315000Y-81612750D01*
X126315000Y-82476310D01*
X126411673Y-82709699D01*
X126526648Y-82824673D01*
X126501973Y-82860785D01*
X126472651Y-83005583D01*
X125216034Y-81748966D01*
X125004510Y-81607631D01*
X124963113Y-81599396D01*
X124755000Y-81557999D01*
X124754995Y-81558000D01*
X124476344Y-81558000D01*
X124476344Y-80710000D01*
X124443083Y-80533235D01*
X124338615Y-80370887D01*
X124179215Y-80261973D01*
X123990000Y-80223656D01*
X122390000Y-80223656D01*
X122213235Y-80256917D01*
X122050887Y-80361385D01*
X121941973Y-80520785D01*
X121903656Y-80710000D01*
X121903656Y-81558000D01*
X117815000Y-81558000D01*
X117565490Y-81607631D01*
X117353966Y-81748966D01*
X117353964Y-81748969D01*
X116969276Y-82133656D01*
X116909000Y-82133656D01*
X116732235Y-82166917D01*
X116569887Y-82271385D01*
X116524636Y-82337611D01*
X116368699Y-82181673D01*
X116135310Y-82085000D01*
X116017750Y-82085000D01*
X115859000Y-82243750D01*
X115559000Y-82243750D01*
X115400250Y-82085000D01*
X115282690Y-82085000D01*
X115049301Y-82181673D01*
X114870673Y-82360302D01*
X114774000Y-82593691D01*
X112502000Y-82593691D01*
X112502000Y-78222750D01*
X121755000Y-78222750D01*
X121755000Y-79436309D01*
X121851673Y-79669698D01*
X122030301Y-79848327D01*
X122263690Y-79945000D01*
X122777250Y-79945000D01*
X122936000Y-79786250D01*
X122936000Y-78064000D01*
X123444000Y-78064000D01*
X123444000Y-79786250D01*
X123602750Y-79945000D01*
X124116310Y-79945000D01*
X124167756Y-79923690D01*
X126315000Y-79923690D01*
X126315000Y-80787250D01*
X126473750Y-80946000D01*
X127696000Y-80946000D01*
X127696000Y-80926000D01*
X128204000Y-80926000D01*
X128204000Y-80946000D01*
X129426250Y-80946000D01*
X129585000Y-80787250D01*
X129585000Y-79923690D01*
X129488327Y-79690301D01*
X129373352Y-79575327D01*
X129398027Y-79539215D01*
X129436344Y-79350000D01*
X129436344Y-78927000D01*
X129968866Y-78927000D01*
X130083000Y-79041133D01*
X130083000Y-84179679D01*
X130033135Y-84299767D01*
X130032866Y-84608877D01*
X130150908Y-84894560D01*
X130369290Y-85113324D01*
X130654767Y-85231865D01*
X130963877Y-85232134D01*
X131062160Y-85191524D01*
X136572657Y-85191524D01*
X136873003Y-85918418D01*
X137428657Y-86475042D01*
X138155025Y-86776656D01*
X138941524Y-86777343D01*
X139668418Y-86476997D01*
X140225042Y-85921343D01*
X140526656Y-85194975D01*
X140527343Y-84408476D01*
X140226997Y-83681582D01*
X139671343Y-83124958D01*
X138944975Y-82823344D01*
X138158476Y-82822657D01*
X137431582Y-83123003D01*
X136874958Y-83678657D01*
X136573344Y-84405025D01*
X136572657Y-85191524D01*
X131062160Y-85191524D01*
X131249560Y-85114092D01*
X131468324Y-84895710D01*
X131586865Y-84610233D01*
X131587134Y-84301123D01*
X131537000Y-84179790D01*
X131537000Y-78740000D01*
X131481660Y-78461789D01*
X131324067Y-78225933D01*
X131324064Y-78225931D01*
X130784067Y-77685933D01*
X130548211Y-77528340D01*
X130502052Y-77519158D01*
X130270000Y-77472999D01*
X130269995Y-77473000D01*
X129436344Y-77473000D01*
X129436344Y-77050000D01*
X129412577Y-76923690D01*
X145815000Y-76923690D01*
X145815000Y-77787250D01*
X145973750Y-77946000D01*
X147196000Y-77946000D01*
X147196000Y-76573750D01*
X147704000Y-76573750D01*
X147704000Y-77946000D01*
X148926250Y-77946000D01*
X149085000Y-77787250D01*
X149085000Y-76923690D01*
X148988327Y-76690301D01*
X148809698Y-76511673D01*
X148576309Y-76415000D01*
X147862750Y-76415000D01*
X147704000Y-76573750D01*
X147196000Y-76573750D01*
X147037250Y-76415000D01*
X146323691Y-76415000D01*
X146090302Y-76511673D01*
X145911673Y-76690301D01*
X145815000Y-76923690D01*
X129412577Y-76923690D01*
X129403083Y-76873235D01*
X129298615Y-76710887D01*
X129139215Y-76601973D01*
X128950000Y-76563656D01*
X126950000Y-76563656D01*
X126773235Y-76596917D01*
X126610887Y-76701385D01*
X126501973Y-76860785D01*
X126463656Y-77050000D01*
X126463656Y-78096156D01*
X126443000Y-78200000D01*
X126463656Y-78303844D01*
X126463656Y-79350000D01*
X126496917Y-79526765D01*
X126527571Y-79574403D01*
X126411673Y-79690301D01*
X126315000Y-79923690D01*
X124167756Y-79923690D01*
X124349699Y-79848327D01*
X124528327Y-79669698D01*
X124625000Y-79436309D01*
X124625000Y-78222750D01*
X124466250Y-78064000D01*
X123444000Y-78064000D01*
X122936000Y-78064000D01*
X121913750Y-78064000D01*
X121755000Y-78222750D01*
X112502000Y-78222750D01*
X112502000Y-76183691D01*
X121755000Y-76183691D01*
X121755000Y-77397250D01*
X121913750Y-77556000D01*
X122936000Y-77556000D01*
X122936000Y-75833750D01*
X123444000Y-75833750D01*
X123444000Y-77556000D01*
X124466250Y-77556000D01*
X124625000Y-77397250D01*
X124625000Y-76183691D01*
X124528327Y-75950302D01*
X124349699Y-75771673D01*
X124116310Y-75675000D01*
X123602750Y-75675000D01*
X123444000Y-75833750D01*
X122936000Y-75833750D01*
X122777250Y-75675000D01*
X122263690Y-75675000D01*
X122030301Y-75771673D01*
X121851673Y-75950302D01*
X121755000Y-76183691D01*
X112502000Y-76183691D01*
X112502000Y-75502000D01*
X149998000Y-75502000D01*
X149998000Y-77500000D01*
M02*
